<svg width="393" height="723" viewBox="0 0 393 723" fill="none" xmlns="http://www.w3.org/2000/svg">
<path opacity="0.28" d="M-5.52114 722.078C-24.4994 698.566 -40.0809 673.004 -41.4101 644.21C-42.2234 626.812 -37.2305 608.008 -25.6694 590.237C-18.1261 578.643 -7.77099 567.484 5.58816 557.446C45.9995 527.07 109.086 509.505 141.658 476.469C153.217 464.746 159.81 452.472 164.2 439.869C167.933 429.199 170.043 418.34 172.417 407.653C175.735 392.642 180.558 376.606 190.807 362.065C196.453 354.054 203.761 346.481 213.413 339.746C232.19 326.561 256.007 318.931 280.964 312.398C316.871 302.974 355.288 295.689 384.116 278.185C387.198 276.309 390.167 274.321 393.001 272.197C424.287 248.753 424.543 219.99 436.824 193.936C448.865 168.39 475.106 143.467 509.866 123.631C519.927 117.907 530.693 112.603 542.011 107.842C562.406 99.2776 584.404 92.5373 606.571 87.8326C639.507 80.8327 672.747 78.3134 701.643 81.2178M-11.2878 719.394C-29.8588 695.937 -44.8222 670.371 -45.76 641.683C-46.346 624.374 -41.2499 605.713 -29.7321 588.059C-22.2198 576.542 -11.9706 565.452 1.21642 555.448C41.1256 525.127 103.067 507.193 136.127 474.837C148.002 463.214 155.249 451.174 160.203 438.615C164.445 427.97 166.961 417.045 169.589 406.256C173.253 391.12 178.1 374.928 187.957 360.257C193.388 352.168 200.399 344.534 209.582 337.668C227.549 324.23 250.168 316.08 274.145 308.968C308.649 298.681 346.157 290.204 375.369 272.446C378.488 270.552 381.491 268.555 384.376 266.44C416.132 243.098 418.342 215.54 431.768 190.967C444.92 166.892 471.593 143.741 506.889 124.909C517.106 119.456 528.072 114.357 539.553 109.718C560.293 101.361 582.63 94.5473 605.012 89.5136C638.329 81.9966 671.692 78.3632 700.232 79.8513M-17.0562 716.717C-35.2259 693.309 -49.5574 667.742 -50.1039 639.162C-50.4625 621.942 -45.2632 603.423 -33.7966 585.887C-26.3152 574.446 -16.1642 563.425 -3.16498 553.456C36.2481 523.196 97.0633 504.886 130.588 473.206C142.78 461.683 150.672 449.877 156.205 437.368C160.947 426.748 163.875 415.763 166.76 404.866C170.77 389.604 175.641 373.255 185.107 358.449C190.321 350.287 197.017 342.576 205.749 335.596C222.88 321.89 244.32 313.236 267.326 305.538C300.42 294.389 337.025 284.72 366.629 266.714C369.777 264.8 372.821 262.795 375.749 260.688C407.967 237.449 412.141 211.09 426.703 188.004C440.966 165.395 468.093 144.05 503.894 126.194C514.284 121.011 525.424 116.125 537.078 111.601C558.171 103.45 580.831 96.5647 603.438 91.1958C637.137 83.1558 670.613 78.4146 698.806 78.4802M-22.8229 714.034C-40.5852 690.68 -54.2908 665.108 -54.4538 636.635C-54.585 619.504 -49.2748 601.127 -37.8594 583.709C-30.4089 572.344 -20.3559 561.393 -7.5385 551.464C31.3803 521.258 91.073 502.584 125.055 471.58C137.571 460.157 146.072 448.582 152.206 436.12C157.428 425.522 160.798 414.473 163.932 403.469C168.288 388.082 173.184 371.577 182.258 356.641C187.257 348.402 193.643 340.618 201.918 333.517C218.215 319.538 238.495 310.414 260.509 302.102C292.211 290.13 327.896 279.229 357.893 260.969C361.069 259.036 364.154 257.023 367.134 254.925C399.816 231.782 405.954 206.617 421.657 185.029C437.043 163.873 464.614 144.34 500.926 127.467C511.486 122.559 522.812 117.873 534.63 113.47C556.069 105.527 579.059 98.569 601.891 92.8648C635.97 84.3076 669.57 78.4465 697.406 77.1018M-28.5913 711.357C-45.9445 688.051 -59.0339 662.48 -58.8055 634.114C-58.7111 617.078 -53.2959 598.837 -41.9239 581.537C-34.5044 570.249 -24.5556 559.361 -11.9199 549.473C26.5046 519.321 85.0985 500.281 119.509 469.949C132.357 458.625 141.481 447.28 148.192 434.873C153.915 424.3 157.696 413.192 161.086 402.079C165.782 386.562 170.707 369.912 179.393 354.834C184.182 346.522 190.247 338.656 198.061 331.447C213.519 317.188 232.629 307.576 253.666 298.673C283.971 285.844 318.74 273.747 349.129 255.238C352.334 253.286 355.459 251.27 358.486 249.169C391.638 226.128 399.754 202.138 416.57 182.062C433.083 162.348 461.1 144.643 497.917 128.747C508.648 124.115 520.15 119.635 532.149 115.348C553.933 107.612 577.253 100.581 600.301 94.5479C634.763 85.4678 668.475 78.4989 695.963 75.7376M-34.3501 708.673C-51.3038 685.423 -63.7577 659.84 -63.1397 631.586C-62.8179 614.639 -57.2996 596.541 -45.9788 579.358C-38.5902 568.147 -28.7395 557.329 -16.2838 547.474C21.6446 517.383 79.1554 497.976 113.986 468.316C127.166 457.092 136.92 445.982 144.211 433.618C150.435 423.071 154.63 411.896 158.283 400.675C163.326 385.032 168.275 368.226 176.568 353.019C181.143 344.628 186.892 336.685 194.256 329.361C208.883 314.818 226.821 304.724 246.872 295.235C275.789 281.549 309.626 268.255 340.414 249.497C343.656 247.526 346.814 245.502 349.892 243.409C383.507 220.471 393.622 197.638 411.546 179.09C429.213 160.805 457.649 144.943 494.963 130.024C505.874 125.661 517.553 121.388 529.715 117.222C551.853 109.693 575.495 102.59 598.768 96.2216C633.618 86.6238 667.445 78.5413 694.578 74.3579M-40.1167 705.99C-56.6613 682.788 -68.4911 657.206 -67.4896 629.06C-66.9404 612.201 -61.3111 594.245 -50.0415 577.18C-42.6839 566.045 -32.9313 555.296 -20.6652 545.483C16.7689 515.446 73.2027 495.677 108.447 466.685C121.965 455.565 132.345 444.679 140.205 432.371C146.931 421.844 151.536 410.614 155.446 399.285C160.834 383.517 165.808 366.554 173.711 351.211C178.068 342.749 183.503 334.722 190.415 327.289C204.204 312.461 220.98 301.879 240.045 291.806C267.565 277.262 300.487 262.771 331.66 243.76C334.931 241.769 338.13 239.737 341.252 237.653C375.338 214.811 387.466 193.14 406.467 176.123C425.306 159.254 454.143 145.246 491.962 131.304C503.044 127.217 514.897 123.128 527.233 119.099C549.71 111.75 573.689 104.602 597.187 97.8986C632.42 87.7778 666.36 78.5874 693.145 72.9874M-45.8852 703.313C-62.0224 680.165 -73.2343 654.578 -71.8431 626.545C-71.0683 609.78 -65.3341 591.961 -54.1078 575.014C-46.789 563.956 -37.1345 553.276 -25.0405 543.497C11.8975 513.52 67.276 493.394 102.904 465.065C116.763 454.044 127.765 443.394 136.205 431.129C143.432 420.627 148.45 409.331 152.614 397.9C158.349 382.007 163.347 364.888 170.858 349.415C175 340.874 180.119 332.77 186.58 325.223C199.531 310.109 215.145 299.04 233.225 288.381C259.35 272.975 291.354 257.293 322.919 238.033C326.22 236.017 329.458 233.983 332.632 231.907C367.179 209.167 381.366 188.638 401.414 173.171C421.452 157.71 450.677 145.569 488.987 132.599C500.247 128.788 512.277 124.905 524.78 120.986C547.61 113.843 571.92 106.624 595.633 99.5909C631.246 88.9529 665.311 78.6426 691.738 71.6322M-51.6518 700.63C-67.3799 677.531 -77.9677 651.944 -76.193 624.018C-75.1909 607.342 -69.3456 589.665 -58.1784 572.836C-50.8905 561.855 -41.3341 551.244 -29.428 541.5C7.01573 511.577 61.353 491.099 97.3595 463.429C111.571 452.511 123.183 442.086 132.193 429.877C139.928 419.399 145.349 408.043 149.772 396.498C155.847 380.475 160.875 363.205 167.994 347.602C171.92 338.989 176.719 330.797 182.734 323.146C194.842 307.736 209.298 296.19 226.392 284.946C251.122 268.677 282.208 251.803 314.164 232.295C317.495 230.26 320.774 228.218 323.993 226.144C359.003 203.507 375.271 184.118 396.336 170.197C417.606 156.137 447.179 145.872 485.98 133.873C497.411 130.338 509.618 126.656 522.293 122.858C545.47 115.917 570.108 108.63 594.047 101.262C630.042 90.1013 664.219 78.6832 690.3 70.2503M-57.4184 697.947C-72.7471 674.902 -82.7011 649.31 -80.535 621.491C-79.3056 604.904 -73.3571 587.369 -62.2333 570.658C-54.9763 559.752 -45.518 549.212 -33.7936 539.507C2.154 509.645 55.4578 488.814 91.8346 461.802C106.393 450.989 118.622 440.788 128.202 428.628C136.44 418.171 142.273 406.754 146.95 395.107C153.372 378.958 158.422 361.538 165.153 345.794C168.863 337.103 173.348 328.827 178.91 321.067C190.174 305.367 203.475 293.338 219.58 281.515C242.917 264.378 273.085 246.318 305.434 226.556C308.793 224.502 312.113 222.451 315.376 220.387C350.856 197.851 369.225 179.613 391.288 167.228C413.818 154.578 443.717 146.183 483.01 135.151C494.619 131.891 507.005 128.41 519.851 124.733C543.381 117.999 568.342 110.64 592.498 102.937C628.881 91.2585 663.173 78.7269 688.898 68.8778M-63.1869 695.269C-78.1064 672.274 -87.4363 646.682 -84.8868 618.97C-83.4317 602.478 -77.3801 585.086 -66.2978 568.486C-59.0717 557.657 -49.7176 547.18 -38.175 537.516C-2.72168 507.708 49.5608 486.535 86.2879 460.171C101.206 449.467 114.037 439.491 124.196 427.381C132.943 416.949 139.179 405.472 144.122 393.71C150.89 377.436 155.965 359.86 162.303 343.986C165.796 335.222 169.954 326.859 175.077 318.995C185.491 302.999 197.634 290.494 212.761 278.085C234.705 260.078 263.945 240.834 296.694 220.823C300.09 218.75 303.443 216.691 306.757 214.634C342.701 192.196 363.205 175.123 386.231 164.265C410.04 153.036 440.237 146.502 480.031 136.435C491.817 133.457 504.374 130.171 517.391 126.615C541.267 120.088 566.558 112.657 590.938 104.624C627.703 92.4225 662.11 78.7772 687.486 67.5115M-68.9535 692.586C-83.4657 669.645 -92.1776 644.048 -89.2367 616.444C-87.5542 600.04 -81.3916 582.79 -70.3684 566.308C-63.1733 555.556 -53.9173 545.148 -42.5546 535.518C-7.59738 505.77 43.6717 484.255 80.7491 458.54C96.0269 447.944 109.47 438.188 120.191 426.128C129.447 415.721 136.089 404.178 141.286 392.314C148.4 375.915 153.499 358.182 159.447 342.172C162.725 333.331 166.561 324.884 171.24 316.912C180.795 300.621 191.799 287.632 205.938 274.644C226.489 255.768 254.81 235.339 287.943 215.073C291.368 212.981 294.771 210.914 298.12 208.866C334.526 186.53 357.178 170.634 381.163 161.285C406.268 151.498 436.755 146.804 477.033 137.704C488.997 135 501.731 131.921 514.913 128.481C539.143 122.16 564.756 114.657 589.361 106.289C626.507 93.5705 661.036 78.811 686.057 66.1291M-74.7141 689.908C-88.825 667.016 -96.9032 641.413 -93.5805 613.922C-91.6707 597.607 -85.4049 580.5 -74.4251 564.135C-67.2627 553.465 -58.103 543.121 -46.93 533.532C-12.467 503.838 37.799 481.997 75.2163 456.914C90.8619 446.427 104.907 436.896 116.199 424.886C125.965 414.497 133.016 402.9 138.464 390.923C145.926 374.393 151.048 356.509 156.604 340.37C159.665 331.456 163.175 322.916 167.406 314.845C176.102 298.259 185.958 284.787 199.117 271.219C218.269 251.47 245.676 229.86 279.201 209.346C282.655 207.235 286.099 205.159 289.502 203.114C326.377 180.88 351.17 166.183 376.106 158.322C402.499 150.001 433.289 147.127 474.054 138.988C486.187 136.566 499.1 133.682 512.454 130.362C537.029 124.249 562.973 116.674 587.802 107.97C625.331 94.7287 659.973 78.8615 684.645 64.7629M-80.4808 687.225C-94.1843 664.387 -101.637 638.779 -97.9226 611.395C-95.7872 595.175 -89.4165 578.204 -78.48 561.957C-71.3485 551.363 -62.2948 541.089 -51.2939 531.533C-17.3252 501.894 31.9439 479.732 69.6853 455.282C85.697 444.909 100.338 435.598 112.202 423.632C122.477 413.269 129.934 401.605 135.636 389.526C143.437 372.871 148.591 354.831 153.754 338.561C156.6 329.57 159.781 320.947 163.575 312.767C171.405 295.887 180.12 281.931 192.298 267.789C210.049 247.171 236.545 224.376 270.461 203.613C273.944 201.483 277.429 199.399 280.875 197.363C318.213 175.231 345.146 161.757 371.049 155.359C398.734 148.52 429.813 147.457 471.074 140.272C483.384 138.131 496.476 135.448 509.994 132.244C534.923 126.338 561.197 118.689 586.244 109.652C624.153 95.8926 658.917 78.9113 683.235 63.3906M-86.2474 684.542C-99.5418 661.753 -106.378 636.146 -102.273 608.868C-99.9097 592.737 -93.428 575.908 -82.5506 559.779C-75.4579 549.263 -66.4944 539.057 -55.6813 529.537C-22.2166 499.958 26.0791 477.474 64.1404 453.645C80.5242 443.392 95.7649 434.29 108.19 422.379C118.974 412.041 126.835 400.312 132.792 388.131C140.939 371.35 146.116 353.16 150.899 336.748C153.535 327.684 156.38 318.974 159.736 310.689C166.692 293.515 174.267 279.075 185.473 264.354C201.824 242.862 227.399 218.886 261.717 197.869C265.23 195.714 268.752 193.633 272.252 191.599C310.062 169.564 339.115 157.331 365.987 152.384C394.948 147.053 426.333 147.775 468.083 141.545C480.571 139.68 493.841 137.197 507.531 134.115C532.811 128.421 559.409 120.695 584.679 111.327C622.978 97.0449 657.85 78.9505 681.818 62.019M-92.0158 681.865C-104.911 659.13 -111.113 633.517 -106.626 606.353C-104.036 590.31 -97.4509 573.624 -86.6169 557.613C-79.5551 547.173 -70.6976 537.037 -60.0584 527.556C-27.088 498.032 20.2212 475.244 58.6042 452.031C75.36 441.898 91.1984 433.009 104.196 421.143C115.488 410.829 123.754 399.04 129.968 386.745C138.463 369.834 143.663 351.493 148.053 334.951C150.475 325.809 152.982 317.017 155.909 308.622C161.992 291.154 168.434 276.23 178.66 260.929C193.602 238.569 218.274 213.407 252.983 192.142C256.533 189.967 260.088 187.878 263.632 185.853C301.903 163.92 333.066 152.94 360.936 149.426C391.154 145.614 422.864 148.111 465.11 142.835C477.775 141.251 491.216 138.986 505.077 136.002C530.7 130.55 557.631 122.716 583.119 113.014C621.799 98.2147 656.792 79.0062 680.404 60.6586M-97.7825 679.182C-110.268 656.496 -115.847 630.883 -110.968 603.826C-108.152 587.878 -101.455 571.327 -90.6718 555.434C-83.6409 545.071 -74.8797 534.999 -64.4302 525.558C-31.9558 496.094 14.3747 473.001 53.0749 450.393C70.2011 440.385 86.639 431.705 100.199 419.889C112.001 409.601 120.671 397.746 127.148 385.348C135.989 368.312 141.213 349.814 145.213 333.137C147.418 323.923 149.851 315.021 152.086 306.544C156.749 288.827 162.597 273.374 171.85 257.492C185.386 234.259 209.152 207.916 244.252 186.403C247.832 184.209 251.428 182.112 255.024 180.089C293.758 158.258 327.01 148.544 355.89 146.451C387.346 144.171 419.398 148.434 462.142 144.107C474.982 142.809 488.605 140.734 502.629 137.871C528.605 132.626 555.859 124.721 581.572 114.683C620.634 99.3606 655.74 79.0443 679.006 59.2742M-103.549 676.499C-115.628 653.867 -120.58 628.249 -115.318 601.3C-112.275 585.44 -105.474 569.032 -94.7424 553.257C-87.7424 542.97 -79.0794 532.967 -68.8098 523.561C-36.8297 494.151 8.53248 470.77 47.5283 448.762C65.0388 438.885 82.0701 430.408 96.1867 418.637C108.497 408.373 117.571 396.458 124.306 383.946C133.486 366.785 138.742 348.131 142.35 331.324C144.339 322.032 146.182 313.07 148.241 304.461C152.566 286.41 156.738 270.513 165.017 254.057C177.136 229.957 200.007 202.427 235.492 180.659C239.1 178.447 242.737 176.341 246.378 174.327C285.582 152.598 320.907 144.151 350.804 143.478C383.48 142.743 415.885 148.76 459.127 145.382C472.135 144.366 485.937 142.492 500.134 139.744C526.456 134.706 554.04 126.728 579.976 116.361C619.418 100.521 654.649 79.0851 677.557 57.9046M-109.31 673.821C-120.979 651.238 -125.314 625.615 -119.662 598.778C-116.391 583.007 -109.487 566.742 -98.799 551.084C-91.83 540.874 -83.2729 530.94 -73.1851 521.575C-41.7011 492.225 2.6849 468.556 41.9955 447.136C59.8824 437.39 77.5071 429.116 92.1944 417.394C105.019 407.161 114.493 395.175 121.483 382.561C131.008 365.275 136.288 346.464 139.505 329.527C141.277 320.163 142.776 311.114 144.412 302.4C147.846 284.062 150.893 267.68 158.202 250.638C168.905 225.67 190.879 196.954 226.757 174.938C230.393 172.706 234.072 170.592 237.763 168.586C277.431 146.954 314.819 139.786 345.759 140.525C379.645 141.336 412.418 149.113 456.16 146.677C469.345 145.942 483.326 144.263 497.689 141.63C524.363 136.8 552.278 128.749 578.431 118.047C618.264 101.684 653.6 79.1403 676.159 56.5431M-115.076 671.138C-126.346 648.61 -130.047 622.981 -124.012 596.252C-120.516 580.575 -113.499 564.446 -102.86 548.9C-95.9219 538.766 -87.4629 528.902 -77.5551 519.571C-46.5654 490.276 -3.14336 466.33 36.4663 445.498C54.7357 435.888 72.946 427.818 88.1996 416.135C101.533 405.927 111.41 393.88 118.656 381.158C128.53 363.741 133.831 344.786 136.658 327.707C138.216 318.265 139.377 309.134 140.585 300.31C143.127 281.685 145.051 264.813 151.389 247.19C160.682 221.355 181.745 191.452 218.022 169.187C221.688 166.937 225.407 164.814 229.142 162.817C269.272 141.287 308.708 135.394 340.699 137.545C375.78 139.902 408.93 149.432 453.178 147.944C466.538 147.496 480.691 146.012 495.235 143.494C522.255 138.871 550.5 130.748 576.878 119.711C617.091 102.83 652.55 79.1727 674.755 55.1535M-120.843 668.455C-131.704 645.975 -134.78 620.347 -128.354 593.725C-124.63 578.137 -117.51 562.15 -106.923 546.722C-100.016 536.665 -91.6547 526.87 -81.9347 517.574C-51.4411 488.339 -8.98485 464.122 30.9214 443.862C49.5715 434.393 68.3709 426.515 84.195 414.882C98.0455 404.698 108.328 392.586 115.822 379.756C126.042 362.214 131.367 343.102 133.803 325.894C135.143 316.379 135.959 307.167 136.746 298.232C138.396 279.32 139.142 261.967 144.564 243.755C152.37 217.056 172.608 185.963 209.277 163.443C212.98 161.173 216.732 159.043 220.521 157.048C261.121 135.62 302.589 131.002 335.647 134.564C371.906 138.474 405.448 149.756 450.196 149.211C463.725 149.045 478.065 147.755 492.773 145.359C520.146 140.943 548.712 132.753 575.307 121.381C615.903 103.978 651.474 79.2123 673.331 53.7765M-126.611 665.777C-137.065 643.352 -139.523 617.719 -132.705 591.204C-128.755 575.705 -121.532 559.86 -110.987 544.55C-104.119 534.569 -95.8561 524.844 -86.3082 515.582C-56.3089 486.401 -14.8237 461.93 25.3904 442.23C44.4195 432.909 63.8358 425.232 80.1984 413.628C94.5758 403.485 105.243 391.297 113.002 378.359C123.568 360.692 128.918 341.424 130.963 324.08C132.088 314.487 132.567 305.193 132.917 296.148C133.674 276.955 133.304 259.11 137.746 240.319C144.142 212.758 163.478 180.472 200.539 157.705C204.272 155.409 208.064 153.277 211.896 151.291C252.96 129.96 296.459 126.622 330.584 131.596C368.022 137.053 401.954 150.099 447.211 150.49C460.915 150.611 475.429 149.511 490.307 147.235C518.024 143.032 546.922 134.764 573.743 123.057C614.719 105.136 650.414 79.251 671.915 52.399M-132.378 663.094C-142.43 640.718 -144.257 615.085 -137.055 588.677C-132.877 573.267 -125.543 557.564 -115.05 542.372C-108.213 532.468 -100.048 522.812 -90.6896 513.59C-61.1846 484.464 -20.6723 459.746 19.8498 440.604C39.2639 431.437 59.2571 423.941 76.1903 412.387C91.0765 402.269 102.149 390.015 110.164 376.969C121.069 359.177 126.451 339.752 128.104 322.278C129.012 312.613 129.145 303.238 129.074 294.082C128.93 274.608 127.454 256.272 130.918 236.895C135.91 208.472 154.339 174.988 191.783 151.973C195.545 149.658 199.378 147.517 203.254 145.54C244.78 124.311 290.304 122.25 325.511 128.634C364.112 135.639 398.423 150.506 444.216 151.775C458.081 152.201 472.788 151.278 487.832 149.118C515.903 145.122 545.122 136.782 572.168 124.739C613.527 106.295 649.335 79.3024 670.488 51.0337M-138.147 660.417C-147.791 638.095 -148.992 612.456 -141.407 586.156C-137.003 570.841 -129.564 555.275 -119.122 540.2C-112.318 530.378 -104.248 520.78 -95.071 511.598C-66.0621 482.532 -26.5226 457.566 14.3031 438.973C34.0944 429.96 54.6803 422.644 72.1858 411.134C87.5729 401.041 99.0571 388.727 107.328 375.573C118.581 357.649 123.984 338.08 125.246 320.471C125.939 310.728 125.726 301.277 125.235 292.005C124.188 272.255 121.607 253.422 124.092 233.459C127.682 204.174 145.193 169.499 183.037 146.234C186.828 143.901 190.7 141.758 194.629 139.783C236.625 118.656 284.16 117.865 320.447 125.665C360.214 134.213 394.936 150.825 441.222 153.055C455.258 153.756 470.143 153.034 485.358 150.995C513.775 147.206 543.325 138.793 570.594 126.421C612.341 107.46 648.264 79.3532 669.061 49.6684M-143.905 657.733C-153.143 635.466 -153.726 609.822 -145.743 583.634C-141.12 568.408 -133.57 552.984 -123.171 538.027C-116.397 528.282 -108.433 518.753 -99.4366 509.606C-70.9221 480.594 -32.3608 455.398 8.77822 437.347C28.9528 428.492 50.1174 421.352 68.1935 409.891C84.0893 399.824 95.9788 387.443 104.506 374.182C116.105 356.133 121.532 336.407 122.404 318.662C122.888 308.846 122.304 299.322 121.41 289.932C119.427 269.915 115.766 250.578 117.281 230.029C119.462 199.876 136.07 164.014 174.305 140.501C178.133 138.148 182.038 135.997 186.012 134.025C228.47 113.001 277.978 113.529 315.399 122.696C356.277 132.841 391.464 151.143 438.253 154.332C452.465 155.315 467.528 154.794 482.917 152.87C511.686 149.288 541.566 140.802 569.053 128.096C611.182 108.611 647.218 79.3969 667.668 48.2895M-149.672 655.05C-163.633 619.939 -155.41 576.258 -127.234 535.849C-99.0581 495.44 -51.2494 458.748 3.24722 435.715C23.8033 427.025 45.5562 420.054 64.2047 408.637C102.91 384.945 118.735 347.878 119.563 316.854C120.39 285.83 109.684 257.614 110.462 226.598C111.241 195.583 126.938 158.53 165.566 134.762C210.536 107.09 268.267 108.098 310.342 119.732C352.416 131.366 387.974 151.468 435.273 155.617C476.582 159.24 524.975 149.784 567.486 129.777C609.998 109.77 646.148 79.4419 666.249 46.9236M-149.662 645.448C-162.931 610.545 -154.283 567.319 -126.024 527.449C-97.7637 487.574 -50.2838 451.355 3.77746 428.969C24.8636 420.234 47.2385 413.676 66.3455 402.551C105.083 379.998 121.393 344.074 123.533 313.93C125.681 283.785 116.593 256.051 118.358 225.265C120.147 194.094 135.009 156.899 172.941 132.58C217.014 104.437 274.796 104.061 317.331 115.064C359.867 126.066 395.508 146.759 441.251 151.843C480.8 156.237 527.314 147.463 568.277 128.798C609.24 110.133 644.533 81.4877 664.703 50.1116M-149.645 635.851C-162.23 601.157 -153.144 558.39 -124.807 519.048C-96.4634 479.712 -49.3001 443.978 4.32518 422.216C25.9474 413.441 48.9129 407.299 68.5135 396.452C107.249 375.022 124.072 340.253 127.53 310.993C130.991 281.728 123.549 254.462 126.28 223.919C129.083 192.58 143.046 155.202 180.353 130.377C223.445 101.706 281.359 100.009 324.356 110.381C367.353 120.753 403.04 142.027 447.273 148.05C485.061 153.192 529.689 145.123 569.112 127.799C608.527 110.477 642.956 83.5082 663.201 53.2795M-149.635 626.249C-161.538 591.769 -152.017 549.45 -123.589 510.648C-95.1612 471.845 -48.2981 436.617 4.87111 415.468C27.0295 406.654 50.5699 400.928 70.6779 390.364C109.362 370.044 126.753 336.448 131.532 308.068C136.304 279.688 130.519 252.879 134.207 222.584C137.895 192.29 151.115 153.548 187.76 128.193C229.916 99.0251 287.916 95.9756 331.375 105.716C374.834 115.456 410.541 137.297 453.282 144.274C489.291 150.149 532.059 142.799 569.934 126.819C607.801 110.838 641.364 85.5527 661.687 56.4654M-149.625 616.647C-160.843 582.376 -150.89 540.511 -122.38 502.248C-93.8687 463.984 -47.2996 429.268 5.40311 408.717C28.1054 399.862 52.1911 394.548 72.8301 384.266C111.42 365.041 129.422 332.633 135.514 305.132C141.606 277.631 137.486 251.278 142.114 221.239C146.998 189.545 159.164 151.89 195.148 125.992C236.367 96.3337 294.458 91.92 338.376 101.035C382.294 110.15 418.006 132.535 459.281 140.483C493.509 147.072 534.417 140.466 570.737 125.822C607.066 111.177 639.754 87.581 660.154 59.6353M-149.607 607.044C-160.135 572.987 -149.748 531.571 -121.152 493.841C-92.5569 456.111 -46.2733 421.929 5.9587 401.963C29.2111 393.073 53.8123 388.168 75.0042 378.172C113.461 360.021 132.112 328.822 139.517 302.201C146.922 275.579 144.494 249.669 150.041 219.904C155.978 188.017 167.232 150.242 202.562 123.807C242.842 93.6638 301.023 87.8856 345.395 96.3699C389.767 104.854 425.463 127.773 465.29 136.707C497.729 143.984 536.779 138.143 571.559 124.841C606.34 111.539 638.172 89.6191 658.641 62.8154M-149.596 597.442C-159.44 563.594 -148.621 522.631 -119.943 485.441C-91.2643 448.25 -45.2602 414.607 6.49675 395.216C30.2896 386.298 55.4021 381.79 77.1547 372.079C115.445 354.983 134.773 325.007 143.497 299.271C152.213 273.535 151.494 248.061 157.938 218.566C164.951 186.484 175.276 148.596 209.941 121.613C249.289 90.9841 307.553 83.8422 352.386 91.6953C397.219 99.5484 432.868 122.981 471.272 132.922C501.921 140.863 539.121 135.81 572.353 123.85C605.585 111.89 636.553 91.6538 657.099 65.9917M-149.578 587.839C-158.74 554.205 -147.486 513.691 -118.717 477.039C-89.9561 440.388 -44.2209 407.301 7.04449 388.463C31.3917 379.521 56.9893 375.395 79.3226 365.98C117.423 349.916 137.458 321.191 147.495 296.334C157.531 271.477 158.53 246.438 165.86 217.22C173.961 184.931 183.346 146.943 217.345 119.411C255.758 88.3087 314.11 79.7855 359.403 87.0133C404.697 94.2352 440.283 118.153 477.284 129.135C506.148 137.705 541.495 133.475 573.179 122.858C604.863 112.24 634.964 93.6865 655.588 69.1659M-149.568 578.237C-158.046 544.812 -146.352 504.751 -117.506 468.633C-88.66 432.516 -43.1895 399.996 7.58434 381.711C32.4781 372.746 58.5469 368.997 81.4809 359.887C119.359 344.834 140.133 317.381 151.483 293.404C162.832 269.427 163.409 244.936 173.773 215.88C185.407 183.252 191.412 145.301 224.746 117.221C262.231 85.6446 320.662 75.7464 366.417 82.3371C412.173 88.9278 447.691 113.297 483.289 125.348C510.377 134.513 543.851 131.147 573.988 121.866C604.126 112.585 633.362 95.7143 654.061 72.3412M-149.55 568.634C-157.337 535.423 -145.217 495.811 -116.28 460.232C-87.3439 424.653 -42.1416 392.712 8.13994 374.957C33.5863 365.974 60.1159 362.586 83.6568 353.787C121.298 339.718 142.818 313.564 155.488 290.466C168.15 267.369 170.382 243.266 181.704 214.533C194.623 181.732 199.494 143.658 232.157 115.019C268.716 82.9683 327.225 71.6951 373.442 77.6546C419.658 83.6199 455.095 108.407 489.312 121.555C514.625 131.285 546.234 128.806 574.823 120.867C603.413 112.928 631.792 97.7401 652.56 75.509M-149.54 559.032C-156.643 526.03 -144.09 486.872 -115.071 451.832C-86.0496 416.787 -41.1034 385.435 8.67014 368.211C34.6769 359.21 61.6474 356.171 85.8055 347.7C123.187 334.588 145.485 309.755 159.466 287.542C173.447 265.33 179.73 241.566 189.607 213.2C201.069 180.273 207.549 142.028 239.54 112.836C275.177 80.3164 333.761 67.6569 380.438 72.9911C427.114 78.3252 462.474 103.496 495.297 117.781C518.864 128.035 548.58 126.484 575.622 119.888C602.663 113.291 630.176 99.786 651.022 78.6965M-149.529 549.43C-155.948 516.636 -142.956 477.932 -113.859 443.426C-84.7553 408.92 -40.0687 378.17 9.21177 361.453C35.7755 352.444 63.1798 349.728 87.9595 341.596C125.065 329.419 148.156 305.934 163.449 284.601C178.743 263.268 186.826 239.923 197.516 211.849C210.14 178.699 215.625 140.38 246.938 110.629C281.66 77.6458 340.31 63.6007 387.448 68.3037C434.586 73.0066 469.871 98.5257 501.305 113.983C523.136 124.725 550.942 124.139 576.443 118.884C601.938 113.624 628.585 101.802 649.506 81.8596M-149.511 539.827C-155.24 507.248 -141.823 468.998 -112.634 435.025C-83.4453 401.052 -39.0061 370.914 9.7577 354.705C36.8783 345.691 64.7124 343.285 90.1239 335.508C126.954 324.237 150.837 302.129 167.443 281.676C184.05 261.222 193.94 238.295 205.427 210.515C219.229 177.142 223.694 138.755 254.329 108.445C288.136 74.9988 346.852 59.568 394.443 63.6402C442.043 67.7119 477.284 93.5261 507.291 110.209C527.414 121.398 553.288 121.817 577.241 117.905C601.188 113.987 626.97 103.848 647.968 85.047M-149.503 530.231C-154.547 497.86 -140.698 460.064 -111.426 426.631C-82.1545 393.197 -37.9646 363.677 10.294 347.965C37.9776 338.948 66.2266 336.826 92.2804 329.421C128.819 319.034 153.502 298.325 171.429 278.751C189.355 259.183 201.069 236.667 213.338 209.181C228.333 175.583 231.771 137.13 261.722 106.256C294.613 72.3459 353.397 55.5236 401.449 58.9704C449.502 62.4114 484.736 88.4783 513.292 106.434C531.741 118.033 555.648 119.501 578.049 116.919C600.45 114.338 625.374 105.881 646.44 88.2281M-149.485 520.628C-153.847 488.472 -139.555 451.124 -110.199 418.224C-80.8445 385.33 -36.8976 356.432 10.8514 341.205C39.0944 332.199 67.7672 330.331 94.458 323.316C130.712 313.789 156.198 294.497 175.436 275.808C194.675 257.119 208.242 235.025 221.27 207.828C237.482 174.004 239.875 135.492 269.141 104.053C301.132 69.6845 359.968 51.4717 408.483 54.2815C456.996 57.0971 492.261 83.3626 519.316 102.635C536.126 114.608 558.026 117.154 578.886 115.914C599.746 114.675 623.797 107.901 644.94 91.3901M-149.475 511.026C-153.153 479.079 -138.428 442.184 -108.989 409.824C-79.5502 377.463 -35.844 349.206 11.3816 334.459C40.1919 325.463 69.2782 323.832 96.5989 317.229C132.569 308.535 158.856 290.694 179.407 272.885C199.958 255.075 215.386 233.402 229.166 206.496C246.609 172.449 247.951 133.866 276.518 101.865C307.608 67.0374 366.498 47.4282 415.472 49.6126C464.446 51.797 499.798 78.2118 525.296 98.8557C540.501 111.165 560.366 114.827 579.678 114.93C598.99 115.032 622.176 109.942 643.396 94.5722M-149.456 501.423C-152.444 469.69 -137.294 433.244 -107.764 401.423C-78.2419 369.601 -34.7781 341.99 11.9372 327.706C41.313 318.725 70.8215 317.303 98.7747 311.13C134.467 303.25 161.541 286.877 183.412 269.947C205.282 253.023 222.572 231.764 237.096 205.149C255.792 170.886 256.061 132.233 283.936 99.6679C314.132 64.3815 373.067 43.3822 422.503 44.9354C471.938 46.4886 507.451 73.0079 531.324 95.0676C544.978 107.688 562.755 112.491 580.519 113.936C598.283 115.381 620.605 111.968 641.903 97.7396M-149.446 491.821C-151.75 460.297 -136.159 424.305 -106.552 393.017C-76.9459 361.729 -33.7279 334.775 12.477 320.953C42.4149 312 72.3545 310.756 100.933 305.037C136.354 297.948 164.216 283.067 187.4 267.017C210.582 250.972 229.763 230.138 245.009 203.809C264.973 169.328 264.16 130.612 291.33 97.4726C320.64 61.7324 379.612 39.3377 429.51 40.2597C479.407 41.1817 515.173 67.7536 537.321 91.2815C549.465 104.181 565.105 110.158 581.321 112.945C597.537 115.732 619.001 114.001 640.368 100.915M-149.436 482.219C-151.057 450.909 -135.032 415.365 -105.335 384.616C-75.6376 353.867 -32.6656 327.571 13.0169 314.2C43.5167 305.275 73.8947 304.187 103.093 298.938C138.251 292.617 166.894 279.246 191.389 264.081C215.885 248.916 236.971 228.505 252.924 202.464C274.177 167.774 272.262 128.979 298.725 95.2773C327.149 59.0774 386.16 35.2874 436.516 35.5841C486.875 35.8749 522.995 62.4472 543.324 87.5009C554.008 100.665 567.467 107.835 582.137 111.959C596.805 116.088 617.403 116.04 638.847 104.096M-149.418 472.616C-150.355 441.515 -133.897 406.425 -104.117 376.215C-74.3354 346 -31.6147 320.379 13.5628 307.453C44.629 298.566 75.4462 297.605 105.258 292.85C140.163 287.284 169.575 275.441 195.383 261.156C221.191 246.87 244.188 226.894 260.835 201.13C283.392 166.231 280.376 127.357 306.125 93.0874C333.67 56.4332 392.711 31.2483 443.522 30.9142C494.34 30.5796 530.928 57.1108 549.32 83.7206C558.596 97.1294 569.824 105.507 582.945 110.973C596.066 116.439 615.799 118.074 637.319 107.277M-149.408 463.014C-149.653 432.121 -132.763 397.485 -102.906 367.809C-73.0411 338.133 -30.5638 313.187 14.1027 300.701C45.7333 291.858 77.0083 290.988 107.41 286.752C142.085 281.917 172.236 271.626 199.363 258.226C226.49 244.825 251.399 225.278 268.738 199.796C292.619 164.699 288.474 125.737 313.51 90.8984C340.177 53.7841 399.247 27.2101 450.519 26.2449C501.79 25.2796 538.97 51.7388 555.315 79.9404C563.223 93.5909 572.172 103.18 583.753 109.988C595.334 116.795 614.194 120.114 635.791 110.458M-149.389 453.411C-148.952 422.733 -131.628 388.545 -101.68 359.408C-71.7329 330.271 -29.4928 306.005 14.6504 293.948C46.8438 285.155 78.5897 284.359 109.576 280.658C144.033 276.543 174.921 267.81 203.359 255.295C231.798 242.774 258.637 223.671 276.659 198.456C301.884 163.17 296.606 124.108 320.91 88.7084C346.706 51.1393 405.801 23.1651 457.534 21.5686C509.267 19.9722 547.168 46.3396 561.32 76.1539C567.915 90.0425 574.537 100.845 584.57 108.995C594.595 117.146 612.607 122.141 634.272 113.633M-149.379 443.809C-148.258 413.339 -130.503 379.612 -100.471 351.008C-70.4386 322.404 -28.4472 298.83 15.1885 287.201C47.9489 278.47 80.1765 277.712 111.734 274.565C145.994 271.15 177.596 264 207.347 252.365C237.107 240.723 265.876 222.065 284.572 197.116C311.148 161.647 304.728 122.485 328.313 86.5126C353.246 48.4823 412.354 19.1201 464.549 16.8925C516.743 14.6648 555.495 40.9209 567.332 72.3668C572.65 86.5029 576.911 98.5106 585.388 108.003C593.875 117.49 611.011 124.174 632.753 116.808M-149.363 434.212C-147.551 403.957 -129.362 370.677 -99.2454 342.607C-69.1304 314.543 -27.3877 291.661 15.744 280.448C49.0697 271.783 81.7957 271.034 113.91 268.466C147.99 265.744 180.281 260.184 211.352 249.427C242.423 238.671 273.137 220.462 292.502 195.77C320.449 160.127 312.869 120.85 335.723 84.3163C359.802 45.8244 418.915 15.0746 471.571 12.2158C524.227 9.35685 563.962 35.4989 573.345 68.5797C577.427 82.9777 579.275 96.1821 586.213 107.011C593.152 117.84 609.423 126.206 631.242 119.982M-149.353 424.61C-146.857 394.563 -128.235 361.738 -98.0357 334.207C-67.8361 306.676 -26.3474 284.504 16.2743 273.701C50.1635 265.11 83.4106 264.345 116.059 262.379C149.98 260.332 182.946 256.38 215.338 246.503C247.722 236.626 280.382 218.884 300.413 194.436C329.742 158.631 320.999 119.227 343.115 82.1268C366.333 43.1738 425.461 11.0302 478.576 7.54593C531.692 4.06166 572.529 30.0993 579.338 64.8054C582.219 79.4804 581.629 93.86 587.019 106.031C592.41 118.202 607.817 128.246 629.712 123.169M-149.342 415.008C-146.164 385.176 -127.109 352.798 -96.8182 325.806C-66.5357 298.815 -25.2993 277.346 16.822 266.948C51.2711 258.442 85.0544 257.637 118.219 256.28C152.007 254.901 185.625 252.558 219.327 243.567C253.032 234.569 287.637 217.3 308.32 193.091C339.042 157.14 329.186 117.595 350.51 79.9315C372.933 40.5245 432.007 6.98573 485.583 2.87025C539.16 -1.24522 581.208 24.7154 585.343 61.0188C587.053 75.9975 583.995 91.5256 587.837 105.039C591.679 118.552 606.229 130.279 628.193 126.344M-149.324 405.405C-145.462 375.782 -125.966 343.858 -95.5989 317.4C-65.2238 290.941 -24.253 270.195 17.3697 260.195C52.3753 251.786 86.721 250.904 120.385 250.187C154.049 249.469 188.3 248.748 223.323 240.636C258.339 232.524 294.897 215.726 316.241 191.75C348.37 155.659 337.282 115.957 357.912 77.7357C379.438 37.8584 438.56 2.94072 492.59 -1.80546C546.628 -6.55214 589.976 19.3661 591.34 57.2327C591.892 72.5487 586.345 89.1924 588.647 104.047C590.943 118.897 604.625 132.312 626.666 129.519M708.87 174.269C700.655 151.019 661.351 143.663 623.947 152.409C586.541 161.16 551.835 182.569 523.659 205.821C495.482 229.073 472.179 254.704 445.173 278.569C420.382 300.472 374.41 332.61 339.875 323.914C322.514 319.543 314.333 304.86 320.74 289.572C325.686 277.776 337.863 267.493 343.346 255.806C349.506 242.677 350.854 229.379 346.916 218.01C329.745 168.341 202.79 179.808 212.456 116.833C219.743 69.3823 311.804 23.6755 366.792 2.29642C445.4 -28.2648 524.864 -37.3099 598.729 -32.3049C630.52 -30.152 668.026 -27.7605 688.469 -12.2468C688.917 -11.9199 689.346 -11.5803 689.767 -11.2401C700.054 -2.91136 705.618 8.58359 705.968 21.2641C706.356 35.444 705.735 48.6047 707.499 62.6685C709.781 80.8381 712.061 99.0135 714.351 117.183L708.864 174.264L708.87 174.269Z" stroke="#497CF2" stroke-opacity="0.23" stroke-miterlimit="10"/>
</svg>
