<svg width="375" height="770" viewBox="0 0 375 770" fill="none" xmlns="http://www.w3.org/2000/svg">
<path opacity="0.36" d="M-157.776 768.931C-176.101 741.168 -191.001 711.522 -191.654 679.851C-192.059 660.715 -186.658 640.656 -174.75 622.427C-166.981 610.534 -156.425 599.415 -142.909 589.845C-102.022 560.882 -38.8861 548.356 -5.73172 515.646C6.03378 504.039 12.8747 491.301 17.5318 477.967C21.4913 466.681 23.8418 455.015 26.4505 443.566C30.0974 427.481 35.2652 410.435 45.7934 395.604C51.5935 387.432 59.0363 379.917 68.7893 373.568C87.7656 361.128 111.625 355.306 136.592 350.806C172.514 344.305 210.882 340.413 239.953 324.312C243.06 322.586 246.059 320.725 248.926 318.701C280.579 296.357 281.501 264.889 294.317 237.666C306.883 210.975 333.553 186.475 368.577 168.451C378.713 163.254 389.541 158.59 400.905 154.581C421.383 147.372 443.414 142.331 465.564 139.536C498.475 135.374 531.585 136.15 560.25 142.402M-163.448 765.38C-181.369 737.72 -195.654 708.134 -195.921 676.622C-196.102 657.607 -190.602 637.716 -178.739 619.61C-171.002 607.797 -160.554 596.744 -147.209 587.192C-106.823 558.236 -44.8164 545.185 -11.1934 513.271C0.884307 501.807 8.36958 489.395 13.5869 476.17C18.0517 464.965 20.8068 453.27 23.6709 441.736C27.6651 425.551 32.8606 408.336 43.002 393.321C48.5899 385.041 55.7385 377.427 65.0282 370.885C83.2054 358.082 105.886 351.564 129.891 346.325C164.439 338.73 201.93 333.437 231.389 317.099C234.534 315.355 237.566 313.489 240.484 311.479C272.601 289.297 275.439 259.357 289.359 233.878C302.995 208.915 330.054 186.402 365.586 169.534C375.873 164.65 386.894 160.233 398.418 156.374C419.235 149.428 441.603 144.343 463.975 141.211C497.277 136.523 530.534 136.092 558.878 140.756M-169.122 761.835C-186.645 734.271 -200.302 704.753 -200.182 673.4C-200.138 654.506 -194.539 634.781 -182.73 616.799C-175.026 605.067 -164.677 594.079 -151.52 584.546C-111.628 555.603 -50.7329 542.02 -16.6629 510.896C-4.27299 499.575 3.84879 487.488 9.64015 474.378C14.6024 463.255 17.768 451.537 20.8895 439.912C25.2308 423.627 30.4542 406.244 40.2105 391.038C45.5844 382.656 52.4209 374.924 61.2652 368.209C78.6176 355.023 100.136 347.827 123.191 341.844C156.355 333.156 192.978 326.46 222.832 309.892C226.006 308.131 229.079 306.259 232.04 304.264C264.614 282.244 269.376 253.825 284.391 230.095C299.098 206.856 326.567 186.368 362.579 170.623C373.03 166.053 384.22 161.886 395.913 158.172C417.076 151.491 439.767 146.361 462.371 142.886C496.065 137.665 529.46 136.033 557.492 139.103M-174.793 758.284C-191.913 730.823 -204.947 701.365 -204.448 670.17C-204.181 651.398 -198.474 631.841 -186.72 613.983C-179.048 602.331 -168.797 591.408 -155.822 581.9C-116.423 552.963 -56.6358 538.863 -22.1266 508.527C-9.41658 497.35 -0.695444 485.58 5.69342 472.587C11.1315 461.537 14.7389 449.798 18.1098 438.082C22.7984 421.697 28.0496 404.145 37.4191 388.755C42.5807 380.265 49.1112 372.421 57.5041 365.526C74.0337 351.952 94.4102 344.117 116.492 337.357C148.292 327.619 184.027 319.478 214.278 302.673C217.481 300.894 220.595 299.018 223.607 297.037C256.641 275.172 263.328 248.269 279.443 226.301C295.233 204.772 323.101 186.315 359.598 171.701C370.213 167.45 381.583 163.523 393.436 159.959C414.937 153.541 437.958 148.367 460.794 144.549C494.878 138.803 528.423 135.957 556.132 137.445M-180.467 754.739C-197.181 727.375 -209.602 697.984 -208.717 666.947C-208.227 648.303 -202.42 628.906 -190.711 611.172C-183.071 599.6 -172.926 588.737 -160.133 579.253C-121.226 550.324 -62.5229 535.706 -27.6039 506.152C-14.566 495.119 -5.23002 483.667 1.73098 470.795C7.66655 459.826 11.6844 448.065 15.3126 436.257C20.3425 419.765 25.6256 402.058 34.6119 386.472C39.5674 377.88 45.7799 369.911 53.7176 362.849C69.4184 348.88 88.643 340.387 109.768 332.875C140.199 322.05 175.051 312.501 205.697 295.465C208.929 293.669 212.083 291.794 215.141 289.815C248.64 268.111 257.267 242.706 274.454 222.511C291.33 202.681 319.6 186.274 356.576 172.782C367.354 168.852 378.895 165.17 390.925 161.751C412.765 155.597 436.116 150.378 459.173 146.223C493.65 139.944 527.333 135.899 554.729 135.798M-186.131 751.188C-202.448 723.927 -214.238 694.59 -212.968 663.719C-212.254 645.196 -206.347 625.966 -194.692 608.355C-187.085 596.864 -177.039 586.066 -164.425 576.601C-126.014 547.685 -68.3788 532.55 -33.0578 503.777C-19.692 492.888 -9.73518 481.76 -2.19826 468.998C4.23477 458.111 8.665 446.32 12.5584 434.422C17.9355 417.83 23.2465 399.954 31.8459 384.184C36.5892 375.483 42.4898 367.397 49.982 360.16C64.8637 345.791 82.9345 336.646 103.092 328.388C132.162 316.477 166.116 305.519 197.165 288.253C200.434 286.439 203.621 284.559 206.731 282.595C240.686 261.052 251.275 237.127 269.527 218.723C287.518 200.58 316.162 186.235 353.61 173.866C364.56 170.25 376.271 166.813 388.461 163.544C410.648 157.654 434.321 152.391 457.61 147.892C492.485 141.089 526.308 135.835 553.384 134.14M-191.802 747.637C-207.714 720.472 -218.883 691.202 -217.234 660.49C-216.297 642.088 -210.283 623.025 -198.681 605.538C-191.107 594.128 -181.16 583.395 -168.736 573.954C-130.817 545.045 -74.2444 529.4 -38.5273 501.402C-24.8278 490.663 -14.254 479.847 -6.1528 467.206C0.779581 456.394 5.61837 444.587 9.76915 432.598C15.4934 415.906 20.8322 397.861 29.0466 381.901C33.5758 373.098 39.1663 364.887 46.2111 357.483C60.2659 342.713 77.1928 332.91 96.3835 323.907C124.085 310.909 157.156 298.542 188.594 281.04C191.892 279.208 195.12 277.323 198.273 275.373C232.695 253.986 245.258 231.547 264.546 214.934C283.67 198.466 312.668 186.194 350.596 174.949C361.71 171.653 373.591 168.435 385.95 165.336C408.47 159.678 432.479 154.402 456 149.56C491.267 142.225 525.228 135.77 551.991 132.487M-197.476 744.092C-212.984 717.03 -223.539 687.821 -221.505 657.273C-220.345 638.999 -214.23 620.097 -202.674 602.734C-195.14 591.404 -185.292 580.737 -173.04 571.314C-135.616 542.418 -80.0844 526.27 -44.0007 499.039C-29.9654 488.445 -18.7786 477.953 -10.1015 465.421C-2.67163 454.69 2.57957 442.854 6.98578 430.78C13.0573 413.988 18.4238 395.774 26.2514 379.631C30.5684 370.719 35.8469 362.39 42.4462 354.813C55.6742 339.641 71.4569 329.181 89.6809 319.432C116.015 305.341 148.202 291.572 180.035 273.839C183.364 271.983 186.631 270.1 189.835 268.164C224.714 246.938 239.297 225.968 259.59 211.164C279.873 196.366 309.215 186.179 347.608 176.051C358.893 173.075 370.944 170.103 383.467 167.141C406.333 161.748 430.673 156.427 454.415 151.248C490.073 143.387 524.183 135.719 550.623 130.853M-203.147 740.541C-218.25 713.576 -228.184 684.433 -225.771 654.044C-224.388 635.891 -218.165 617.156 -206.671 599.917C-199.169 588.667 -189.421 578.065 -177.356 568.661C-140.425 539.772 -85.9206 523.127 -49.4761 496.657C-35.0914 486.214 -23.3035 476.033 -14.062 463.623C-6.1269 452.973 -0.473024 441.115 4.19242 428.944C10.6052 412.044 16.0055 393.669 23.4462 377.341C27.5491 368.328 32.5116 359.867 38.6695 352.13C51.0665 336.544 65.7093 325.438 82.9664 314.944C107.934 299.76 139.236 284.589 171.463 266.626C174.822 264.752 178.13 262.864 181.379 260.936C216.715 239.872 233.341 220.372 254.61 207.368C276.086 194.235 305.729 186.139 344.588 177.127C356.036 174.471 368.26 171.737 380.95 168.927C404.157 163.791 428.825 158.432 452.799 152.91C488.849 144.516 523.097 135.648 549.226 129.187M-208.819 736.99C-223.526 710.127 -232.829 681.045 -230.03 650.815C-228.422 632.783 -222.101 614.216 -210.652 597.1C-203.183 585.931 -193.534 575.395 -181.651 566.015C-145.214 537.139 -91.7293 519.998 -54.9319 494.289C-40.2056 483.996 -27.8086 474.127 -18.0009 461.832C-9.56647 451.257 -3.50217 439.376 1.41871 427.12C8.17871 410.12 13.605 391.583 20.6626 375.059C24.5533 365.937 29.2057 357.352 34.9163 349.447C46.4805 333.454 59.9851 321.697 76.2734 310.463C99.8759 294.179 130.291 277.613 162.916 259.413C166.304 257.522 169.652 255.629 172.944 253.715C208.746 232.812 227.434 214.795 249.66 203.58C272.355 192.125 302.279 186.112 341.605 178.21C353.225 175.875 365.621 173.38 378.479 170.72C402.032 165.848 427.022 160.445 451.22 154.579C487.668 145.66 522.056 135.584 547.864 127.535M-214.493 733.445C-228.794 706.679 -237.477 677.664 -234.298 647.592C-232.469 629.688 -226.048 611.287 -214.643 594.289C-207.207 583.2 -197.663 572.723 -185.961 563.368C-150.017 534.499 -97.5399 516.875 -60.4093 491.913C-45.3276 481.778 -32.3373 472.22 -21.9556 460.04C-13.0158 449.547 -6.54879 437.643 -1.36085 425.29C5.74636 408.19 11.2004 389.484 17.8711 372.776C21.5478 363.552 25.8763 354.836 31.1532 346.77C41.8787 330.363 54.2434 317.961 69.5727 305.982C91.8101 288.599 121.331 270.636 154.358 252.206C157.783 250.298 161.165 248.4 164.508 246.5C200.769 225.753 221.553 209.239 244.7 199.798C268.634 190.034 298.812 186.091 338.613 179.299C350.401 177.291 362.964 175.028 375.99 172.519C399.882 167.911 425.202 162.463 449.629 156.26C486.469 146.809 520.998 135.526 546.492 125.889M-220.164 729.894C-234.062 703.23 -242.13 674.276 -238.565 644.363C-236.511 626.58 -229.983 608.347 -218.64 591.472C-211.236 580.464 -201.791 570.052 -190.27 560.716C-154.82 531.86 -103.343 513.753 -65.8788 489.538C-50.4418 479.561 -36.8483 470.307 -25.9082 458.242C-16.4632 447.83 -9.59164 435.897 -4.14827 423.46C3.30616 406.259 8.78812 387.385 15.0738 370.487C18.5383 361.154 22.5489 352.314 27.3862 344.081C37.2651 327.259 48.5073 314.206 62.8679 301.488C83.7403 283.006 112.375 263.647 145.791 244.98C149.245 243.054 152.676 241.152 156.054 239.266C192.772 218.68 215.664 203.682 239.73 195.996C264.92 187.949 295.342 186.051 335.603 180.369C347.563 178.681 360.295 176.664 373.483 174.298C397.721 169.954 423.364 164.462 448.023 157.916C485.253 147.939 519.929 135.449 545.102 124.223M-225.83 726.349C-239.33 699.782 -246.768 670.889 -242.826 641.14C-240.548 623.479 -233.921 605.413 -222.623 588.662C-215.254 577.74 -205.906 567.387 -194.574 558.075C-159.617 529.227 -109.13 510.656 -71.3425 487.169C-55.5422 477.35 -41.3554 468.407 -29.8491 456.457C-19.8969 446.12 -12.6167 434.171 -6.92196 421.636C0.881571 404.33 6.38941 385.292 12.2882 368.21C15.5386 358.776 19.2273 349.798 23.6213 341.411C32.6536 324.174 42.7656 310.471 56.1652 297.014C75.6666 277.425 103.42 256.677 137.231 237.78C140.715 235.836 144.187 233.929 147.618 232.051C184.8 211.626 209.793 198.17 234.77 192.214C261.207 185.909 291.888 186.036 332.611 181.459C344.732 180.097 357.639 178.312 370.993 176.097C395.571 172.017 421.543 166.48 446.434 159.591C484.057 149.082 518.871 135.391 543.73 122.577M-231.502 722.798C-244.597 696.334 -251.413 667.501 -247.084 637.911C-244.585 620.377 -237.856 602.472 -226.605 585.845C-219.268 575.004 -210.027 564.716 -198.867 555.423C-164.403 526.581 -114.899 507.553 -76.8042 484.794C-60.6426 475.139 -45.8683 466.5 -33.794 454.659C-23.3365 444.404 -15.6518 432.426 -9.70156 419.806C-1.55863 402.399 3.98488 383.193 9.49677 365.928C12.535 356.385 15.8979 347.282 19.8602 338.728C28.0382 321.077 37.0276 306.722 49.4644 292.533C67.593 271.844 94.4679 249.701 128.674 230.573C132.186 228.611 135.699 226.699 139.174 224.836C176.813 204.573 203.907 192.683 229.81 188.431C257.497 183.888 288.425 186.028 329.619 182.548C341.909 181.513 354.988 179.967 368.504 177.896C393.428 174.08 419.731 168.499 444.845 161.266C482.859 150.231 517.82 135.334 542.36 120.925M-237.173 719.247C-249.863 692.879 -256.066 664.113 -251.351 634.682C-248.627 617.27 -241.792 599.531 -230.602 583.028C-223.305 572.267 -214.156 562.045 -203.183 552.77C-169.222 523.941 -120.678 504.457 -82.2796 482.412C-65.7508 472.928 -50.3853 464.581 -37.7545 452.861C-26.7917 442.687 -18.7025 430.68 -12.4968 417.976C-4.00667 400.468 1.56282 381.1 6.69944 363.638C9.53146 353.994 12.5627 344.759 16.0913 336.045C23.407 317.979 31.2741 302.973 42.7578 288.045C59.5154 266.251 85.5018 242.718 120.112 223.354C123.656 221.368 127.206 219.464 130.733 217.609C168.84 197.501 198.012 187.195 224.846 184.636C253.767 181.878 284.957 186.007 326.615 183.624C339.076 182.909 352.327 181.602 366.011 179.682C391.28 176.136 417.907 170.504 443.251 162.934C481.664 151.368 516.758 135.263 540.983 119.272M-242.847 715.702C-255.141 689.437 -260.714 660.732 -255.621 631.465C-252.674 614.174 -245.739 596.603 -234.595 580.224C-227.331 569.543 -218.288 559.386 -207.489 550.136C-174.021 521.314 -126.451 501.392 -87.747 480.056C-70.851 470.742 -54.8962 462.694 -41.6973 451.082C-30.2292 440.99 -21.7372 428.96 -15.2724 416.158C-6.43312 398.544 -0.837724 379.014 3.912 361.368C6.53185 351.616 9.2295 342.255 12.3343 333.374C18.7878 314.893 25.5402 299.238 36.0629 283.57C51.4398 260.676 76.5553 235.748 111.561 216.154C115.141 214.15 118.725 212.241 122.295 210.4C160.859 190.453 192.099 181.744 219.893 180.86C250.028 179.9 281.5 186.005 323.628 184.72C336.258 184.332 349.676 183.282 363.528 181.488C389.132 178.243 416.092 172.529 441.66 164.616C480.464 152.523 515.705 135.212 539.609 117.632M-248.519 712.151C-260.407 685.983 -265.359 657.344 -259.88 628.237C-256.71 611.073 -249.666 593.663 -238.576 577.407C-231.344 566.807 -222.399 556.709 -211.79 547.484C-178.816 518.675 -132.212 498.315 -93.2069 477.675C-75.9455 468.538 -59.3995 460.781 -45.6421 449.285C-33.6688 439.274 -24.7723 427.215 -18.0442 414.329C-8.8577 396.614 -3.23443 376.915 1.1303 359.08C3.53607 349.225 6.16215 339.736 8.581 330.692C13.6285 311.788 19.8022 295.489 29.3719 279.083C43.37 255.083 67.6126 228.766 103.013 208.941C106.623 206.92 110.247 205.006 113.87 203.173C152.891 183.388 186.18 176.287 214.944 177.066C246.275 177.914 278.046 185.99 320.648 185.797C333.445 185.742 347.039 184.918 361.05 183.274C387.001 180.294 414.283 174.535 440.083 166.279C479.279 153.654 514.658 135.142 538.25 115.968M-254.19 708.6C-265.675 682.534 -270.005 653.957 -264.147 625.007C-260.753 607.965 -253.61 590.722 -242.573 574.59C-235.374 564.07 -226.528 554.038 -216.098 544.831C-183.617 516.029 -137.97 495.251 -98.6842 475.299C-81.0438 466.346 -63.9124 458.875 -49.6026 447.486C-37.124 437.557 -27.8249 425.475 -20.8375 412.492C-11.3116 394.677 -5.65276 374.81 -1.67493 356.79C0.518669 346.827 2.55891 337.21 4.80617 328.002C9.52549 308.697 14.0427 291.734 22.6574 274.595C35.267 249.495 58.6465 221.783 94.4361 201.721C98.075 199.682 101.74 197.763 105.407 195.945C144.892 176.321 180.213 170.828 209.957 173.27C242.464 175.939 274.545 185.974 317.62 186.873C330.579 187.144 344.345 186.559 358.526 185.059C384.815 182.342 412.428 176.54 438.457 167.946C478.043 154.796 513.572 135.07 536.841 114.314M-259.856 705.055C-270.935 679.086 -274.65 650.569 -268.407 621.785C-264.79 604.864 -257.547 587.788 -246.556 571.779C-239.39 561.34 -230.651 551.373 -220.403 542.191C-188.416 513.402 -143.733 492.205 -104.148 472.93C-86.1362 464.16 -68.4194 456.974 -53.5434 445.702C-40.5536 435.86 -30.8558 423.743 -23.613 410.674C-13.74 392.759 -8.05326 372.724 -4.46233 354.52C-2.4828 344.455 -0.782108 334.706 1.04718 325.338C4.88673 305.624 8.29715 288.011 15.9606 270.127C27.1817 243.926 49.6981 214.819 85.8827 194.527C89.5508 192.47 93.2572 190.546 96.9745 188.743C136.919 169.274 174.261 165.401 205.009 169.5C238.684 173.991 271.09 185.991 314.64 187.975C327.768 188.573 341.708 188.22 356.051 186.865C382.686 184.412 410.629 178.565 436.882 169.628C476.869 155.946 512.527 135.019 535.483 112.675M-265.528 701.504C-276.211 675.638 -279.295 647.181 -272.674 618.556C-268.834 601.762 -261.483 584.847 -250.543 568.956C-243.409 558.597 -234.769 548.696 -224.701 539.532C-193.207 510.75 -149.476 489.147 -109.608 470.549C-91.2188 461.969 -72.9246 455.068 -57.4864 443.898C-43.9913 434.138 -33.8909 421.998 -26.3907 408.838C-16.1686 390.817 -10.4578 370.625 -7.24996 352.225C-5.4826 342.051 -4.11544 332.177 -2.71005 322.643C0.249734 302.519 2.5552 284.25 9.26556 265.627C19.106 238.326 40.7436 207.824 77.331 187.302C81.0282 185.227 84.7757 183.299 88.5361 181.509C128.938 162.202 168.287 159.941 200.047 165.699C234.874 172.01 267.614 185.97 311.646 189.046C324.94 189.976 339.047 189.856 353.567 188.645C380.541 186.456 408.814 180.565 435.299 171.284C475.676 157.077 511.482 134.943 534.119 111.004M-271.199 697.953C-281.477 672.183 -283.941 643.794 -276.933 615.327C-272.869 598.655 -265.418 581.906 -254.532 566.139C-247.431 555.861 -238.89 546.025 -229.01 536.879C-198.011 508.111 -155.233 486.108 -115.083 468.167C-96.319 459.783 -77.4434 453.155 -61.4391 442.1C-47.4309 432.422 -36.9259 420.252 -29.1763 407.002C-18.6069 388.88 -12.8683 368.52 -10.0473 349.936C-8.49405 339.66 -7.46832 329.66 -6.47901 319.96C-4.39899 299.427 -3.25507 280.505 2.55887 261.14C10.9403 232.736 31.7853 200.841 68.7695 180.082C72.5038 177.99 76.2844 176.057 80.0977 174.275C120.964 155.13 162.305 154.482 195.093 161.898C231.055 170.034 264.145 185.955 308.651 190.116C322.108 191.373 336.396 191.485 351.076 190.425C378.396 188.5 406.99 182.57 433.698 172.946C474.468 158.207 510.412 134.872 532.735 109.344M-276.873 694.408C-286.746 668.741 -288.596 640.412 -281.201 612.104C-276.913 595.553 -269.363 578.972 -258.524 563.329C-251.462 553.13 -243.021 543.36 -233.312 534.233C-202.806 505.471 -160.988 483.088 -120.545 465.792C-101.407 457.61 -81.923 451.269 -65.384 440.302C-50.8527 430.725 -39.9629 418.513 -31.948 405.172C-21.0314 386.95 -15.265 366.421 -12.8291 347.647C-11.488 337.263 -10.7958 327.138 -10.2382 317.271C-9.03984 296.335 -8.99302 276.757 -4.14 256.652C2.85888 227.155 22.8348 193.858 60.214 172.869C63.9793 170.753 67.7991 168.821 71.6555 167.054C112.981 148.063 156.311 149.034 190.127 158.109C227.226 168.065 260.662 185.958 305.653 191.199C319.277 192.788 333.734 193.127 348.581 192.218C376.238 190.563 405.164 184.582 432.104 174.615C473.263 159.35 509.357 134.802 531.359 107.686M-282.544 690.857C-292.02 665.286 -293.242 637.024 -285.468 608.875C-280.956 592.445 -273.299 576.031 -262.513 560.512C-255.484 550.394 -247.142 540.689 -237.622 531.587C-207.609 502.832 -166.753 480.074 -126.016 463.423C-106.499 455.45 -86.4457 449.368 -69.3405 438.517C-54.304 429.021 -43.0095 416.78 -34.7373 403.348C-23.4814 385.025 -17.6793 364.328 -15.6302 345.37C-14.5032 334.884 -14.1524 324.633 -14.0109 314.6C-13.702 293.26 -14.7445 273.027 -10.8505 252.177C-5.22637 221.586 13.8746 186.882 51.6409 165.662C55.4354 163.528 59.2962 161.591 63.1958 159.838C104.979 141.009 150.292 143.592 185.151 154.326C223.371 166.101 257.143 186.029 302.645 192.288C316.422 194.228 331.067 194.781 346.076 194.016C374.08 192.625 403.328 186.6 430.5 176.289C472.051 160.492 508.283 134.743 529.972 106.039M-288.218 687.312C-297.29 661.844 -297.889 633.643 -289.736 605.652C-285.002 589.35 -277.244 573.097 -266.512 557.701C-259.517 547.67 -251.27 538.018 -241.933 528.94C-212.414 500.198 -172.519 477.065 -131.494 461.048C-111.605 453.283 -90.9665 447.461 -73.2932 436.719C-57.7592 427.304 -46.0542 415.041 -37.5248 401.518C-25.9197 383.088 -20.0936 362.235 -18.4295 343.087C-17.5146 332.493 -17.5071 322.122 -17.7798 311.917C-18.3623 290.18 -20.4922 269.284 -17.5572 247.69C-13.3078 216.005 4.90845 179.899 43.0775 158.449C46.9012 156.297 50.8011 154.362 54.7536 152.617C97.0014 133.949 144.285 138.138 180.185 150.537C219.529 164.125 253.667 186.008 299.639 193.37C313.58 195.631 328.397 196.423 343.573 195.808C371.916 194.681 401.493 188.611 428.895 177.964C470.845 161.641 507.217 134.685 528.584 104.392M-293.882 683.761C-302.55 658.396 -302.534 630.255 -293.989 602.429C-289.039 586.248 -281.174 570.163 -270.487 554.891C-263.525 544.94 -255.385 535.353 -246.227 526.294C-217.201 497.559 -178.274 474.07 -136.949 458.679C-116.684 451.129 -95.4736 445.561 -77.234 434.934C-61.1947 425.601 -49.0853 413.309 -40.2985 399.694C-28.3462 381.165 -22.4922 360.143 -21.2131 340.805C-20.5045 330.108 -20.8638 319.618 -21.535 309.241C-23.0421 287.112 -26.2339 265.548 -24.2501 243.209C-21.3815 210.424 -4.03608 172.923 34.5279 151.242C38.3886 149.073 42.3217 147.133 46.3192 145.396C89.0242 126.89 138.239 132.732 175.235 146.749C215.645 162.204 250.207 185.987 296.657 194.454C310.766 197.041 325.756 198.072 341.101 197.602C369.791 196.738 399.699 190.624 427.324 179.633C469.666 162.779 506.176 134.621 527.232 102.734M-299.553 680.21C-312.62 640.279 -303.43 593.324 -274.476 552.074C-245.522 510.823 -197.133 475.73 -142.411 456.304C-121.77 448.975 -99.9787 443.655 -81.1711 433.136C-42.1351 411.31 -25.5395 372.405 -23.9967 338.523C-22.454 304.64 -32.4448 272.606 -30.9509 238.728C-29.457 204.85 -12.9885 165.946 25.9724 144.029C71.3293 118.51 128.71 125.754 170.275 142.967C211.841 160.179 246.73 185.971 293.665 195.543C334.655 203.903 382.993 198.695 425.727 181.308C468.462 163.921 505.111 134.557 525.852 101.088M-299.32 669.697C-311.704 630.068 -302.102 583.656 -273.078 543.005C-244.053 502.347 -196.001 467.738 -141.727 448.974C-120.558 441.652 -98.1579 436.85 -78.9011 426.7C-39.8599 406.124 -22.8088 368.523 -19.9811 335.744C-17.1456 302.964 -25.5383 271.63 -23.0693 238.108C-20.5669 204.167 -4.92583 165.019 33.3562 142.424C77.8316 116.294 135.294 122.027 177.333 138.597C219.373 155.168 254.33 181.616 299.696 192.047C338.918 201.064 385.372 196.402 426.536 180.32C467.7 164.239 503.458 136.625 524.241 104.414M-299.081 659.19C-310.79 619.863 -300.762 574 -271.673 533.936C-242.577 493.878 -194.852 459.765 -141.026 441.638C-119.323 434.329 -96.345 430.045 -76.6039 420.252C-37.5909 400.906 -20.0567 364.623 -15.9382 332.953C-11.8179 301.276 -18.5852 270.63 -15.1605 237.476C-11.6457 203.459 3.10489 164.015 40.7771 140.8C84.2901 113.988 141.914 118.289 184.427 134.217C226.939 150.146 261.93 177.236 305.772 188.534C343.226 198.182 387.788 194.092 427.389 179.316C466.983 164.539 501.843 138.67 522.675 107.723M-298.848 648.677C-309.883 609.657 -299.434 564.332 -270.267 524.867C-241.1 485.402 -193.685 451.811 -140.327 434.308C-118.089 427.012 -94.5495 423.245 -74.3104 413.816C-35.3747 395.68 -17.3025 360.743 -11.8913 330.175C-6.48795 299.607 -11.6183 269.637 -7.24761 236.858C-2.87697 204.078 11.1673 163.063 48.1923 139.196C90.7863 111.741 148.528 114.569 191.514 129.855C234.5 145.142 269.498 172.854 311.835 185.039C347.503 195.3 390.199 191.8 428.229 178.329C466.252 164.857 500.213 140.739 521.095 111.051M-298.615 638.164C-308.975 599.445 -298.106 554.663 -268.869 515.797C-239.632 476.932 -192.522 443.87 -139.641 426.971C-116.862 419.689 -92.7895 416.432 -72.0289 407.368C-33.2116 390.42 -14.5601 356.849 -7.86407 327.384C-1.16802 297.919 -4.65344 268.625 0.645598 236.225C6.23774 202.04 19.2082 162.103 55.5897 137.572C97.2628 109.48 155.126 110.824 198.584 125.474C242.041 140.125 277.031 168.433 317.888 181.525C351.768 192.379 392.597 189.495 429.052 177.323C465.514 165.151 498.565 142.789 519.497 114.359M-298.374 627.651C-308.052 589.24 -296.763 544.995 -267.454 506.722C-238.145 468.45 -191.331 435.943 -138.932 419.635C-115.605 412.374 -91.0294 409.619 -69.7257 400.926C-31.0663 385.141 -11.7962 352.962 -3.81523 324.6C4.16571 296.238 2.35238 267.608 8.55847 235.607C15.2019 201.322 27.2687 161.157 63.0127 135.968C103.763 107.245 161.748 107.104 205.671 121.113C249.595 135.121 284.556 164.013 323.95 178.03C356.036 189.446 395 187.203 429.892 176.336C464.783 165.469 496.944 144.853 517.919 117.68M-298.141 617.138C-307.144 579.029 -295.435 535.326 -266.056 497.653C-236.677 459.98 -190.153 428.034 -138.24 412.305C-114.375 405.07 -89.3006 402.804 -67.446 394.483C-28.976 379.835 -9.06162 349.068 0.210129 321.815C9.47405 294.562 9.35044 266.592 16.442 234.98C24.1601 200.597 35.3058 160.21 70.4004 134.35C110.236 104.996 168.335 103.371 212.732 116.737C257.128 130.104 292.03 159.552 329.985 174.521C360.277 186.475 397.383 184.898 430.704 175.336C464.025 165.774 495.286 146.908 516.312 120.994M-297.9 606.626C-306.229 568.823 -294.099 525.658 -264.643 488.584C-235.194 451.511 -188.95 420.145 -137.539 404.969C-113.122 397.767 -87.5739 395.971 -65.1488 388.035C-26.8918 374.497 -6.30357 345.174 4.25306 319.024C14.8097 292.874 16.3835 265.563 24.3508 234.349C33.1553 199.855 43.3682 159.257 77.8135 132.726C116.73 102.754 174.949 99.6265 219.817 112.357C264.687 125.081 299.516 155.054 336.052 171.014C364.553 183.467 399.797 182.594 431.548 174.337C463.299 166.08 493.66 148.965 514.736 124.309M-297.667 596.112C-305.321 558.612 -292.763 515.99 -263.243 479.509C-233.723 443.028 -187.755 412.255 -136.845 397.632C-111.885 390.463 -85.8766 389.13 -62.8613 381.593C-24.8489 369.139 -3.5553 341.287 8.28621 316.24C20.1277 291.192 21.2704 264.437 32.2499 233.723C44.5746 199.234 51.4269 158.317 85.2228 131.115C123.228 100.526 181.557 95.9004 226.9 107.982C272.244 120.064 306.995 150.525 342.111 167.506C368.832 180.421 402.194 180.295 432.376 173.337C462.558 166.379 492.02 151.015 513.144 127.623M-297.426 585.6C-304.399 548.407 -291.428 506.321 -261.83 470.44C-232.231 434.559 -186.544 404.391 -136.136 390.296C-110.625 383.166 -84.1677 382.277 -60.5562 375.145C-22.8024 363.743 -0.797238 337.394 12.337 313.449C25.4634 289.505 28.2424 263.35 40.1666 233.092C53.7737 198.549 59.5012 157.378 92.6437 129.492C129.738 98.2846 188.177 92.1622 233.994 103.602C279.809 115.048 314.47 145.958 348.187 163.993C373.13 177.338 404.618 177.985 433.23 172.332C461.841 166.68 490.411 153.066 511.578 130.932M-297.193 575.087C-303.49 538.195 -290.1 496.653 -260.432 461.371C-230.762 426.083 -185.343 396.533 -135.452 382.966C-109.384 375.875 -82.4961 375.416 -58.2785 368.709C-20.805 358.327 1.94324 333.506 16.3605 310.671C30.7777 287.835 37.5768 262.482 48.056 232.472C60.2172 197.638 67.5482 156.45 100.035 127.887C136.225 96.0679 194.77 88.4355 241.058 99.2395C287.346 110.044 321.921 141.364 354.226 160.497C377.421 174.23 407.005 175.693 434.046 171.345C461.087 166.997 488.757 155.135 509.974 134.259M-296.96 564.574C-302.582 527.983 -288.764 486.984 -259.032 452.295C-229.292 417.607 -184.146 388.688 -134.757 375.623C-108.135 368.584 -80.8228 368.524 -55.995 362.254C-18.8178 352.866 4.68742 329.606 20.3895 307.873C36.0916 286.141 44.6703 261.438 55.9511 231.834C69.2729 196.879 75.6166 155.504 107.443 126.257C142.733 93.8331 201.376 84.6905 248.137 94.8524C294.899 105.014 329.391 136.709 360.288 156.977C381.746 171.06 409.407 173.375 434.886 170.333C460.358 167.284 487.129 157.173 508.394 137.561M-296.719 554.061C-301.659 517.778 -287.43 477.322 -257.619 443.227C-227.807 409.131 -182.921 380.856 -134.057 368.293C-106.881 361.306 -79.1494 361.632 -53.7016 355.819C-16.8189 347.393 7.44164 325.725 24.4286 305.095C41.4156 284.465 51.7816 260.412 63.8483 231.215C78.3463 196.14 83.6773 154.583 114.842 124.651C149.233 91.6232 207.974 80.9704 255.201 90.4899C302.436 100.01 336.878 132.023 366.328 153.481C386.076 167.872 411.794 171.083 435.702 169.346C459.604 167.602 485.475 159.241 506.791 140.888M-296.488 543.554C-300.753 507.573 -286.104 467.66 -256.223 434.164C-226.341 400.667 -181.717 373.042 -133.368 360.969C-105.632 354.04 -77.4939 354.721 -51.416 349.383C-14.8437 341.894 10.1802 321.844 28.4599 302.317C46.7377 282.796 58.9086 259.388 71.7455 230.595C87.4354 195.401 91.7459 153.662 122.243 123.04C155.736 89.4071 214.576 77.2378 262.275 86.1215C309.976 94.999 344.405 127.288 372.382 149.986C390.458 164.648 414.195 168.797 436.528 168.352C458.862 167.908 483.841 161.298 505.197 144.209M-296.247 533.041C-299.838 497.367 -284.761 457.992 -254.807 425.089C-224.856 392.192 -180.488 365.223 -132.656 353.627C-104.365 346.769 -75.8112 347.773 -49.109 342.929C-12.8396 336.353 12.9499 317.938 32.5126 299.52C52.0752 281.102 66.0786 258.352 79.6641 229.958C96.5694 194.645 99.8419 152.729 129.672 121.417C162.279 87.1862 221.204 73.4998 269.378 81.7352C317.55 89.9768 352.007 122.487 378.461 146.466C394.897 161.363 416.613 166.48 437.384 167.341C458.155 168.202 482.226 163.343 503.633 147.511M-296.014 522.528C-298.93 487.156 -283.433 448.323 -253.41 416.019C-223.387 383.716 -179.273 357.422 -131.973 346.297C-103.117 339.51 -74.158 340.817 -46.8391 336.492C-10.8708 330.797 15.6806 314.056 36.5282 296.741C57.3758 279.426 73.2194 257.334 87.5457 229.338C105.68 193.913 107.91 151.808 137.058 119.805C168.78 84.9763 227.791 69.7666 276.436 77.3661C325.082 84.9656 359.62 117.648 384.494 142.964C399.327 158.059 418.994 164.181 438.195 166.347C457.395 168.513 480.567 165.404 502.023 150.832M-295.773 512.015C-298.008 476.951 -282.097 438.655 -251.996 406.951C-221.903 375.246 -178.045 349.634 -131.264 338.961C-101.846 332.251 -72.4718 333.831 -44.534 330.045C-8.8612 325.211 18.4386 310.163 40.5789 293.951C62.7172 277.745 80.403 256.305 95.4623 228.707C114.847 193.177 116.012 150.883 144.485 118.189C175.329 82.7619 234.416 66.035 283.535 72.9923C332.654 79.9497 367.35 112.764 390.576 139.457C403.86 154.728 421.424 161.878 439.054 165.349C456.683 168.82 478.958 167.456 500.465 154.141M-295.54 501.502C-297.099 466.739 -280.761 428.987 -250.597 397.875C-220.432 366.764 -176.834 341.846 -130.57 331.624C-100.594 325.004 -70.7955 326.826 -42.2465 323.602C-6.86153 319.607 21.1869 306.276 44.6121 291.166C68.0353 276.063 87.5907 255.289 103.361 228.081C124.013 192.448 124.102 149.969 151.888 116.571C181.861 80.5531 241.019 62.3023 290.611 68.6176C340.204 74.9329 375.15 107.832 396.627 135.949C408.402 151.365 423.815 159.572 439.874 164.349C455.933 169.125 477.316 169.512 498.865 157.455M-295.307 490.989C-296.193 456.533 -279.433 419.318 -249.191 388.806C-218.949 358.295 -175.61 334.07 -129.876 324.288C-99.3425 317.758 -69.1117 319.797 -39.9571 317.154C-4.8524 313.971 23.939 302.376 48.6472 288.375C73.3553 274.375 94.796 254.267 111.262 227.449C133.2 191.725 132.196 149.043 159.292 114.954C188.394 78.3381 247.623 58.5636 297.687 64.243C347.753 69.9162 383.052 102.853 402.683 132.448C413.001 147.999 426.218 157.28 440.708 163.356C455.197 169.437 475.68 171.575 497.279 160.776M-295.066 480.476C-295.276 446.322 -278.098 409.65 -247.785 379.737C-217.471 349.819 -174.398 326.307 -129.177 316.958C-98.0809 310.53 -67.4162 312.755 -37.6637 310.718C-2.82759 308.336 26.6932 298.495 52.6863 285.597C78.6793 272.699 102.009 253.271 119.16 226.83C142.399 191.016 140.302 148.129 166.701 113.343C194.94 76.1362 254.231 54.8375 304.761 59.8745C355.298 64.9118 391.062 97.8532 408.733 128.946C417.645 144.614 428.614 154.982 441.535 162.362C454.455 169.742 474.038 173.631 495.686 164.097M-294.833 469.963C-294.36 436.111 -276.762 399.981 -246.386 370.662C-216.002 341.343 -173.186 318.544 -128.483 309.622C-96.8271 303.302 -65.7094 305.676 -35.3821 304.27C-0.791382 302.663 29.4278 294.601 56.7116 282.812C83.9955 271.024 109.217 252.268 127.049 226.21C151.609 190.319 148.392 147.216 174.094 111.731C201.472 73.9274 260.824 51.1108 311.827 55.5058C362.83 59.9007 399.184 92.8262 414.781 125.444C422.328 141.232 431.003 152.683 442.361 161.369C453.718 170.055 472.394 175.694 494.092 167.418M-294.592 459.451C-293.446 425.905 -275.426 390.313 -244.972 361.593C-214.518 332.873 -171.955 310.794 -127.782 302.286C-95.5674 296.081 -63.9831 298.585 -33.0868 297.828C1.27017 296.985 32.1858 290.708 60.7526 280.028C89.3213 269.342 116.452 251.279 134.956 225.585C160.857 189.63 156.516 146.297 181.504 110.12C208.025 71.7257 267.434 47.3785 318.91 51.1313C370.387 54.8842 407.461 87.786 420.84 121.936C427.075 137.845 433.41 150.379 443.197 160.369C452.976 170.36 470.769 177.744 492.508 170.732M-294.359 448.938C-292.537 415.694 -274.1 380.651 -243.574 352.524C-213.049 324.397 -170.749 303.049 -127.09 294.955C-94.3133 288.878 -62.251 291.475 -30.7993 291.386C3.34529 291.289 34.9341 286.82 64.7858 277.243C94.6472 267.66 123.686 250.289 142.855 224.96C170.103 188.948 164.629 145.384 188.915 108.503C214.59 69.5119 274.044 43.6462 325.994 46.757C377.944 49.8677 415.866 82.738 426.907 118.429C431.866 134.473 435.824 148.074 444.033 159.37C452.251 170.66 469.135 179.801 490.924 174.047M-294.12 438.431C-291.617 405.495 -272.758 370.989 -242.161 343.455C-211.565 315.928 -169.529 295.311 -126.381 287.62C-93.0437 281.676 -60.486 284.335 -28.4942 284.938C5.45551 285.582 37.6921 282.927 68.8365 274.453C99.9809 265.979 130.943 249.307 150.772 224.328C179.387 188.273 172.762 144.459 196.334 106.886C221.17 67.2986 280.662 39.9142 333.085 42.3828C385.508 44.8515 424.411 77.7014 432.973 114.922C436.698 131.121 438.228 145.776 444.876 158.371C451.524 170.966 467.509 181.858 489.348 177.362M-293.887 427.918C-290.708 395.283 -271.431 361.32 -240.763 334.386C-210.096 307.451 -168.328 287.585 -125.698 280.289C-91.8012 274.486 -58.725 277.183 -26.2165 278.502C7.55977 279.868 40.4307 279.045 72.8678 271.674C105.297 264.303 138.184 248.349 158.669 223.709C188.662 187.623 180.884 143.546 203.735 105.274C227.726 65.0907 287.264 36.1816 340.159 38.0144C393.054 39.8471 433.055 72.7 439.02 111.426C441.544 127.801 440.623 143.484 445.701 157.384C450.778 171.284 465.865 183.92 487.753 180.689M-293.654 417.405C-289.802 385.078 -270.103 351.652 -239.358 325.317C-208.62 298.982 -167.12 279.86 -124.996 272.953C-90.5451 267.302 -56.9348 270.012 -23.927 272.053C9.70108 274.136 43.1828 275.146 76.9029 268.884C110.625 262.615 145.435 247.386 166.562 223.077C197.944 186.979 189.062 142.63 211.139 103.657C234.349 62.8916 293.866 32.4491 347.235 33.6397C400.603 34.8304 441.809 67.7277 445.079 107.919C446.431 124.502 443.03 141.179 446.537 156.385C450.043 171.59 464.238 185.977 486.169 184.004M-293.413 406.892C-288.885 374.866 -268.759 341.984 -237.95 316.242C-207.133 290.5 -165.913 272.14 -124.295 265.617C-89.2927 260.131 -55.1215 262.818 -21.6317 265.612C11.858 268.405 45.9311 271.258 80.9439 266.099C115.949 260.94 152.69 246.435 174.469 222.451C207.253 186.349 197.15 141.697 218.55 102.04C240.879 60.664 300.476 28.7167 354.31 29.265C408.152 29.8136 450.652 62.8026 451.13 104.411C451.322 121.24 445.421 138.874 447.365 155.385C449.303 171.889 462.596 188.033 484.577 187.318M565.276 245.059C557.647 218.728 518.737 206.494 481.342 212.093C443.945 217.698 408.939 237.449 380.383 259.914C351.827 282.378 328.061 307.965 300.654 331.226C275.495 352.572 229.039 382.875 194.901 369.68C177.74 363.047 169.947 346.101 176.672 330.042C181.864 317.652 194.211 307.686 199.934 295.472C206.363 281.752 208.013 267.334 204.36 254.466C188.44 198.255 61.9392 197.312 73.0121 129.383C81.3591 78.2009 173.958 37.9423 229.131 20.38C308.001 -4.72516 387.225 -6.17957 460.555 7.15515C492.115 12.8929 529.353 19.4997 549.32 38.6605C549.758 39.0661 550.176 39.4836 550.587 39.9007C560.622 50.1144 565.888 63.2927 565.942 77.2147C565.998 92.7826 565.076 107.127 566.503 122.714C568.35 142.852 570.196 162.996 572.051 183.134L565.27 245.053L565.276 245.059Z" stroke="#497CF2" stroke-opacity="0.33" stroke-miterlimit="10"/>
</svg>
