<svg width="375" height="761" viewBox="0 0 375 761" fill="none" xmlns="http://www.w3.org/2000/svg">
<path opacity="0.6" d="M-157.776 759.931C-176.101 732.168 -191.001 702.522 -191.654 670.851C-192.059 651.715 -186.658 631.656 -174.75 613.427C-166.981 601.534 -156.425 590.415 -142.909 580.845C-102.022 551.882 -38.8861 539.356 -5.73172 506.646C6.03378 495.039 12.8747 482.301 17.5318 468.967C21.4913 457.681 23.8418 446.015 26.4505 434.566C30.0974 418.481 35.2652 401.435 45.7934 386.604C51.5935 378.432 59.0363 370.917 68.7893 364.568C87.7656 352.128 111.625 346.306 136.592 341.806C172.514 335.305 210.882 331.413 239.953 315.312C243.06 313.586 246.059 311.725 248.926 309.701C280.579 287.357 281.501 255.889 294.317 228.666C306.883 201.975 333.553 177.475 368.577 159.451C378.713 154.254 389.541 149.59 400.905 145.581C421.383 138.372 443.414 133.331 465.564 130.536C498.475 126.374 531.585 127.15 560.25 133.402M-163.448 756.38C-181.369 728.72 -195.654 699.134 -195.921 667.622C-196.102 648.607 -190.602 628.716 -178.739 610.61C-171.002 598.797 -160.554 587.744 -147.209 578.192C-106.823 549.236 -44.8164 536.185 -11.1934 504.271C0.884307 492.807 8.36958 480.395 13.5869 467.17C18.0517 455.965 20.8068 444.27 23.6709 432.736C27.6651 416.551 32.8606 399.336 43.002 384.321C48.5899 376.041 55.7385 368.427 65.0282 361.885C83.2054 349.082 105.886 342.564 129.891 337.325C164.439 329.73 201.93 324.437 231.389 308.099C234.534 306.355 237.566 304.489 240.484 302.479C272.601 280.297 275.439 250.357 289.359 224.878C302.995 199.915 330.054 177.402 365.586 160.534C375.873 155.65 386.894 151.233 398.418 147.374C419.235 140.428 441.603 135.343 463.975 132.211C497.277 127.523 530.534 127.092 558.878 131.756M-169.122 752.835C-186.645 725.271 -200.302 695.753 -200.182 664.4C-200.138 645.506 -194.539 625.781 -182.73 607.799C-175.026 596.067 -164.677 585.079 -151.52 575.546C-111.628 546.603 -50.7329 533.02 -16.6629 501.896C-4.27299 490.575 3.84879 478.488 9.64015 465.378C14.6024 454.255 17.768 442.537 20.8895 430.912C25.2308 414.627 30.4542 397.244 40.2105 382.038C45.5844 373.656 52.4209 365.924 61.2652 359.209C78.6176 346.023 100.136 338.827 123.191 332.844C156.355 324.156 192.978 317.46 222.832 300.892C226.006 299.131 229.079 297.259 232.04 295.264C264.614 273.244 269.376 244.825 284.391 221.095C299.098 197.856 326.567 177.368 362.579 161.623C373.03 157.053 384.22 152.886 395.913 149.172C417.076 142.491 439.767 137.361 462.371 133.886C496.065 128.665 529.46 127.033 557.492 130.103M-174.793 749.284C-191.913 721.823 -204.947 692.365 -204.448 661.17C-204.181 642.398 -198.474 622.841 -186.72 604.983C-179.048 593.331 -168.797 582.408 -155.822 572.9C-116.423 543.963 -56.6358 529.863 -22.1266 499.527C-9.41658 488.35 -0.695444 476.58 5.69342 463.587C11.1315 452.537 14.7389 440.798 18.1098 429.082C22.7984 412.697 28.0496 395.145 37.4191 379.755C42.5807 371.265 49.1112 363.421 57.5041 356.526C74.0337 342.952 94.4102 335.117 116.492 328.357C148.292 318.619 184.027 310.478 214.278 293.673C217.481 291.894 220.595 290.018 223.607 288.037C256.641 266.172 263.328 239.269 279.443 217.301C295.233 195.772 323.101 177.315 359.598 162.701C370.213 158.45 381.583 154.523 393.436 150.959C414.937 144.541 437.958 139.367 460.794 135.549C494.878 129.803 528.423 126.957 556.132 128.445M-180.467 745.739C-197.181 718.375 -209.602 688.984 -208.717 657.947C-208.227 639.303 -202.42 619.906 -190.711 602.172C-183.071 590.6 -172.926 579.737 -160.133 570.253C-121.226 541.324 -62.5229 526.706 -27.6039 497.152C-14.566 486.119 -5.23002 474.667 1.73098 461.795C7.66655 450.826 11.6844 439.065 15.3126 427.257C20.3425 410.765 25.6256 393.058 34.6119 377.472C39.5674 368.88 45.7799 360.911 53.7176 353.849C69.4184 339.88 88.643 331.387 109.768 323.875C140.199 313.05 175.051 303.501 205.697 286.465C208.929 284.669 212.083 282.794 215.141 280.815C248.64 259.111 257.267 233.706 274.454 213.511C291.33 193.681 319.6 177.274 356.576 163.782C367.354 159.852 378.895 156.17 390.925 152.751C412.765 146.597 436.116 141.378 459.173 137.223C493.65 130.944 527.333 126.899 554.729 126.798M-186.131 742.188C-202.448 714.927 -214.238 685.59 -212.968 654.719C-212.254 636.196 -206.347 616.966 -194.692 599.355C-187.085 587.864 -177.039 577.066 -164.425 567.601C-126.014 538.685 -68.3788 523.55 -33.0578 494.777C-19.692 483.888 -9.73518 472.76 -2.19826 459.998C4.23477 449.111 8.665 437.32 12.5584 425.422C17.9355 408.83 23.2465 390.954 31.8459 375.184C36.5892 366.483 42.4898 358.397 49.982 351.16C64.8637 336.791 82.9345 327.646 103.092 319.388C132.162 307.477 166.116 296.519 197.165 279.253C200.434 277.439 203.621 275.559 206.731 273.595C240.686 252.052 251.275 228.127 269.527 209.723C287.518 191.58 316.162 177.235 353.61 164.866C364.56 161.25 376.271 157.813 388.461 154.544C410.648 148.654 434.321 143.391 457.61 138.892C492.485 132.089 526.308 126.835 553.384 125.14M-191.802 738.637C-207.714 711.472 -218.883 682.202 -217.234 651.49C-216.297 633.088 -210.283 614.025 -198.681 596.538C-191.107 585.128 -181.16 574.395 -168.736 564.954C-130.817 536.045 -74.2444 520.4 -38.5273 492.402C-24.8278 481.663 -14.254 470.847 -6.1528 458.206C0.779581 447.394 5.61837 435.587 9.76915 423.598C15.4934 406.906 20.8322 388.861 29.0466 372.901C33.5758 364.098 39.1663 355.887 46.2111 348.483C60.2659 333.713 77.1928 323.91 96.3835 314.907C124.085 301.909 157.156 289.542 188.594 272.04C191.892 270.208 195.12 268.323 198.273 266.373C232.695 244.986 245.258 222.547 264.546 205.934C283.67 189.466 312.668 177.194 350.596 165.949C361.71 162.653 373.591 159.435 385.95 156.336C408.47 150.678 432.479 145.402 456 140.56C491.267 133.225 525.228 126.77 551.991 123.487M-197.476 735.092C-212.984 708.03 -223.539 678.821 -221.505 648.273C-220.345 629.999 -214.23 611.097 -202.674 593.734C-195.14 582.404 -185.292 571.737 -173.04 562.314C-135.616 533.418 -80.0844 517.27 -44.0007 490.039C-29.9654 479.445 -18.7786 468.953 -10.1015 456.421C-2.67163 445.69 2.57957 433.854 6.98578 421.78C13.0573 404.988 18.4238 386.774 26.2514 370.631C30.5684 361.719 35.8469 353.39 42.4462 345.813C55.6742 330.641 71.4569 320.181 89.6809 310.432C116.015 296.341 148.202 282.572 180.035 264.839C183.364 262.983 186.631 261.1 189.835 259.164C224.714 237.938 239.297 216.968 259.59 202.164C279.873 187.366 309.215 177.179 347.608 167.051C358.893 164.075 370.944 161.103 383.467 158.141C406.333 152.748 430.673 147.427 454.415 142.248C490.073 134.387 524.183 126.719 550.623 121.853M-203.147 731.541C-218.25 704.576 -228.184 675.433 -225.771 645.044C-224.388 626.891 -218.165 608.156 -206.671 590.917C-199.169 579.667 -189.421 569.065 -177.356 559.661C-140.425 530.772 -85.9206 514.127 -49.4761 487.657C-35.0914 477.214 -23.3035 467.033 -14.062 454.623C-6.1269 443.973 -0.473024 432.115 4.19242 419.944C10.6052 403.044 16.0055 384.669 23.4462 368.341C27.5491 359.328 32.5116 350.867 38.6695 343.13C51.0665 327.544 65.7093 316.438 82.9664 305.944C107.934 290.76 139.236 275.589 171.463 257.626C174.822 255.752 178.13 253.864 181.379 251.936C216.715 230.872 233.341 211.372 254.61 198.368C276.086 185.235 305.729 177.139 344.588 168.127C356.036 165.471 368.26 162.737 380.95 159.927C404.157 154.791 428.825 149.432 452.799 143.91C488.849 135.516 523.097 126.648 549.226 120.187M-208.819 727.99C-223.526 701.127 -232.829 672.045 -230.03 641.815C-228.422 623.783 -222.101 605.216 -210.652 588.1C-203.183 576.931 -193.534 566.395 -181.651 557.015C-145.214 528.139 -91.7293 510.998 -54.9319 485.289C-40.2056 474.996 -27.8086 465.127 -18.0009 452.832C-9.56647 442.257 -3.50217 430.376 1.41871 418.12C8.17871 401.12 13.605 382.583 20.6626 366.059C24.5533 356.937 29.2057 348.352 34.9163 340.447C46.4805 324.454 59.9851 312.697 76.2734 301.463C99.8759 285.179 130.291 268.613 162.916 250.413C166.304 248.522 169.652 246.629 172.944 244.715C208.746 223.812 227.434 205.795 249.66 194.58C272.355 183.125 302.279 177.112 341.605 169.21C353.225 166.875 365.621 164.38 378.479 161.72C402.032 156.848 427.022 151.445 451.22 145.579C487.668 136.66 522.056 126.584 547.864 118.535M-214.493 724.445C-228.794 697.679 -237.477 668.664 -234.298 638.592C-232.469 620.688 -226.048 602.287 -214.643 585.289C-207.207 574.2 -197.663 563.723 -185.961 554.368C-150.017 525.499 -97.5399 507.875 -60.4093 482.913C-45.3276 472.778 -32.3373 463.22 -21.9556 451.04C-13.0158 440.547 -6.54879 428.643 -1.36085 416.29C5.74636 399.19 11.2004 380.484 17.8711 363.776C21.5478 354.552 25.8763 345.836 31.1532 337.77C41.8787 321.363 54.2434 308.961 69.5727 296.982C91.8101 279.599 121.331 261.636 154.358 243.206C157.783 241.298 161.165 239.4 164.508 237.5C200.769 216.753 221.553 200.239 244.7 190.798C268.634 181.034 298.812 177.091 338.613 170.299C350.401 168.291 362.964 166.028 375.99 163.519C399.882 158.911 425.202 153.463 449.629 147.26C486.469 137.809 520.998 126.526 546.492 116.889M-220.164 720.894C-234.062 694.23 -242.13 665.276 -238.565 635.363C-236.511 617.58 -229.983 599.347 -218.64 582.472C-211.236 571.464 -201.791 561.052 -190.27 551.716C-154.82 522.86 -103.343 504.753 -65.8788 480.538C-50.4418 470.561 -36.8483 461.307 -25.9082 449.242C-16.4632 438.83 -9.59164 426.897 -4.14827 414.46C3.30616 397.259 8.78812 378.385 15.0738 361.487C18.5383 352.154 22.5489 343.314 27.3862 335.081C37.2651 318.259 48.5073 305.206 62.8679 292.488C83.7403 274.006 112.375 254.647 145.791 235.98C149.245 234.054 152.676 232.152 156.054 230.266C192.772 209.68 215.664 194.682 239.73 186.996C264.92 178.949 295.342 177.051 335.603 171.369C347.563 169.681 360.295 167.664 373.483 165.298C397.721 160.954 423.364 155.462 448.023 148.916C485.253 138.939 519.929 126.449 545.102 115.223M-225.83 717.349C-239.33 690.782 -246.768 661.889 -242.826 632.14C-240.548 614.479 -233.921 596.413 -222.623 579.662C-215.254 568.74 -205.906 558.387 -194.574 549.075C-159.617 520.227 -109.13 501.656 -71.3425 478.169C-55.5422 468.35 -41.3554 459.407 -29.8491 447.457C-19.8969 437.12 -12.6167 425.171 -6.92196 412.636C0.881571 395.33 6.38941 376.292 12.2882 359.21C15.5386 349.776 19.2273 340.798 23.6213 332.411C32.6536 315.174 42.7656 301.471 56.1652 288.014C75.6666 268.425 103.42 247.677 137.231 228.78C140.715 226.836 144.187 224.929 147.618 223.051C184.8 202.626 209.793 189.17 234.77 183.214C261.207 176.909 291.888 177.036 332.611 172.459C344.732 171.097 357.639 169.312 370.993 167.097C395.571 163.017 421.543 157.48 446.434 150.591C484.057 140.082 518.871 126.391 543.73 113.577M-231.502 713.798C-244.597 687.334 -251.413 658.501 -247.084 628.911C-244.585 611.377 -237.856 593.472 -226.605 576.845C-219.268 566.004 -210.027 555.716 -198.867 546.423C-164.403 517.581 -114.899 498.553 -76.8042 475.794C-60.6426 466.139 -45.8683 457.5 -33.794 445.659C-23.3365 435.404 -15.6518 423.426 -9.70156 410.806C-1.55863 393.399 3.98488 374.193 9.49677 356.928C12.535 347.385 15.8979 338.282 19.8602 329.728C28.0382 312.077 37.0276 297.722 49.4644 283.533C67.593 262.844 94.4679 240.701 128.674 221.573C132.186 219.611 135.699 217.699 139.174 215.836C176.813 195.573 203.907 183.683 229.81 179.431C257.497 174.888 288.425 177.028 329.619 173.548C341.909 172.513 354.988 170.967 368.504 168.896C393.428 165.08 419.731 159.499 444.845 152.266C482.859 141.231 517.82 126.334 542.36 111.925M-237.173 710.247C-249.863 683.879 -256.066 655.113 -251.351 625.682C-248.627 608.27 -241.792 590.531 -230.602 574.028C-223.305 563.267 -214.156 553.045 -203.183 543.77C-169.222 514.941 -120.678 495.457 -82.2796 473.412C-65.7508 463.928 -50.3853 455.581 -37.7545 443.861C-26.7917 433.687 -18.7025 421.68 -12.4968 408.976C-4.00667 391.468 1.56282 372.1 6.69944 354.638C9.53146 344.994 12.5627 335.759 16.0913 327.045C23.407 308.979 31.2741 293.973 42.7578 279.045C59.5154 257.251 85.5018 233.718 120.112 214.354C123.656 212.368 127.206 210.464 130.733 208.609C168.84 188.501 198.012 178.195 224.846 175.636C253.767 172.878 284.957 177.007 326.615 174.624C339.076 173.909 352.327 172.602 366.011 170.682C391.28 167.136 417.907 161.504 443.251 153.934C481.664 142.368 516.758 126.263 540.983 110.272M-242.847 706.702C-255.141 680.437 -260.714 651.732 -255.621 622.465C-252.674 605.174 -245.739 587.603 -234.595 571.224C-227.331 560.543 -218.288 550.386 -207.489 541.136C-174.021 512.314 -126.451 492.392 -87.747 471.056C-70.851 461.742 -54.8962 453.694 -41.6973 442.082C-30.2292 431.99 -21.7372 419.96 -15.2724 407.158C-6.43312 389.544 -0.837724 370.014 3.912 352.368C6.53185 342.616 9.2295 333.255 12.3343 324.374C18.7878 305.893 25.5402 290.238 36.0629 274.57C51.4398 251.676 76.5553 226.748 111.561 207.154C115.141 205.15 118.725 203.241 122.295 201.4C160.859 181.453 192.099 172.744 219.893 171.86C250.028 170.9 281.5 177.005 323.628 175.72C336.258 175.332 349.676 174.282 363.528 172.488C389.132 169.243 416.092 163.529 441.66 155.616C480.464 143.523 515.705 126.212 539.609 108.632M-248.519 703.151C-260.407 676.983 -265.359 648.344 -259.88 619.237C-256.71 602.073 -249.666 584.663 -238.576 568.407C-231.344 557.807 -222.399 547.709 -211.79 538.484C-178.816 509.675 -132.212 489.315 -93.2069 468.675C-75.9455 459.538 -59.3995 451.781 -45.6421 440.285C-33.6688 430.274 -24.7723 418.215 -18.0442 405.329C-8.8577 387.614 -3.23443 367.915 1.1303 350.08C3.53607 340.225 6.16215 330.736 8.581 321.692C13.6285 302.788 19.8022 286.489 29.3719 270.083C43.37 246.083 67.6126 219.766 103.013 199.941C106.623 197.92 110.247 196.006 113.87 194.173C152.891 174.388 186.18 167.287 214.944 168.066C246.275 168.914 278.046 176.99 320.648 176.797C333.445 176.742 347.039 175.918 361.05 174.274C387.001 171.294 414.283 165.535 440.083 157.279C479.279 144.654 514.658 126.142 538.25 106.968M-254.19 699.6C-265.675 673.534 -270.005 644.957 -264.147 616.007C-260.753 598.965 -253.61 581.722 -242.573 565.59C-235.374 555.07 -226.528 545.038 -216.098 535.831C-183.617 507.029 -137.97 486.251 -98.6842 466.299C-81.0438 457.346 -63.9124 449.875 -49.6026 438.486C-37.124 428.557 -27.8249 416.475 -20.8375 403.492C-11.3116 385.677 -5.65276 365.81 -1.67493 347.79C0.518669 337.827 2.55891 328.21 4.80617 319.002C9.52549 299.697 14.0427 282.734 22.6574 265.595C35.267 240.495 58.6465 212.783 94.4361 192.721C98.075 190.682 101.74 188.763 105.407 186.945C144.892 167.321 180.213 161.828 209.957 164.27C242.464 166.939 274.545 176.974 317.62 177.873C330.579 178.144 344.345 177.559 358.526 176.059C384.815 173.342 412.428 167.54 438.457 158.946C478.043 145.796 513.572 126.07 536.841 105.314M-259.856 696.055C-270.935 670.086 -274.65 641.569 -268.407 612.785C-264.79 595.864 -257.547 578.788 -246.556 562.779C-239.39 552.34 -230.651 542.373 -220.403 533.191C-188.416 504.402 -143.733 483.205 -104.148 463.93C-86.1362 455.16 -68.4194 447.974 -53.5434 436.702C-40.5536 426.86 -30.8558 414.743 -23.613 401.674C-13.74 383.759 -8.05326 363.724 -4.46233 345.52C-2.4828 335.455 -0.782108 325.706 1.04718 316.338C4.88673 296.624 8.29715 279.011 15.9606 261.127C27.1817 234.926 49.6981 205.819 85.8827 185.527C89.5508 183.47 93.2572 181.546 96.9745 179.743C136.919 160.274 174.261 156.401 205.009 160.5C238.684 164.991 271.09 176.991 314.64 178.975C327.768 179.573 341.708 179.22 356.051 177.865C382.686 175.412 410.629 169.565 436.882 160.628C476.869 146.946 512.527 126.019 535.483 103.675M-265.528 692.504C-276.211 666.638 -279.295 638.181 -272.674 609.556C-268.834 592.762 -261.483 575.847 -250.543 559.956C-243.409 549.597 -234.769 539.696 -224.701 530.532C-193.207 501.75 -149.476 480.147 -109.608 461.549C-91.2188 452.969 -72.9246 446.068 -57.4864 434.898C-43.9913 425.138 -33.8909 412.998 -26.3907 399.838C-16.1686 381.817 -10.4578 361.625 -7.24996 343.225C-5.4826 333.051 -4.11544 323.177 -2.71005 313.643C0.249734 293.519 2.5552 275.25 9.26556 256.627C19.106 229.326 40.7436 198.824 77.331 178.302C81.0282 176.227 84.7757 174.299 88.5361 172.509C128.938 153.202 168.287 150.941 200.047 156.699C234.874 163.01 267.614 176.97 311.646 180.046C324.94 180.976 339.047 180.856 353.567 179.645C380.541 177.456 408.814 171.565 435.299 162.284C475.676 148.077 511.482 125.943 534.119 102.004M-271.199 688.953C-281.477 663.183 -283.941 634.794 -276.933 606.327C-272.869 589.655 -265.418 572.906 -254.532 557.139C-247.431 546.861 -238.89 537.025 -229.01 527.879C-198.011 499.111 -155.233 477.108 -115.083 459.167C-96.319 450.783 -77.4434 444.155 -61.4391 433.1C-47.4309 423.422 -36.9259 411.252 -29.1763 398.002C-18.6069 379.88 -12.8683 359.52 -10.0473 340.936C-8.49405 330.66 -7.46832 320.66 -6.47901 310.96C-4.39899 290.427 -3.25507 271.505 2.55887 252.14C10.9403 223.736 31.7853 191.841 68.7695 171.082C72.5038 168.99 76.2844 167.057 80.0977 165.275C120.964 146.13 162.305 145.482 195.093 152.898C231.055 161.034 264.145 176.955 308.651 181.116C322.108 182.373 336.396 182.485 351.076 181.425C378.396 179.5 406.99 173.57 433.698 163.946C474.468 149.207 510.412 125.872 532.735 100.344M-276.873 685.408C-286.746 659.741 -288.596 631.412 -281.201 603.104C-276.913 586.553 -269.363 569.972 -258.524 554.329C-251.462 544.13 -243.021 534.36 -233.312 525.233C-202.806 496.471 -160.988 474.088 -120.545 456.792C-101.407 448.61 -81.923 442.269 -65.384 431.302C-50.8527 421.725 -39.9629 409.513 -31.948 396.172C-21.0314 377.95 -15.265 357.421 -12.8291 338.647C-11.488 328.263 -10.7958 318.138 -10.2382 308.271C-9.03984 287.335 -8.99302 267.757 -4.14 247.652C2.85888 218.155 22.8348 184.858 60.214 163.869C63.9793 161.753 67.7991 159.821 71.6555 158.054C112.981 139.063 156.311 140.034 190.127 149.109C227.226 159.065 260.662 176.958 305.653 182.199C319.277 183.788 333.734 184.127 348.581 183.218C376.238 181.563 405.164 175.582 432.104 165.615C473.263 150.35 509.357 125.802 531.359 98.6856M-282.544 681.857C-292.02 656.286 -293.242 628.024 -285.468 599.875C-280.956 583.445 -273.299 567.031 -262.513 551.512C-255.484 541.394 -247.142 531.689 -237.622 522.587C-207.609 493.832 -166.753 471.074 -126.016 454.423C-106.499 446.45 -86.4457 440.368 -69.3405 429.517C-54.304 420.021 -43.0095 407.78 -34.7373 394.348C-23.4814 376.025 -17.6793 355.328 -15.6302 336.37C-14.5032 325.884 -14.1524 315.633 -14.0109 305.6C-13.702 284.26 -14.7445 264.027 -10.8505 243.177C-5.22637 212.586 13.8746 177.882 51.6409 156.662C55.4354 154.528 59.2962 152.591 63.1958 150.838C104.979 132.009 150.292 134.592 185.151 145.326C223.371 157.101 257.143 177.029 302.645 183.288C316.422 185.228 331.067 185.781 346.076 185.016C374.08 183.625 403.328 177.6 430.5 167.289C472.051 151.492 508.283 125.743 529.972 97.0389M-288.218 678.312C-297.29 652.844 -297.889 624.643 -289.736 596.652C-285.002 580.35 -277.244 564.097 -266.512 548.701C-259.517 538.67 -251.27 529.018 -241.933 519.94C-212.414 491.198 -172.519 468.065 -131.494 452.048C-111.605 444.283 -90.9665 438.461 -73.2932 427.719C-57.7592 418.304 -46.0542 406.041 -37.5248 392.518C-25.9197 374.088 -20.0936 353.235 -18.4295 334.087C-17.5146 323.493 -17.5071 313.122 -17.7798 302.917C-18.3623 281.18 -20.4922 260.284 -17.5572 238.69C-13.3078 207.005 4.90845 170.899 43.0775 149.449C46.9012 147.297 50.8011 145.362 54.7536 143.617C97.0014 124.949 144.285 129.138 180.185 141.537C219.529 155.125 253.667 177.008 299.639 184.37C313.58 186.631 328.397 187.423 343.573 186.808C371.916 185.681 401.493 179.611 428.895 168.964C470.845 152.641 507.217 125.685 528.584 95.3921M-293.882 674.761C-302.55 649.396 -302.534 621.255 -293.989 593.429C-289.039 577.248 -281.174 561.163 -270.487 545.891C-263.525 535.94 -255.385 526.353 -246.227 517.294C-217.201 488.559 -178.274 465.07 -136.949 449.679C-116.684 442.129 -95.4736 436.561 -77.234 425.934C-61.1947 416.601 -49.0853 404.309 -40.2985 390.694C-28.3462 372.165 -22.4922 351.143 -21.2131 331.805C-20.5045 321.108 -20.8638 310.618 -21.535 300.241C-23.0421 278.112 -26.2339 256.548 -24.2501 234.209C-21.3815 201.424 -4.03608 163.923 34.5279 142.242C38.3886 140.073 42.3217 138.133 46.3192 136.396C89.0242 117.89 138.239 123.732 175.235 137.749C215.645 153.204 250.207 176.987 296.657 185.454C310.766 188.041 325.756 189.072 341.101 188.602C369.791 187.738 399.699 181.624 427.324 170.633C469.666 153.779 506.176 125.621 527.232 93.7342M-299.553 671.21C-312.62 631.279 -303.43 584.324 -274.476 543.074C-245.522 501.823 -197.133 466.73 -142.411 447.304C-121.77 439.975 -99.9787 434.655 -81.1711 424.136C-42.1351 402.31 -25.5395 363.405 -23.9967 329.523C-22.454 295.64 -32.4448 263.606 -30.9509 229.728C-29.457 195.85 -12.9885 156.946 25.9724 135.029C71.3293 109.51 128.71 116.754 170.275 133.967C211.841 151.179 246.73 176.971 293.665 186.543C334.655 194.903 382.993 189.695 425.727 172.308C468.462 154.921 505.111 125.557 525.852 92.0877M-299.32 660.697C-311.704 621.068 -302.102 574.656 -273.078 534.005C-244.053 493.347 -196.001 458.738 -141.727 439.974C-120.558 432.652 -98.1579 427.85 -78.9011 417.7C-39.8599 397.124 -22.8088 359.523 -19.9811 326.744C-17.1456 293.964 -25.5383 262.63 -23.0693 229.108C-20.5669 195.167 -4.92583 156.019 33.3562 133.424C77.8316 107.294 135.294 113.027 177.333 129.597C219.373 146.168 254.33 172.616 299.696 183.047C338.918 192.064 385.372 187.402 426.536 171.32C467.7 155.239 503.458 127.625 524.241 95.414M-299.081 650.19C-310.79 610.863 -300.762 565 -271.673 524.936C-242.577 484.878 -194.852 450.765 -141.026 432.638C-119.323 425.329 -96.345 421.045 -76.6039 411.252C-37.5909 391.906 -20.0567 355.623 -15.9382 323.953C-11.8179 292.276 -18.5852 261.63 -15.1605 228.476C-11.6457 194.459 3.10489 155.015 40.7771 131.8C84.2901 104.988 141.914 109.289 184.427 125.217C226.939 141.146 261.93 168.236 305.772 179.534C343.226 189.182 387.788 185.092 427.389 170.316C466.983 155.539 501.843 129.67 522.675 98.7231M-298.848 639.677C-309.883 600.657 -299.434 555.332 -270.267 515.867C-241.1 476.402 -193.685 442.811 -140.327 425.308C-118.089 418.012 -94.5495 414.245 -74.3104 404.816C-35.3747 386.68 -17.3025 351.743 -11.8913 321.175C-6.48795 290.607 -11.6183 260.637 -7.24761 227.858C-2.87697 195.078 11.1673 154.063 48.1923 130.196C90.7863 102.741 148.528 105.569 191.514 120.855C234.5 136.142 269.498 163.854 311.835 176.039C347.503 186.3 390.199 182.8 428.229 169.329C466.252 155.857 500.213 131.739 521.095 102.051M-298.615 629.164C-308.975 590.445 -298.106 545.663 -268.869 506.797C-239.632 467.932 -192.522 434.87 -139.641 417.971C-116.862 410.689 -92.7895 407.432 -72.0289 398.368C-33.2116 381.42 -14.5601 347.849 -7.86407 318.384C-1.16802 288.919 -4.65344 259.625 0.645598 227.225C6.23774 193.04 19.2082 153.103 55.5897 128.572C97.2628 100.48 155.126 101.824 198.584 116.474C242.041 131.125 277.031 159.433 317.888 172.525C351.768 183.379 392.597 180.495 429.052 168.323C465.514 156.151 498.565 133.789 519.497 105.359M-298.374 618.651C-308.052 580.24 -296.763 535.995 -267.454 497.722C-238.145 459.45 -191.331 426.943 -138.932 410.635C-115.605 403.374 -91.0294 400.619 -69.7257 391.926C-31.0663 376.141 -11.7962 343.962 -3.81523 315.6C4.16571 287.238 2.35238 258.608 8.55847 226.607C15.2019 192.322 27.2687 152.157 63.0127 126.968C103.763 98.2446 161.748 98.1043 205.671 112.113C249.595 126.121 284.556 155.013 323.95 169.03C356.036 180.446 395 178.203 429.892 167.336C464.783 156.469 496.944 135.853 517.919 108.68M-298.141 608.138C-307.144 570.029 -295.435 526.326 -266.056 488.653C-236.677 450.98 -190.153 419.034 -138.24 403.305C-114.375 396.07 -89.3006 393.804 -67.446 385.483C-28.976 370.835 -9.06162 340.068 0.210129 312.815C9.47405 285.562 9.35044 257.592 16.442 225.98C24.1601 191.597 35.3058 151.21 70.4004 125.35C110.236 95.9959 168.335 94.3712 212.732 107.737C257.128 121.104 292.03 150.552 329.985 165.521C360.277 177.475 397.383 175.898 430.704 166.336C464.025 156.774 495.286 137.908 516.312 111.994M-297.9 597.626C-306.229 559.823 -294.099 516.658 -264.643 479.584C-235.194 442.511 -188.95 411.145 -137.539 395.969C-113.122 388.767 -87.5739 386.971 -65.1488 379.035C-26.8918 365.497 -6.30357 336.174 4.25306 310.024C14.8097 283.874 16.3835 256.563 24.3508 225.349C33.1553 190.855 43.3682 150.257 77.8135 123.726C116.73 93.7544 174.949 90.6265 219.817 103.357C264.687 116.081 299.516 146.054 336.052 162.014C364.553 174.467 399.797 173.594 431.548 165.337C463.299 157.08 493.66 139.965 514.736 115.309M-297.667 587.112C-305.321 549.612 -292.763 506.99 -263.243 470.509C-233.723 434.028 -187.755 403.255 -136.845 388.632C-111.885 381.463 -85.8766 380.13 -62.8613 372.593C-24.8489 360.139 -3.5553 332.287 8.28621 307.24C20.1277 282.192 21.2704 255.437 32.2499 224.723C44.5746 190.234 51.4269 149.317 85.2228 122.115C123.228 91.5255 181.557 86.9004 226.9 98.9824C272.244 111.064 306.995 141.525 342.111 158.506C368.832 171.421 402.194 171.295 432.376 164.337C462.558 157.379 492.02 142.015 513.144 118.623M-297.426 576.6C-304.399 539.407 -291.428 497.321 -261.83 461.44C-232.231 425.559 -186.544 395.391 -136.136 381.296C-110.625 374.166 -84.1677 373.277 -60.5562 366.145C-22.8024 354.743 -0.797238 328.394 12.337 304.449C25.4634 280.505 28.2424 254.35 40.1666 224.092C53.7737 189.549 59.5012 148.378 92.6437 120.492C129.738 89.2846 188.177 83.1622 233.994 94.6021C279.809 106.048 314.47 136.958 348.187 154.993C373.13 168.338 404.618 168.985 433.23 163.332C461.841 157.68 490.411 144.066 511.578 121.932M-297.193 566.087C-303.49 529.195 -290.1 487.653 -260.432 452.371C-230.762 417.083 -185.343 387.533 -135.452 373.966C-109.384 366.875 -82.4961 366.416 -58.2785 359.709C-20.805 349.327 1.94324 324.506 16.3605 301.671C30.7777 278.835 37.5768 253.482 48.056 223.472C60.2172 188.638 67.5482 147.45 100.035 118.887C136.225 87.0679 194.77 79.4355 241.058 90.2395C287.346 101.044 321.921 132.364 354.226 151.497C377.421 165.23 407.005 166.693 434.046 162.345C461.087 157.997 488.757 146.135 509.974 125.259M-296.96 555.574C-302.582 518.983 -288.764 477.984 -259.032 443.295C-229.292 408.607 -184.146 379.688 -134.757 366.623C-108.135 359.584 -80.8228 359.524 -55.995 353.254C-18.8178 343.866 4.68742 320.606 20.3895 298.873C36.0916 277.141 44.6703 252.438 55.9511 222.834C69.2729 187.879 75.6166 146.504 107.443 117.257C142.733 84.8331 201.376 75.6905 248.137 85.8524C294.899 96.0144 329.391 127.709 360.288 147.977C381.746 162.06 409.407 164.375 434.886 161.333C460.358 158.284 487.129 148.173 508.394 128.561M-296.719 545.061C-301.659 508.778 -287.43 468.322 -257.619 434.227C-227.807 400.131 -182.921 371.856 -134.057 359.293C-106.881 352.306 -79.1494 352.632 -53.7016 346.819C-16.8189 338.393 7.44164 316.725 24.4286 296.095C41.4156 275.465 51.7816 251.412 63.8483 222.215C78.3463 187.14 83.6773 145.583 114.842 115.651C149.233 82.6232 207.974 71.9704 255.201 81.4899C302.436 91.0098 336.878 123.023 366.328 144.481C386.076 158.872 411.794 162.083 435.702 160.346C459.604 158.602 485.475 150.241 506.791 131.888M-296.488 534.554C-300.753 498.573 -286.104 458.66 -256.223 425.164C-226.341 391.667 -181.717 364.042 -133.368 351.969C-105.632 345.04 -77.4939 345.721 -51.416 340.383C-14.8437 332.894 10.1802 312.844 28.4599 293.317C46.7377 273.796 58.9086 250.388 71.7455 221.595C87.4354 186.401 91.7459 144.662 122.243 114.04C155.736 80.4071 214.576 68.2378 262.275 77.1215C309.976 85.999 344.405 118.288 372.382 140.986C390.458 155.648 414.195 159.797 436.528 159.352C458.862 158.908 483.841 152.298 505.197 135.209M-296.247 524.041C-299.838 488.367 -284.761 448.992 -254.807 416.089C-224.856 383.192 -180.488 356.223 -132.656 344.627C-104.365 337.769 -75.8112 338.773 -49.109 333.929C-12.8396 327.353 12.9499 308.938 32.5126 290.52C52.0752 272.102 66.0786 249.352 79.6641 220.958C96.5694 185.645 99.8419 143.729 129.672 112.417C162.279 78.1862 221.204 64.4998 269.378 72.7352C317.55 80.9768 352.007 113.487 378.461 137.466C394.897 152.363 416.613 157.48 437.384 158.341C458.155 159.202 482.226 154.343 503.633 138.511M-296.014 513.528C-298.93 478.156 -283.433 439.323 -253.41 407.019C-223.387 374.716 -179.273 348.422 -131.973 337.297C-103.117 330.51 -74.158 331.817 -46.8391 327.492C-10.8708 321.797 15.6806 305.056 36.5282 287.741C57.3758 270.426 73.2194 248.334 87.5457 220.338C105.68 184.913 107.91 142.808 137.058 110.805C168.78 75.9763 227.791 60.7666 276.436 68.3661C325.082 75.9656 359.62 108.648 384.494 133.964C399.327 149.059 418.994 155.181 438.195 157.347C457.395 159.513 480.567 156.404 502.023 141.832M-295.773 503.015C-298.008 467.951 -282.097 429.655 -251.996 397.951C-221.903 366.246 -178.045 340.634 -131.264 329.961C-101.846 323.251 -72.4718 324.831 -44.534 321.045C-8.8612 316.211 18.4386 301.163 40.5789 284.951C62.7172 268.745 80.403 247.305 95.4623 219.707C114.847 184.177 116.012 141.883 144.485 109.189C175.329 73.7619 234.416 57.035 283.535 63.9923C332.654 70.9497 367.35 103.764 390.576 130.457C403.86 145.728 421.424 152.878 439.054 156.349C456.683 159.82 478.958 158.456 500.465 145.141M-295.54 492.502C-297.099 457.739 -280.761 419.987 -250.597 388.875C-220.432 357.764 -176.834 332.846 -130.57 322.624C-100.594 316.004 -70.7955 317.826 -42.2465 314.602C-6.86153 310.607 21.1869 297.276 44.6121 282.166C68.0353 267.063 87.5907 246.289 103.361 219.081C124.013 183.448 124.102 140.969 151.888 107.571C181.861 71.5531 241.019 53.3023 290.611 59.6176C340.204 65.9329 375.15 98.8316 396.627 126.949C408.402 142.365 423.815 150.572 439.874 155.349C455.933 160.125 477.316 160.512 498.865 148.455M-295.307 481.989C-296.193 447.533 -279.433 410.318 -249.191 379.806C-218.949 349.295 -175.61 325.07 -129.876 315.288C-99.3425 308.758 -69.1117 310.797 -39.9571 308.154C-4.8524 304.971 23.939 293.376 48.6472 279.375C73.3553 265.375 94.796 245.267 111.262 218.449C133.2 182.725 132.196 140.043 159.292 105.954C188.394 69.3381 247.623 49.5636 297.687 55.243C347.753 60.9162 383.052 93.853 402.683 123.448C413.001 138.999 426.218 148.28 440.708 154.356C455.197 160.437 475.68 162.575 497.279 151.776M-295.066 471.476C-295.276 437.322 -278.098 400.65 -247.785 370.737C-217.471 340.819 -174.398 317.307 -129.177 307.958C-98.0809 301.53 -67.4162 303.755 -37.6637 301.718C-2.82759 299.336 26.6932 289.495 52.6863 276.597C78.6793 263.699 102.009 244.271 119.16 217.83C142.399 182.016 140.302 139.129 166.701 104.343C194.94 67.1362 254.231 45.8375 304.761 50.8745C355.298 55.9118 391.062 88.8532 408.733 119.946C417.645 135.614 428.614 145.982 441.535 153.362C454.455 160.742 474.038 164.631 495.686 155.097M-294.833 460.963C-294.36 427.111 -276.762 390.981 -246.386 361.662C-216.002 332.343 -173.186 309.544 -128.483 300.622C-96.8271 294.302 -65.7094 296.676 -35.3821 295.27C-0.791382 293.663 29.4278 285.601 56.7116 273.812C83.9955 262.024 109.217 243.268 127.049 217.21C151.609 181.319 148.392 138.216 174.094 102.731C201.472 64.9274 260.824 42.1108 311.827 46.5058C362.83 50.9007 399.184 83.8262 414.781 116.444C422.328 132.232 431.003 143.683 442.361 152.369C453.718 161.055 472.394 166.694 494.092 158.418M-294.592 450.451C-293.446 416.905 -275.426 381.313 -244.972 352.593C-214.518 323.873 -171.955 301.794 -127.782 293.286C-95.5674 287.081 -63.9831 289.585 -33.0868 288.828C1.27017 287.985 32.1858 281.708 60.7526 271.028C89.3213 260.342 116.452 242.279 134.956 216.585C160.857 180.63 156.516 137.297 181.504 101.12C208.025 62.7257 267.434 38.3785 318.91 42.1313C370.387 45.8842 407.461 78.786 420.84 112.936C427.075 128.845 433.41 141.379 443.197 151.369C452.976 161.36 470.769 168.744 492.508 161.732M-294.359 439.938C-292.537 406.694 -274.1 371.651 -243.574 343.524C-213.049 315.397 -170.749 294.049 -127.09 285.955C-94.3133 279.878 -62.251 282.475 -30.7993 282.386C3.34529 282.289 34.9341 277.82 64.7858 268.243C94.6472 258.66 123.686 241.289 142.855 215.96C170.103 179.948 164.629 136.384 188.915 99.5027C214.59 60.5119 274.044 34.6462 325.994 37.757C377.944 40.8677 415.866 73.738 426.907 109.429C431.866 125.473 435.824 139.074 444.033 150.37C452.251 161.66 469.135 170.801 490.924 165.047M-294.12 429.431C-291.617 396.495 -272.758 361.989 -242.161 334.455C-211.565 306.928 -169.529 286.311 -126.381 278.62C-93.0437 272.676 -60.486 275.335 -28.4942 275.938C5.45551 276.582 37.6921 273.927 68.8365 265.453C99.9809 256.979 130.943 240.307 150.772 215.328C179.387 179.273 172.762 135.459 196.334 97.8857C221.17 58.2986 280.662 30.9142 333.085 33.3828C385.508 35.8515 424.411 68.7014 432.973 105.922C436.698 122.121 438.228 136.776 444.876 149.371C451.524 161.966 467.509 172.858 489.348 168.362M-293.887 418.918C-290.708 386.283 -271.431 352.32 -240.763 325.386C-210.096 298.451 -168.328 278.585 -125.698 271.289C-91.8012 265.486 -58.725 268.183 -26.2165 269.502C7.55977 270.868 40.4307 270.045 72.8678 262.674C105.297 255.303 138.184 239.349 158.669 214.709C188.662 178.623 180.884 134.546 203.735 96.2744C227.726 56.0907 287.264 27.1816 340.159 29.0144C393.054 30.8471 433.055 63.7 439.02 102.426C441.544 118.801 440.623 134.484 445.701 148.384C450.778 162.284 465.865 174.92 487.753 171.689M-293.654 408.405C-289.802 376.078 -270.103 342.652 -239.358 316.317C-208.62 289.982 -167.12 270.86 -124.996 263.953C-90.5451 258.302 -56.9348 261.012 -23.927 263.053C9.70108 265.136 43.1828 266.146 76.9029 259.884C110.625 253.615 145.435 238.386 166.562 214.077C197.944 177.979 189.062 133.63 211.139 94.6568C234.349 53.8916 293.866 23.4491 347.235 24.6397C400.603 25.8304 441.809 58.7277 445.079 98.9186C446.431 115.502 443.03 132.179 446.537 147.385C450.043 162.59 464.238 176.977 486.169 175.004M-293.413 397.892C-288.885 365.866 -268.759 332.984 -237.95 307.242C-207.133 281.5 -165.913 263.14 -124.295 256.617C-89.2927 251.131 -55.1215 253.818 -21.6317 256.612C11.858 259.405 45.9311 262.258 80.9439 257.099C115.949 251.94 152.69 237.435 174.469 213.451C207.253 177.349 197.15 132.697 218.55 93.0396C240.879 51.664 300.476 19.7167 354.31 20.265C408.152 20.8136 450.652 53.8026 451.13 95.4106C451.322 112.24 445.421 129.874 447.365 146.385C449.303 162.889 462.596 179.033 484.577 178.318M565.276 236.059C557.647 209.728 518.737 197.494 481.342 203.093C443.945 208.698 408.939 228.449 380.383 250.914C351.827 273.378 328.061 298.965 300.654 322.226C275.495 343.572 229.039 373.875 194.901 360.68C177.74 354.047 169.947 337.101 176.672 321.042C181.864 308.652 194.211 298.686 199.934 286.472C206.363 272.752 208.013 258.334 204.36 245.466C188.44 189.255 61.9392 188.312 73.0121 120.383C81.3591 69.2009 173.958 28.9423 229.131 11.38C308.001 -13.7252 387.225 -15.1796 460.555 -1.84485C492.115 3.8929 529.353 10.4997 549.32 29.6605C549.758 30.0661 550.176 30.4836 550.587 30.9007C560.622 41.1144 565.888 54.2927 565.942 68.2147C565.998 83.7826 565.076 98.1271 566.503 113.714C568.35 133.852 570.196 153.996 572.051 174.134L565.27 236.053L565.276 236.059Z" stroke="#497CF2" stroke-opacity="0.33" stroke-miterlimit="10"/>
</svg>
