<svg xmlns="http://www.w3.org/2000/svg" width="393" height="723" fill="none"><path stroke="#497CF2" stroke-miterlimit="10" stroke-opacity=".23" d="M-5.521 722.078c-18.978-23.512-34.56-49.074-35.89-77.868-.812-17.398 4.18-36.202 15.742-53.973 7.543-11.594 17.898-22.753 31.257-32.791C46 527.07 109.086 509.505 141.658 476.469c11.559-11.723 18.152-23.997 22.542-36.6 3.733-10.67 5.843-21.529 8.217-32.216 3.318-15.011 8.141-31.047 18.39-45.588 5.646-8.011 12.954-15.584 22.606-22.319 18.777-13.185 42.594-20.815 67.551-27.348 35.907-9.424 74.324-16.709 103.152-34.213a111.22 111.22 0 0 0 8.885-5.988c31.286-23.444 31.542-52.207 43.823-78.261 12.041-25.546 38.282-50.469 73.042-70.305 10.061-5.724 20.827-11.028 32.145-15.789 20.395-8.564 42.393-15.305 64.56-20.01 32.936-7 66.176-9.519 95.072-6.614m-712.93 638.176c-18.572-23.457-33.535-49.023-34.473-77.711-.586-17.309 4.51-35.97 16.028-53.624 7.512-11.517 17.761-22.607 30.948-32.611 39.91-30.321 101.851-48.255 134.911-80.611 11.875-11.623 19.122-23.663 24.076-36.222 4.242-10.645 6.758-21.57 9.386-32.359 3.664-15.136 8.511-31.328 18.368-45.999 5.431-8.089 12.442-15.723 21.625-22.589 17.967-13.438 40.586-21.588 64.563-28.7 34.504-10.287 72.012-18.764 101.224-36.522a124.593 124.593 0 0 0 9.007-6.006c31.756-23.342 33.966-50.9 47.392-75.473 13.152-24.075 39.825-47.226 75.121-66.058 10.217-5.453 21.183-10.552 32.664-15.191 20.74-8.357 43.077-15.17 65.459-20.204 33.317-7.517 66.68-11.15 95.22-9.663M-17.056 716.717c-18.17-23.408-32.501-48.975-33.048-77.555-.358-17.22 4.84-35.739 16.307-53.275 7.482-11.441 17.633-22.462 30.632-32.431 39.413-30.26 100.228-48.57 133.753-80.25 12.192-11.523 20.084-23.329 25.617-35.838 4.742-10.62 7.67-21.605 10.555-32.502 4.01-15.262 8.881-31.611 18.347-46.417 5.214-8.162 11.91-15.873 20.642-22.853 17.131-13.706 38.571-22.36 61.577-30.058 33.094-11.149 69.699-20.818 99.303-38.824a141.134 141.134 0 0 0 9.12-6.026c32.218-23.239 36.392-49.598 50.954-72.684 14.263-22.609 41.39-43.954 77.191-61.81 10.39-5.183 21.53-10.069 33.184-14.593 21.093-8.151 43.753-15.036 66.36-20.405 33.699-8.04 67.175-12.781 95.368-12.716M-22.823 714.034c-17.762-23.354-31.468-48.926-31.63-77.399-.132-17.131 5.178-35.508 16.594-52.926 7.45-11.365 17.503-22.316 30.32-32.245 38.92-30.206 98.612-48.88 132.594-79.884 12.516-11.423 21.017-22.998 27.151-35.46 5.222-10.598 8.592-21.647 11.726-32.651 4.356-15.387 9.252-31.892 18.326-46.828 4.999-8.24 11.385-16.023 19.66-23.124 16.297-13.979 36.577-23.103 58.591-31.415 31.702-11.972 67.387-22.873 97.384-41.133a165.677 165.677 0 0 0 9.241-6.044c32.682-23.143 38.82-48.308 54.523-69.896 15.386-21.156 42.957-40.689 79.269-57.562 10.56-4.908 21.886-9.594 33.704-13.997 21.439-7.943 44.429-14.901 67.261-20.605 34.079-8.557 67.679-14.419 95.515-15.763M-28.591 711.357c-17.353-23.306-30.443-48.877-30.215-77.243.095-17.036 5.51-35.277 16.882-52.577 7.42-11.288 17.368-22.176 30.004-32.064 38.425-30.152 97.019-49.192 131.429-79.524 12.848-11.324 21.972-22.669 28.683-35.076 5.723-10.573 9.504-21.681 12.894-32.794 4.696-15.517 9.621-32.167 18.307-47.245 4.789-8.312 10.854-16.178 18.668-23.387 15.458-14.259 34.568-23.871 55.605-32.774 30.305-12.829 65.074-24.926 95.463-43.435a186.914 186.914 0 0 0 9.357-6.069c33.152-23.041 41.268-47.031 58.084-67.107 16.513-19.714 44.53-37.419 81.347-53.315 10.731-4.632 22.233-9.112 34.232-13.399 21.784-7.736 45.104-14.767 68.152-20.8 34.462-9.08 68.174-16.05 95.662-18.81M-34.35 708.673c-16.954-23.25-29.408-48.833-28.79-77.087.322-16.947 5.84-35.045 17.161-52.228 7.389-11.212 17.24-22.029 29.695-31.884 37.929-30.091 95.44-49.498 130.27-79.158 13.18-11.224 22.934-22.334 30.225-34.698 6.224-10.547 10.419-21.722 14.072-32.943 5.043-15.643 9.992-32.449 18.285-47.656 4.575-8.391 10.324-16.334 17.688-23.658 14.627-14.543 32.565-24.637 52.616-34.126 28.917-13.686 62.754-26.98 93.542-45.738 3.242-1.971 6.4-3.995 9.478-6.088 33.615-22.938 43.73-45.771 61.654-64.319 17.667-18.285 46.103-34.147 83.417-49.066 10.911-4.362 22.589-8.636 34.752-12.802 22.138-7.529 45.78-14.632 69.053-21 34.85-9.598 68.677-17.68 95.81-21.864M-40.117 705.99c-16.544-23.202-28.374-48.784-27.373-76.93.55-16.859 6.179-34.815 17.448-51.88 7.358-11.135 17.11-21.884 29.377-31.697 37.434-30.037 93.868-49.806 129.112-78.798 13.518-11.12 23.898-22.006 31.758-34.314 6.726-10.527 11.331-21.757 15.241-33.086 5.388-15.768 10.362-32.731 18.265-48.074 4.357-8.462 9.792-16.489 16.704-23.922 13.789-14.828 30.565-25.41 49.63-35.483 27.52-14.544 60.442-29.035 91.615-48.046a272 272 0 0 0 9.592-6.107c34.086-22.842 46.214-44.513 65.215-61.53 18.839-16.869 47.676-30.877 85.495-44.819 11.082-4.087 22.935-8.176 35.271-12.205 22.477-7.349 46.456-14.497 69.954-21.2 35.233-10.121 69.173-19.312 95.958-24.912m-739.03 630.326c-16.137-23.148-27.35-48.735-25.958-76.768.775-16.765 6.509-34.584 17.735-51.531 7.319-11.058 16.973-21.738 29.067-31.517 36.939-29.977 92.317-50.103 127.945-78.432 13.859-11.021 24.861-21.671 33.301-33.936 7.227-10.502 12.244-21.798 16.409-33.229 5.735-15.893 10.733-33.012 18.244-48.485 4.142-8.541 9.261-16.645 15.722-24.192 12.951-15.114 28.565-26.183 46.645-36.842 26.125-15.406 58.129-31.088 89.694-50.348a370.959 370.959 0 0 0 9.713-6.126c34.547-22.74 48.734-43.269 68.782-58.736 20.038-15.461 49.263-27.602 87.573-40.572 11.26-3.811 23.29-7.694 35.793-11.613 22.83-7.143 47.14-14.362 70.853-21.395 35.613-10.638 69.678-20.948 96.105-27.959M-51.652 700.63c-15.728-23.099-26.316-48.686-24.541-76.612 1.002-16.676 6.847-34.353 18.015-51.182 7.287-10.981 16.844-21.592 28.75-31.336 36.444-29.923 90.781-50.401 126.787-78.071 14.212-10.918 25.824-21.343 34.834-33.552 7.735-10.477 13.156-21.834 17.579-33.379 6.075-16.023 11.103-33.293 18.222-48.896 3.926-8.613 8.725-16.805 14.74-24.456 12.108-15.41 26.564-26.956 43.657-38.2 24.731-16.269 55.817-33.143 87.773-52.651a484.622 484.622 0 0 0 9.829-6.151c35.01-22.637 51.278-42.026 72.343-55.947 21.27-14.06 50.843-24.325 89.644-36.324 11.431-3.535 23.638-7.217 36.313-11.015 23.177-6.941 47.815-14.228 71.754-21.596 35.995-11.16 70.172-22.579 96.253-31.012M-57.418 697.947c-15.33-23.045-25.283-48.637-23.117-76.456 1.23-16.587 7.178-34.122 18.302-50.833 7.257-10.906 16.715-21.446 28.44-31.151 35.947-29.862 89.25-50.693 125.628-77.705 14.558-10.813 26.787-21.014 36.367-33.174 8.238-10.457 14.071-21.874 18.748-33.521 6.422-16.149 11.472-33.569 18.203-49.313 3.71-8.691 8.195-16.967 13.757-24.727 11.264-15.7 24.565-27.729 40.67-39.552 23.337-17.137 53.505-35.197 85.854-54.959a771.964 771.964 0 0 0 9.942-6.169c35.48-22.536 53.849-40.774 75.912-53.159 22.53-12.65 52.429-21.045 91.722-32.077a7551.262 7551.262 0 0 0 36.841-10.418c23.53-6.734 48.491-14.093 72.647-21.796 36.383-11.678 70.675-24.21 96.4-34.06M-63.187 695.27c-14.92-22.995-24.25-48.587-21.7-76.299 1.455-16.492 7.507-33.885 18.59-50.484 7.225-10.829 16.58-21.306 28.122-30.97 35.453-29.808 87.736-50.981 124.463-77.345 14.918-10.704 27.749-20.68 37.908-32.79 8.747-10.432 14.983-21.909 19.926-33.671 6.768-16.274 11.843-33.85 18.181-49.724 3.493-8.764 7.651-17.127 12.774-24.991 10.414-15.996 22.557-28.501 37.684-40.91 21.944-18.006 51.184-37.251 83.933-57.262 3.396-2.073 6.749-4.132 10.063-6.189 35.944-22.438 56.448-39.511 79.474-50.369 23.809-11.229 54.006-17.763 93.8-27.83a2020.016 2020.016 0 0 0 37.36-9.82c23.876-6.527 49.167-13.958 73.547-21.991 36.765-12.201 71.172-25.847 96.548-37.112m-756.44 625.074c-14.512-22.941-23.224-48.538-20.283-76.142 1.683-16.404 7.845-33.654 18.869-50.136 7.195-10.752 16.45-21.16 27.813-30.79C-7.597 505.77 43.672 484.255 80.75 458.54c15.278-10.596 28.721-20.352 39.442-32.412 9.256-10.408 15.898-21.95 21.095-33.814 7.114-16.399 12.213-34.132 18.161-50.142 3.278-8.841 7.114-17.288 11.793-25.26 9.555-16.291 20.559-29.28 34.698-42.268 20.551-18.876 48.872-39.305 82.005-59.571 3.425-2.092 6.828-4.159 10.177-6.207 36.406-22.336 59.058-38.232 83.043-47.581 25.105-9.787 55.592-14.481 95.87-23.581a1185.243 1185.243 0 0 0 37.88-9.223c24.23-6.321 49.843-13.824 74.448-22.192 37.146-12.719 71.675-27.478 96.696-40.16M-74.714 689.908c-14.111-22.892-22.19-48.495-18.867-75.986 1.91-16.315 8.176-33.423 19.156-49.787 7.162-10.67 16.322-21.014 27.495-30.603 34.463-29.694 84.729-51.535 122.146-76.618 15.646-10.487 29.691-20.018 40.983-32.028 9.766-10.389 16.817-21.986 22.265-33.963 7.462-16.53 12.584-34.414 18.14-50.554 3.061-8.913 6.571-17.453 10.802-25.524 8.696-16.586 18.552-30.058 31.711-43.626 19.152-19.749 46.559-41.359 80.084-61.873 3.454-2.111 6.898-4.187 10.301-6.232 36.875-22.234 61.668-36.931 86.604-44.792 26.394-8.321 57.183-11.195 97.948-19.334a847.961 847.961 0 0 0 38.4-8.626c24.575-6.113 50.519-13.688 75.348-22.392 37.529-13.241 72.171-29.108 96.843-43.207M-80.481 687.225c-13.703-22.838-21.156-48.446-17.442-75.83 2.136-16.22 8.507-33.191 19.443-49.438 7.132-10.594 16.185-20.868 27.186-30.424 33.969-29.639 83.238-51.801 120.98-76.251 16.011-10.373 30.652-19.684 42.516-31.65 10.275-10.363 17.732-22.027 23.434-34.106 7.801-16.655 12.955-34.695 18.118-50.965 2.846-8.991 6.027-17.614 9.821-25.794 7.83-16.88 16.545-30.836 28.723-44.978 17.751-20.618 44.247-43.413 78.163-64.176a792.139 792.139 0 0 1 10.414-6.25c37.338-22.132 64.271-35.606 90.174-42.004 27.685-6.839 58.764-7.902 100.025-15.087 12.31-2.141 25.402-4.824 38.92-8.028 24.929-5.906 51.203-13.555 76.25-22.592 37.909-13.76 72.673-30.74 96.991-46.261M-86.247 684.542c-13.295-22.789-20.131-48.396-16.026-75.674 2.363-16.131 8.845-32.96 19.722-49.089 7.093-10.516 16.057-20.722 26.87-30.242 33.464-29.579 81.76-52.063 119.821-75.892 16.384-10.253 31.625-19.355 44.05-31.266 10.784-10.338 18.645-22.067 24.602-34.248 8.147-16.781 13.324-34.971 18.107-51.383 2.636-9.064 5.481-17.774 8.837-26.059 6.956-17.174 14.531-31.614 25.737-46.335 16.351-21.492 41.926-45.468 76.244-66.485a514.752 514.752 0 0 1 10.535-6.27c37.81-22.035 66.863-34.268 93.735-39.215 28.961-5.331 60.346-4.609 102.096-10.839 12.488-1.865 25.758-4.348 39.448-7.43 25.28-5.694 51.878-13.42 77.148-22.788 38.299-14.282 73.171-32.376 97.139-49.308M-92.016 681.865c-12.895-22.735-19.097-48.348-14.61-75.512 2.59-16.043 9.175-32.729 20.01-48.74 7.06-10.44 15.918-20.576 26.558-30.057 32.97-29.524 80.28-52.312 118.662-75.525 16.756-10.133 32.594-19.022 45.592-30.888 11.292-10.314 19.558-22.103 25.772-34.398 8.495-16.911 13.695-35.252 18.085-51.794 2.422-9.142 4.929-17.934 7.856-26.329 6.083-17.468 12.525-32.392 22.751-47.693 14.942-22.36 39.614-47.522 74.323-68.787a404.307 404.307 0 0 1 10.649-6.289c38.271-21.933 69.434-32.913 97.304-36.427 30.218-3.812 61.928-1.315 104.174-6.591 12.665-1.584 26.107-3.849 39.967-6.833 25.623-5.452 52.554-13.286 78.042-22.988 38.68-14.8 73.673-34.008 97.285-52.355M-97.783 679.182c-12.485-22.686-18.064-48.299-13.185-75.356 2.816-15.948 9.513-32.499 20.296-48.392 7.031-10.363 15.792-20.435 26.242-29.876 32.474-29.464 78.805-52.557 117.505-75.165 17.126-10.008 33.564-18.688 47.124-30.504 11.802-10.288 20.472-22.143 26.949-34.541 8.841-17.036 14.065-35.534 18.065-52.211 2.205-9.214 4.638-18.116 6.873-26.593 4.663-17.717 10.511-33.17 19.764-49.052 13.536-23.233 37.302-49.576 72.402-71.089a333.97 333.97 0 0 1 10.772-6.314c38.734-21.831 71.986-31.545 100.866-33.638 31.456-2.28 63.508 1.983 106.252-2.344 12.84-1.298 26.463-3.373 40.487-6.236 25.976-5.245 53.23-13.15 78.943-23.188 39.062-15.322 74.168-35.639 97.434-55.409M-103.549 676.5c-12.079-22.632-17.031-48.25-11.769-75.199 3.043-15.86 9.844-32.268 20.576-48.043 7-10.287 15.663-20.29 25.932-29.696 31.98-29.41 77.342-52.791 116.338-74.799 17.51-9.877 34.542-18.354 48.659-30.125 12.31-10.264 21.384-22.179 28.119-34.691 9.18-17.161 14.436-35.815 18.044-52.622 1.989-9.292 3.832-18.254 5.891-26.863 4.325-18.051 8.497-33.948 16.776-50.404 12.119-24.1 34.99-51.63 70.475-73.398a281.617 281.617 0 0 1 10.886-6.332c39.204-21.729 74.529-30.176 104.426-30.849 32.676-.735 65.081 5.282 108.323 1.904 13.008-1.016 26.81-2.89 41.007-5.638 26.321-5.038 53.906-13.016 79.842-23.383 39.442-15.84 74.673-37.276 97.581-58.456M-109.31 673.82c-11.669-22.583-16.004-48.206-10.352-75.043 3.271-15.771 10.175-32.036 20.863-47.694 6.969-10.21 15.526-20.144 25.614-29.509 31.484-29.35 75.87-53.019 115.18-74.439 17.887-9.746 35.512-18.02 50.2-29.742 12.824-10.233 22.298-22.219 29.288-34.833 9.525-17.286 14.805-36.097 18.022-53.034 1.772-9.364 3.271-18.413 4.907-27.127 3.434-18.338 6.481-34.72 13.79-51.762 10.703-24.968 32.677-53.684 68.555-75.7a241.162 241.162 0 0 1 11.006-6.352c39.668-21.632 77.056-28.8 107.996-28.061 33.886.811 66.659 8.588 110.401 6.152 13.185-.735 27.166-2.414 41.529-5.047 26.674-4.83 54.589-12.881 80.742-23.583 39.833-16.363 75.169-38.907 97.728-61.504m-791.235 614.595c-11.27-22.528-14.971-48.157-8.936-74.886 3.496-15.677 10.513-31.806 21.152-47.352 6.938-10.134 15.397-19.998 25.305-29.329 30.99-29.295 74.412-53.241 114.021-74.073 18.27-9.61 36.48-17.68 51.734-29.363 13.333-10.208 23.21-22.255 30.456-34.977 9.874-17.417 15.175-36.372 18.003-53.451 1.557-9.442 2.718-18.573 3.926-27.397 2.542-18.625 4.466-35.497 10.804-53.12 9.293-25.835 30.356-55.738 66.633-78.003a215.716 215.716 0 0 1 11.12-6.37c40.13-21.53 79.566-27.423 111.557-25.272 35.081 2.357 68.231 11.887 112.479 10.399 13.36-.448 27.513-1.932 42.057-4.45 27.02-4.623 55.265-12.746 81.643-23.783 40.213-16.881 75.672-40.538 97.877-64.558m-795.598 613.302c-10.861-22.48-13.937-48.108-7.511-74.73 3.724-15.588 10.844-31.575 21.431-47.003 6.907-10.057 15.268-19.852 24.988-29.148 30.494-29.235 72.95-53.452 112.856-73.712 18.65-9.469 37.45-17.347 53.274-28.98 13.85-10.184 24.133-22.296 31.627-35.126 10.22-17.542 15.545-36.654 17.981-53.862 1.34-9.515 2.156-18.727 2.943-27.662 1.65-18.912 2.396-36.265 7.818-54.477 7.806-26.699 28.044-57.792 64.713-80.312 3.703-2.27 7.455-4.4 11.244-6.395 40.6-21.428 82.068-26.046 115.126-22.484 36.259 3.91 69.801 15.192 114.549 14.647 13.529-.166 27.869-1.456 42.577-3.852 27.373-4.416 55.939-12.606 82.534-23.978 40.596-17.403 76.167-42.169 98.024-67.605m-799.942 612.001c-10.454-22.425-12.912-48.058-6.094-74.573 3.95-15.499 11.173-31.344 21.718-46.654 6.868-9.981 15.13-19.706 24.679-28.968 30-29.181 71.484-53.651 111.698-73.352 19.03-9.321 38.446-16.998 54.808-28.602 14.378-10.143 25.045-22.331 32.804-35.269 10.566-17.667 15.916-36.935 17.961-54.279 1.125-9.593 1.604-18.887 1.954-27.932.757-19.194.387-37.038 4.829-55.829 6.396-27.561 25.732-59.847 62.793-82.614a178.039 178.039 0 0 1 11.357-6.414c41.064-21.331 84.563-24.669 118.688-19.695 37.438 5.457 71.37 18.503 116.627 18.894 13.704.121 28.218-.979 43.096-3.255 27.717-4.203 56.615-12.471 83.436-24.178 40.976-17.921 76.671-43.806 98.172-70.658m-804.293 610.695c-10.052-22.376-11.879-48.009-4.677-74.417 4.178-15.41 11.512-31.113 22.005-46.305 6.837-9.904 15.002-19.56 24.36-28.782 29.505-29.126 70.018-53.844 110.54-72.986 19.414-9.167 39.407-16.663 56.34-28.217 14.886-10.118 25.959-22.372 33.974-35.418 10.905-17.792 16.287-37.217 17.94-54.691.908-9.665 1.041-19.04.97-28.196-.144-19.474-1.62-37.81 1.844-57.187 4.992-28.423 23.421-61.907 60.865-84.922a164.528 164.528 0 0 1 11.471-6.433c41.526-21.229 87.05-23.29 122.257-16.906 38.601 7.005 72.912 21.872 118.705 23.141 13.865.426 28.572-.497 43.616-2.657 28.071-3.996 57.29-12.336 84.336-24.379 41.359-18.444 77.167-45.437 98.32-73.705m-808.635 609.383c-9.644-22.322-10.845-47.961-3.26-74.261 4.404-15.315 11.843-30.881 22.285-45.956 6.804-9.822 14.874-19.42 24.051-28.602 29.009-29.066 68.548-54.032 109.374-72.625 19.791-9.013 40.377-16.329 57.883-27.84 15.387-10.092 26.871-22.406 35.142-35.56 11.253-17.924 16.656-37.493 17.918-55.102.693-9.743.48-19.194-.011-28.466-1.047-19.75-3.628-38.583-1.143-58.546 3.59-29.285 21.101-63.96 58.945-87.225a154.476 154.476 0 0 1 11.592-6.451c41.996-21.127 89.531-21.918 125.818-14.118 39.767 8.548 74.489 25.16 120.775 27.39 14.036.701 28.921-.021 44.136-2.06 28.417-3.789 57.967-12.202 85.236-24.574 41.747-18.961 77.67-47.068 98.467-76.753m-812.966 608.065c-9.238-22.267-9.821-47.911-1.838-74.099 4.623-15.226 12.173-30.65 22.572-45.607 6.774-9.745 14.738-19.274 23.734-28.421 28.515-29.012 67.076-54.208 108.215-72.259 20.175-8.855 41.34-15.995 59.416-27.456 15.895-10.067 27.785-22.448 36.312-35.709 11.599-18.049 17.026-37.775 17.898-55.52.484-9.816-.1-19.34-.994-28.73-1.983-20.017-5.644-39.354-4.129-59.903 2.181-30.153 18.789-66.015 57.024-89.528a147.735 147.735 0 0 1 11.707-6.476c42.458-21.024 91.966-20.496 129.387-11.329 40.878 10.145 76.065 28.447 122.854 31.636 14.212.983 29.275.462 44.664-1.462 28.769-3.582 58.649-12.068 86.136-24.774 42.129-19.485 78.165-48.7 98.615-79.806m-817.34 606.76c-13.961-35.111-5.738-78.792 22.438-119.201 28.176-40.409 75.985-77.101 130.481-100.134 20.556-8.69 42.31-15.661 60.958-27.078 38.705-23.692 54.53-60.759 55.358-91.783.827-31.024-9.879-59.24-9.101-90.256.779-31.015 16.476-68.068 55.104-91.836 44.97-27.672 102.702-26.664 144.776-15.03 42.075 11.634 77.632 31.736 124.931 35.885 41.309 3.623 89.702-5.833 132.213-25.84 42.512-20.007 78.662-50.335 98.763-82.853m-815.911 598.524c-13.269-34.903-4.621-78.129 23.638-117.999 28.26-39.875 75.74-76.094 129.801-98.48 21.087-8.735 43.462-15.293 62.569-26.418 38.737-22.553 55.047-58.477 57.187-88.621 2.148-30.145-6.94-57.879-5.175-88.665 1.789-31.171 16.651-68.366 54.583-92.685 44.073-28.143 101.855-28.519 144.39-17.516 42.536 11.002 78.177 31.695 123.92 36.779 39.549 4.394 86.063-4.38 127.026-23.045 40.963-18.665 76.256-47.31 96.426-78.686M-149.645 635.85c-12.585-34.694-3.499-77.461 24.838-116.803 28.344-39.336 75.507-75.07 129.132-96.832 21.622-8.775 44.588-14.917 64.188-25.764 38.736-21.43 55.559-56.199 59.017-85.459 3.461-29.265-3.981-56.531-1.25-87.074 2.803-31.338 16.766-68.717 54.073-93.542 43.092-28.671 101.006-30.368 144.003-19.996 42.997 10.372 78.684 31.646 122.917 37.669 37.788 5.142 82.416-2.927 121.839-20.251 39.415-17.322 73.844-44.29 94.089-74.52m-812.836 572.97c-11.903-34.48-2.382-76.799 26.046-115.601 28.428-38.803 75.29-74.031 128.46-95.179 22.158-8.815 45.699-14.541 65.807-25.105 38.684-20.32 56.075-53.916 60.854-82.296 4.772-28.38-1.013-55.189 2.675-85.484 3.688-30.294 16.908-69.036 53.553-94.391 42.156-29.168 100.156-32.217 143.615-22.477 43.459 9.74 79.166 31.581 121.907 38.558 36.009 5.875 78.777-1.475 116.652-17.455 37.867-15.981 71.43-41.266 91.753-70.354m-811.312 560.182c-11.218-34.271-1.265-76.136 27.245-114.399 28.511-38.264 75.08-72.98 127.783-93.531 22.702-8.855 46.788-14.169 67.427-24.451 38.59-19.225 56.592-51.633 62.684-79.134 6.092-27.501 1.972-53.854 6.6-83.893 4.884-31.694 17.05-69.349 53.034-95.247 41.219-29.658 99.31-34.072 143.228-24.957 43.918 9.115 79.63 31.5 120.905 39.448 34.227 6.589 75.136-.017 111.456-14.661 36.329-14.645 69.017-38.241 89.417-66.187m-809.761 547.409c-10.528-34.057-.141-75.473 28.455-113.203 28.595-37.73 74.879-71.912 127.11-91.878 23.253-8.89 47.854-13.795 69.046-23.791 38.457-18.151 57.108-49.35 64.513-75.971 7.405-26.622 4.977-52.532 10.524-82.297 5.937-31.887 17.191-69.662 52.521-96.097 40.28-30.143 98.461-35.921 142.833-27.437 44.372 8.484 80.068 31.403 119.895 40.337 32.439 7.277 71.489 1.436 106.269-11.866 34.781-13.302 66.613-35.222 87.082-62.026m-808.237 534.627c-9.844-33.848.975-74.811 29.653-112.001 28.679-37.191 74.683-70.834 126.44-90.225 23.793-8.918 48.905-13.426 70.658-23.137 38.29-17.096 57.618-47.072 66.342-72.808 8.716-25.736 7.997-51.21 14.441-80.705 7.013-32.082 17.338-69.97 52.003-96.953 39.348-30.629 97.612-37.77 142.445-29.918 44.833 7.853 80.482 31.286 118.886 41.227 30.649 7.941 67.849 2.888 101.081-9.072 33.232-11.96 64.2-32.196 84.746-57.858m-806.677 521.847c-9.162-33.634 2.092-74.148 30.861-110.8 28.76-36.651 74.496-69.738 125.761-88.576 24.348-8.942 49.945-13.068 72.279-22.483 38.1-16.064 58.135-44.789 68.172-69.646 10.036-24.857 11.035-49.896 18.365-79.114 8.101-32.289 17.486-70.277 51.485-97.809 38.413-31.102 96.765-39.626 142.058-32.398 45.294 7.222 80.88 31.14 117.881 42.122 28.864 8.57 64.211 4.34 95.895-6.277 31.684-10.618 61.785-29.172 82.409-53.692m-805.156 509.071c-8.478-33.425 3.216-73.486 32.062-109.604 28.846-36.117 74.316-68.637 125.09-86.922 24.894-8.965 50.963-12.714 73.897-21.824 37.878-15.053 58.652-42.506 70.002-66.483 11.349-23.977 11.926-48.468 22.29-77.524 11.634-32.628 17.639-70.579 50.973-98.659 37.485-31.576 95.916-41.475 141.671-34.884 45.756 6.59 81.274 30.96 116.872 43.011 27.088 9.165 60.562 5.799 90.699-3.482 30.138-9.281 59.374-26.152 80.073-49.525M-149.55 568.634c-7.787-33.211 4.333-72.823 33.27-108.402 28.936-35.579 74.138-67.52 124.42-85.275 25.446-8.983 51.976-12.371 75.517-21.17 37.641-14.069 59.161-40.223 71.831-63.321 12.662-23.097 14.894-47.2 26.216-75.933 12.919-32.801 17.79-70.875 50.453-99.514 36.559-32.05 95.068-43.324 141.285-37.365 46.216 5.966 81.653 30.753 115.87 43.901 25.313 9.73 56.922 7.251 85.511-.688 28.59-7.939 56.969-23.127 77.737-45.358m-802.1 483.523c-7.103-33.002 5.45-72.16 34.469-107.2 29.021-35.045 73.968-66.397 123.741-83.621 26.007-9.001 52.977-12.04 77.135-20.511 37.382-13.112 59.68-37.945 73.661-60.158 13.981-22.212 20.264-45.976 30.141-74.342 11.462-32.927 17.942-71.172 49.933-100.364 35.637-32.52 94.221-45.18 140.898-39.845 46.676 5.334 82.036 30.505 114.859 44.79 23.567 10.254 53.283 8.703 80.325 2.107 27.041-6.597 54.554-20.102 75.4-41.192M-149.529 549.43c-6.419-32.794 6.573-71.498 35.67-106.004 29.104-34.506 73.79-65.256 123.07-81.973 26.565-9.009 53.969-11.725 78.748-19.857 37.106-12.177 60.197-35.662 75.49-56.995 15.294-21.333 23.377-44.678 34.067-72.752 12.624-33.15 18.109-71.469 49.422-101.22 34.722-32.983 93.372-47.028 140.51-42.325 47.138 4.703 82.423 30.222 113.857 45.679 21.831 10.742 49.637 10.156 75.138 4.901 25.495-5.26 52.142-17.082 73.063-37.025m-799.017 457.968c-5.729-32.579 7.688-70.829 36.877-104.802 29.189-33.973 73.628-64.111 122.392-80.32 27.12-9.014 54.954-11.42 80.366-19.197 36.83-11.271 60.713-33.379 77.319-53.832 16.607-20.454 26.497-43.381 37.984-71.161 13.802-33.373 18.267-71.76 48.902-102.07 33.807-33.446 92.523-48.877 140.114-44.805 47.6 4.072 82.841 29.886 112.848 46.569 20.123 11.189 45.997 11.608 69.95 7.696 23.947-3.918 49.729-14.057 70.727-32.858m-797.471 445.184c-5.044-32.371 8.805-70.167 38.077-103.6 29.272-33.434 73.461-62.954 121.72-78.666 27.684-9.017 55.933-11.139 81.986-18.544 36.539-10.387 61.222-31.096 79.149-50.67 17.926-19.568 29.64-42.084 41.909-69.57 14.995-33.598 18.433-72.051 48.384-102.925 32.891-33.91 91.675-50.732 139.727-47.286 48.053 3.441 83.287 29.508 111.843 47.464 18.449 11.599 42.356 13.067 64.757 10.485 22.401-2.581 47.325-11.038 68.391-28.69m-795.925 432.399c-4.362-32.156 9.93-69.504 39.286-102.404 29.355-32.894 73.301-61.792 121.05-77.019 28.243-9.006 56.916-10.874 83.607-17.889 36.254-9.527 61.74-28.819 80.978-47.508 19.239-18.689 32.806-40.783 45.834-67.979 16.212-33.825 18.605-72.337 47.871-103.776 31.991-34.368 90.827-52.581 139.342-49.771 48.513 2.815 83.778 29.08 110.833 48.353 16.81 11.973 38.71 14.519 59.57 13.279 20.86-1.239 44.911-8.013 66.054-24.524m-794.415 419.636c-3.678-31.947 11.047-68.842 40.486-101.202 29.439-32.361 73.145-60.618 120.37-75.365 28.811-8.996 57.897-10.627 85.218-17.23 35.97-8.694 62.257-26.535 82.808-44.344 20.551-17.81 35.979-39.483 49.759-66.389 17.443-34.047 18.785-72.63 47.352-104.631 31.09-34.828 89.98-54.437 138.954-52.252 48.974 2.184 84.326 28.599 109.824 49.243 15.205 12.309 35.07 15.971 54.382 16.074 19.312.102 42.498-4.988 63.718-20.358m-792.852 406.851c-2.988-31.733 12.162-68.179 41.692-100 29.522-31.822 72.986-59.433 119.701-73.717 29.376-8.981 58.885-10.403 86.838-16.576 35.692-7.88 62.766-24.253 84.637-41.183 21.87-16.924 39.16-38.183 53.684-64.798 18.696-34.263 18.965-72.916 46.84-105.481 30.196-35.287 89.131-56.286 138.567-54.733 49.435 1.554 84.948 28.073 108.821 50.133 13.654 12.62 31.431 17.423 49.195 18.868 17.764 1.445 40.086-1.968 61.384-16.196M-149.446 491.82c-2.304-31.524 13.287-67.516 42.894-98.804 29.606-31.288 72.824-58.242 119.029-72.064 29.938-8.953 59.878-10.197 88.456-15.916 35.421-7.089 63.283-21.97 86.467-38.02 23.182-16.045 42.363-36.879 57.609-63.208 19.964-34.481 19.151-73.197 46.321-106.336 29.31-35.74 88.282-58.135 138.18-57.213 49.897.922 85.663 27.494 107.811 51.022 12.144 12.899 27.784 18.876 44 21.663 16.216 2.787 37.68 1.056 59.047-12.03m-789.804 381.304c-1.621-31.31 14.404-66.854 44.101-97.603 29.697-30.749 72.67-57.045 118.352-70.416 30.5-8.925 60.878-10.013 90.076-15.262 35.158-6.321 63.801-19.692 88.296-34.857 24.496-15.165 45.582-35.576 61.535-61.617 21.252-34.69 19.338-73.485 45.801-107.187 28.424-36.2 87.435-59.99 137.791-59.693 50.359.29 86.479 26.863 106.808 51.917 10.684 13.164 24.143 20.334 38.813 24.458 14.668 4.129 35.266 4.081 56.71-7.863m-788.265 368.52c-.937-31.101 15.521-66.191 45.301-96.401 29.782-30.215 72.502-55.836 117.68-68.762 31.066-8.887 61.883-9.848 91.695-14.603 34.905-5.566 64.317-17.409 90.125-31.694 25.808-14.286 48.805-34.262 65.452-60.026 22.557-34.899 19.541-73.773 45.29-108.043 27.545-36.654 86.587-61.839 137.397-62.173 50.818-.334 87.406 26.197 105.798 52.807 9.276 13.408 20.504 21.786 33.625 27.252 13.121 5.466 32.854 7.101 54.374-3.696m-786.727 355.737c-.245-30.893 16.645-65.529 46.502-95.205 29.865-29.676 72.342-54.622 117.009-67.108 31.63-8.843 62.905-9.713 93.307-13.949 34.675-4.835 64.826-15.126 91.953-28.526 27.127-13.401 52.036-32.948 69.375-58.43 23.881-35.097 19.736-74.059 44.772-108.898 26.667-37.114 85.737-63.688 137.009-64.653 51.271-.965 88.451 25.494 104.796 53.695 7.908 13.65 16.857 23.24 28.438 30.048 11.581 6.807 30.441 10.126 52.038.47m-785.18 342.953c.437-30.678 17.761-64.866 47.709-94.003 29.947-29.137 72.187-53.403 116.33-65.46 32.194-8.793 63.94-9.589 94.926-13.29 34.457-4.115 65.345-12.848 93.783-25.363 28.439-12.521 55.278-31.624 73.3-56.839 25.225-35.286 19.947-74.348 44.251-109.748 25.796-37.569 84.891-65.543 136.624-67.14 51.733-1.596 89.634 24.772 103.786 54.586 6.595 13.889 13.217 24.691 23.25 32.841 10.025 8.151 28.037 13.146 49.702 4.638m-783.651 330.176c1.121-30.47 18.876-64.197 48.908-92.801s72.024-52.178 115.66-63.807c32.76-8.731 64.988-9.489 96.545-12.636 34.26-3.415 65.862-10.565 95.613-22.2 29.76-11.642 58.529-30.3 77.225-55.249 26.576-35.469 20.156-74.631 43.741-110.603 24.933-38.03 84.041-67.393 136.236-69.62 52.194-2.228 90.946 24.028 102.783 55.474 5.318 14.136 9.579 26.144 18.056 35.636 8.487 9.487 25.623 16.171 47.365 8.805m-782.116 317.404c1.812-30.255 20.001-63.535 50.118-91.605 30.115-28.064 71.857-50.946 114.989-62.159 33.326-8.665 66.052-9.414 98.166-11.982 34.08-2.722 66.371-8.282 97.442-19.039 31.071-10.756 61.785-28.965 81.15-53.657 27.946-35.643 20.367-74.92 43.221-111.454 24.079-38.492 83.192-69.241 135.848-72.1 52.656-2.86 92.39 23.283 101.774 56.364 4.082 14.398 5.93 27.602 12.868 38.431 6.939 10.829 23.21 19.195 45.029 12.971M-149.353 424.61c2.496-30.047 21.118-62.872 51.317-90.403 30.2-27.531 71.689-49.703 114.31-60.506 33.89-8.591 67.137-9.356 99.785-11.322 33.921-2.047 66.887-5.999 99.279-15.876 32.384-9.877 65.044-27.619 85.075-52.067 29.329-35.805 20.586-75.209 42.702-112.31 23.218-38.952 82.346-71.096 135.461-74.58 53.116-3.484 93.953 22.553 100.762 57.26 2.881 14.674 2.291 29.054 7.681 41.225 5.391 12.171 20.798 22.215 42.693 17.138m-779.054 291.839c3.178-29.832 22.233-62.21 52.524-89.202 30.282-26.991 71.519-48.46 113.64-58.858 34.45-8.506 68.232-9.311 101.397-10.668 33.788-1.379 67.406-3.722 101.109-12.713 33.704-8.998 68.309-26.267 88.992-50.476 30.722-35.951 20.866-75.496 42.19-113.16 22.423-39.406 81.497-72.945 135.073-77.06 53.577-4.116 95.625 21.844 99.76 58.148 1.71 14.979-1.348 30.507 2.494 44.02 3.842 13.513 18.392 25.24 40.356 21.305m-777.517 279.061c3.862-29.623 23.358-61.547 53.725-88.005 30.375-26.459 71.346-47.205 112.969-57.205 35.005-8.409 69.351-9.291 103.015-10.008 33.664-.718 67.915-1.439 102.938-9.551 35.016-8.112 71.574-24.91 92.918-48.886 32.129-36.091 21.041-75.793 41.671-114.014C379.437 37.858 438.56 2.94 492.59-1.805c54.038-4.747 97.386 21.171 98.75 59.038.552 15.316-4.995 31.96-2.693 46.814 2.296 14.85 15.978 28.265 38.019 25.472m82.204 44.75c-8.215-23.25-47.519-30.606-84.923-21.86-37.406 8.751-72.112 30.16-100.288 53.412-28.177 23.252-51.48 48.883-78.486 72.748-24.791 21.903-70.763 54.041-105.298 45.345-17.361-4.371-25.542-19.054-19.135-34.342 4.946-11.796 17.123-22.079 22.606-33.766 6.16-13.129 7.508-26.427 3.57-37.796-17.171-49.669-144.126-38.202-134.46-101.177 7.287-47.45 99.348-93.157 154.336-114.537 78.608-30.56 158.072-39.606 231.937-34.6 31.791 2.152 69.297 4.544 89.74 20.057.448.327.877.667 1.298 1.007 10.286 8.329 15.851 19.824 16.201 32.504.388 14.18-.233 27.34 1.531 41.404 2.282 18.17 4.562 36.345 6.852 54.515l-5.487 57.081.006.005Z" opacity=".28"/></svg>