<svg width="368" height="677" viewBox="0 0 368 677" fill="none" xmlns="http://www.w3.org/2000/svg">
<path d="M179.318 676.546C159.802 657.836 142.451 637.078 135.324 612.361C131.01 597.428 130.843 580.805 135.924 564.533C139.238 553.916 144.798 543.443 152.895 533.69C177.387 504.177 221.955 483.844 239.881 452.682C246.243 441.624 248.687 430.5 249.373 419.273C249.967 409.766 249.279 400.23 248.829 390.821C248.184 377.605 248.474 363.383 253.235 350.003C255.857 342.632 259.846 335.502 265.805 328.901C277.382 315.989 293.997 307.452 311.716 299.767C337.205 288.688 365.069 279.248 383.424 261.785C385.385 259.915 387.236 257.956 388.955 255.892C407.932 233.106 402.026 208.286 405.899 184.812C409.698 161.797 424.498 138.15 446.9 118.19C453.388 112.427 460.504 106.969 468.158 101.933C481.954 92.872 497.365 85.2514 513.336 79.3721C537.064 70.6283 561.976 65.7225 584.713 65.8502M174.335 674.707C155.141 656.01 138.262 635.197 131.458 610.54C127.337 595.665 127.279 579.157 132.351 562.989C135.659 552.441 141.152 542.036 149.125 532.327C173.244 502.903 216.857 482.346 235.301 451.73C241.926 440.732 244.92 429.756 246.048 418.521C247.036 408.994 246.645 399.367 246.368 389.849C245.961 376.497 246.237 362.138 250.67 348.679C253.111 341.258 256.859 334.099 262.432 327.424C273.335 314.361 288.922 305.474 305.768 297.37C330 285.663 356.915 275.27 375.511 257.557C377.496 255.667 379.371 253.699 381.131 251.638C400.489 228.901 396.334 204.959 401.399 182.668C406.36 160.83 421.867 138.676 444.892 119.537C451.557 113.995 458.87 108.697 466.675 103.753C480.779 94.8417 496.433 87.1303 512.499 80.9496C536.41 71.7287 561.179 65.8522 583.343 64.7882M169.351 672.873C150.475 654.185 134.08 633.321 127.598 608.724C123.67 593.906 123.721 577.512 128.779 561.45C132.079 550.97 137.512 540.634 145.348 530.97C169.1 501.639 211.772 480.851 230.715 450.779C237.603 439.842 241.141 429.014 242.722 417.774C244.1 408.228 244.01 398.515 243.906 388.883C243.738 375.394 243.999 360.898 248.105 347.354C250.365 339.889 253.854 332.69 259.058 325.953C269.265 312.727 283.841 303.503 299.82 294.973C322.789 282.639 348.761 271.292 367.604 253.333C369.607 251.424 371.512 249.445 373.307 247.388C393.04 224.702 390.643 201.633 396.893 180.53C403.015 159.865 419.253 139.23 442.872 120.891C449.726 115.568 457.217 110.439 465.179 105.58C479.598 96.8178 495.484 89.0177 511.651 82.5294C535.743 72.8261 560.364 65.9853 581.961 63.7233M164.367 671.034C145.815 652.359 129.897 631.439 123.732 606.903C119.997 592.144 120.163 575.863 125.207 559.906C128.499 549.495 133.872 539.227 141.577 529.612C164.963 500.368 206.697 479.358 226.134 449.832C233.292 438.954 237.344 428.276 239.396 417.027C241.145 407.459 241.381 397.657 241.445 387.911C241.515 374.286 241.762 359.654 245.54 346.03C247.618 338.515 250.856 331.279 255.684 324.476C265.195 311.083 278.784 301.548 293.872 292.571C315.602 279.642 340.607 267.31 359.697 249.099C361.718 247.171 363.653 245.182 365.489 243.127C385.598 220.486 384.958 198.285 392.399 178.38C399.689 158.875 416.652 139.766 440.87 122.232C447.913 117.133 455.589 112.161 463.702 107.393C478.429 98.7814 494.552 90.8915 510.821 84.0956C535.094 73.9151 559.573 66.0985 580.596 62.6499M159.383 669.2C141.154 650.534 125.709 629.563 119.865 605.088C116.323 590.391 116.599 574.219 121.634 558.368C124.919 548.025 130.226 537.82 137.801 528.255C160.819 499.099 201.635 477.864 221.542 448.882C228.975 438.063 233.553 427.531 236.059 416.282C238.197 406.695 238.735 396.807 238.972 386.947C239.275 373.182 239.512 358.421 242.963 344.707C244.866 337.147 247.84 329.866 252.293 323.008C261.101 309.443 273.691 299.584 287.907 290.178C308.385 276.625 332.435 263.335 351.772 244.878C353.811 242.931 355.776 240.937 357.647 238.876C378.138 216.284 379.262 194.933 387.875 176.24C396.334 157.886 414.026 140.317 438.838 123.583C446.07 118.708 453.925 113.899 462.201 109.216C477.236 100.754 493.597 92.7748 509.961 85.6776C534.416 75.0147 558.746 66.2338 579.202 61.5924M154.405 667.36C136.494 648.708 121.532 627.675 116.011 603.265C112.662 588.626 113.047 572.569 118.068 556.823C121.346 546.549 126.591 536.412 134.036 526.891C156.687 497.828 196.596 476.365 216.968 447.929C224.676 437.168 229.786 426.787 232.745 415.527C235.272 405.922 236.112 395.942 236.528 385.967C237.07 372.065 237.293 357.168 240.416 343.375C242.138 335.764 244.853 328.443 248.937 321.523C257.049 307.781 268.64 297.603 281.977 287.773C301.21 273.595 324.293 259.35 343.883 240.646C345.946 238.679 347.934 236.675 349.847 234.617C370.713 212.075 373.613 191.558 383.399 174.092C393.044 156.874 411.448 140.859 436.847 124.927C444.275 120.269 452.308 115.624 460.735 111.032C476.085 102.72 492.677 94.6516 509.142 87.2467C533.785 76.1056 557.966 66.3551 577.85 60.5168M149.421 665.521C131.833 646.877 117.35 625.793 112.145 601.444C108.989 586.863 109.489 570.919 114.496 555.279C117.766 545.074 122.951 535.004 130.259 525.534C152.544 496.558 191.552 474.873 212.381 446.978C220.371 436.279 226.008 426.04 229.414 414.782C232.329 405.152 233.471 395.091 234.061 385.002C234.841 370.964 235.05 355.93 237.845 342.051C239.385 334.396 241.843 327.029 245.557 320.052C252.967 306.133 263.565 295.63 276.023 285.377C294.005 270.575 316.133 255.374 335.964 236.418C338.045 234.433 340.063 232.418 342.011 230.365C363.258 207.867 367.946 188.185 378.881 171.951C389.724 155.857 408.828 141.408 434.821 126.277C442.438 121.843 450.645 117.342 459.234 112.855C474.881 104.669 491.722 96.535 508.288 88.8225C533.112 77.199 557.145 66.484 576.462 59.453M144.437 663.687C127.173 645.057 113.161 623.918 108.279 599.634C105.315 585.116 105.925 569.281 110.923 553.746C114.18 543.61 119.305 533.608 126.489 524.182C148.406 495.298 186.53 473.392 207.795 446.037C216.066 435.396 222.228 425.308 226.088 414.04C229.392 404.391 230.837 394.239 231.6 384.04C232.618 369.866 232.812 354.695 235.28 340.737C236.639 333.033 238.838 325.625 242.183 318.586C248.891 304.49 258.496 293.662 270.075 282.986C286.806 267.554 307.979 251.401 328.057 232.2C330.156 230.19 332.204 228.17 334.193 226.119C355.816 203.672 362.321 184.806 374.386 169.821C386.446 154.843 406.244 141.972 432.819 127.639C440.63 123.427 449.016 119.09 457.756 114.683C473.718 106.647 490.796 98.4232 507.457 90.4094C532.463 78.3087 556.353 66.6179 575.097 58.4003M139.454 661.848C122.513 643.226 108.979 622.036 104.413 597.813C101.642 583.353 102.367 567.631 107.345 552.203C110.594 542.136 115.659 532.202 122.706 522.821C144.257 494.025 181.509 471.901 203.203 445.082C211.766 434.501 218.444 424.557 222.75 413.29C226.45 403.62 228.19 393.383 229.127 383.066C230.378 368.751 230.563 353.447 232.703 339.409C233.88 331.661 235.817 324.203 238.798 317.112C244.798 302.83 253.415 291.686 264.115 280.586C279.595 264.525 299.813 247.42 320.138 227.973C322.256 225.945 324.332 223.914 326.357 221.861C348.355 199.465 356.696 181.41 369.869 167.675C383.168 153.804 403.63 142.521 430.787 128.985C438.788 124.997 447.352 120.818 456.249 116.502C472.519 108.611 489.835 100.302 506.598 91.9809C531.785 79.3979 555.527 66.7427 573.703 57.3271M134.47 660.009C117.846 641.401 104.796 620.154 100.553 595.991C97.9749 581.589 98.8085 565.982 103.779 550.658C107.021 540.659 112.025 530.793 118.941 521.462C140.125 492.759 176.511 470.415 198.628 444.134C207.479 433.614 214.677 423.813 219.431 412.542C223.519 402.848 225.562 392.525 226.671 382.098C228.161 367.647 228.332 352.212 230.144 338.084C231.14 330.286 232.818 322.781 235.43 315.634C240.722 301.171 248.352 289.706 258.173 278.188C272.402 261.493 291.665 243.442 312.237 223.742C314.373 221.695 316.479 219.654 318.539 217.606C340.919 195.258 351.112 178.023 365.374 165.53C379.937 152.771 401.045 143.074 428.785 130.331C436.981 126.566 445.724 122.546 454.777 118.319C471.362 110.577 488.909 102.18 505.767 93.5523C531.142 80.491 554.735 66.8663 572.339 56.259M129.486 658.175C113.186 639.575 100.614 618.277 96.6865 594.176C94.3014 579.836 95.2443 564.343 100.206 549.12C103.441 539.189 108.379 529.387 115.165 520.105C135.982 491.489 171.514 468.935 194.036 443.184C203.185 432.728 210.892 423.072 216.099 411.796C220.582 402.082 222.921 391.674 224.21 381.127C225.938 366.539 226.094 350.967 227.579 336.759C228.394 328.917 229.802 321.364 232.056 314.162C236.634 299.515 243.277 287.734 252.225 275.792C265.204 258.462 283.505 239.465 304.33 219.518C306.49 217.452 308.62 215.401 310.72 213.355C333.476 191.053 345.551 174.647 360.874 163.391C376.718 151.752 398.449 143.635 426.776 131.683C435.167 128.146 444.083 124.28 453.294 120.144C470.187 112.552 487.971 104.066 504.93 95.1352C530.487 81.5915 553.932 66.9972 570.968 55.1971M124.502 656.336C108.525 637.75 96.4255 616.397 92.8205 592.355C90.6283 578.073 91.6862 562.694 96.6282 547.577C99.8551 537.715 104.733 527.98 111.388 518.743C131.838 490.22 166.522 467.454 189.45 442.233C198.898 431.842 207.119 422.324 212.768 411.045C217.645 401.31 220.281 390.812 221.743 380.156C223.71 365.432 223.851 349.723 225.008 335.431C225.641 327.539 226.786 319.941 228.677 312.682C232.535 297.85 238.203 285.746 246.271 273.386C257.999 255.421 275.345 235.478 296.411 215.281C298.589 213.195 300.755 211.133 302.885 209.092C326.016 186.84 339.984 171.272 356.362 161.239C373.504 150.736 395.847 144.182 424.751 133.023C433.336 129.708 442.431 126.006 451.793 121.956C469 114.514 487.016 105.938 504.077 96.7005C529.815 82.6797 553.117 67.1146 569.58 54.1228M119.524 654.501C103.865 635.924 92.249 614.514 88.9602 590.538C86.9609 576.315 88.128 561.049 93.0617 546.038C96.2811 536.249 101.099 526.577 107.617 517.39C127.7 488.955 161.547 465.99 184.869 441.286C194.622 430.958 203.352 421.585 209.448 410.302C214.72 400.542 217.658 389.963 219.287 379.189C221.493 364.323 221.62 348.483 222.449 334.11C222.901 326.174 223.776 318.522 225.303 311.215C228.441 296.2 233.128 283.774 240.323 270.994C250.794 252.391 267.191 231.506 288.504 211.062C290.7 208.958 292.895 206.885 295.067 204.842C318.579 182.639 334.44 167.929 351.862 159.1C370.302 149.755 393.262 144.746 422.742 134.375C431.517 131.289 440.791 127.741 450.309 123.781C467.825 116.489 486.079 107.824 503.24 98.2782C529.16 83.775 552.314 67.2456 568.21 53.061M114.54 652.662C99.2045 634.098 88.0665 612.632 85.1001 588.716C83.2935 574.556 84.57 559.4 89.4954 544.493C92.7073 534.773 97.4584 525.17 103.853 516.026C123.569 487.678 156.584 464.519 180.289 440.334C190.346 430.074 199.579 420.842 206.122 409.55C211.79 399.769 215.023 389.1 216.826 378.217C219.264 363.216 219.382 347.238 219.884 332.786C220.154 324.8 220.76 317.104 221.929 309.739C224.342 294.541 228.053 281.791 234.375 268.597C243.59 249.361 259.037 227.528 280.597 206.838C282.811 204.715 285.036 202.631 287.242 200.592C311.131 178.44 328.89 164.608 347.362 156.961C367.105 148.789 390.672 145.316 420.734 135.728C429.704 132.869 439.156 129.479 448.826 125.605C466.656 118.463 485.147 109.708 502.404 99.8558C528.505 84.8754 551.516 67.3753 566.84 51.9938M109.556 650.823C94.5442 632.267 83.8782 610.751 81.234 586.896C79.6204 572.793 81.0119 557.75 85.9172 542.95C89.1158 533.3 93.8124 523.763 100.07 514.666C119.413 486.411 151.615 463.054 175.697 439.379C186.064 429.192 195.8 420.09 202.785 408.8C208.847 398.999 212.377 388.24 214.353 377.248C217.03 362.11 217.133 346 217.313 331.457C217.408 323.426 217.738 315.682 218.549 308.263C220.231 292.883 222.967 279.811 228.421 266.197C236.379 246.322 250.871 223.547 272.684 202.605C274.916 200.458 277.171 198.374 279.419 196.332C303.688 174.224 323.334 161.288 342.856 154.813C363.896 147.835 388.075 145.876 418.714 137.072C427.879 134.436 437.51 131.204 447.336 127.421C465.481 120.433 484.204 111.584 501.562 101.429C527.851 85.9654 550.707 67.4969 565.463 50.9278M104.572 648.989C89.8777 630.448 79.6956 608.875 77.3677 585.085C75.9469 571.04 77.4477 556.112 82.3447 541.417C85.5358 531.835 90.1662 522.367 96.2994 513.318C115.276 485.151 146.658 461.613 171.116 438.442C181.794 428.328 192.033 419.362 199.465 408.062C205.922 398.241 209.748 387.397 211.897 376.285C214.813 361.006 214.902 344.765 214.753 330.142C214.667 322.061 214.722 314.274 215.181 306.796C216.132 291.234 217.898 277.838 222.479 263.804C229.175 243.297 242.723 219.574 264.783 198.385C267.039 196.218 269.317 194.124 271.6 192.087C296.245 170.029 317.771 158 338.362 152.678C360.686 146.906 385.49 146.451 416.712 138.428C426.071 136.02 435.881 132.963 445.859 129.249C464.317 122.442 483.272 113.473 500.725 103.012C527.196 87.071 549.909 67.6319 564.093 49.8711M99.5887 647.15C85.2174 628.617 75.5131 606.993 73.5076 583.264C72.2796 569.282 73.8956 554.461 78.7784 539.872C81.9621 530.358 86.5321 520.954 92.5288 511.955C111.138 483.881 141.706 460.16 166.536 437.485C177.524 427.448 188.266 418.613 196.14 407.31C202.991 397.469 207.114 386.534 209.442 375.313C212.596 359.897 212.67 343.519 212.194 328.811C211.927 320.686 211.901 312.81 211.814 305.318C211.624 289.66 212.823 275.855 216.537 261.401C221.97 240.257 234.575 215.59 256.881 194.154C259.156 191.969 261.464 189.865 263.788 187.825C288.809 165.817 312.203 154.708 333.867 150.528C357.465 145.975 382.906 147.015 414.71 139.769C424.264 137.594 434.253 134.685 444.381 131.063C463.154 124.404 482.34 115.347 499.895 104.578C526.547 88.1548 549.112 67.7513 562.728 48.7925M94.6049 645.31C80.557 626.791 71.3307 605.111 69.6415 581.443C68.6064 567.519 70.3316 552.813 75.2002 538.329C78.3764 528.884 82.8861 519.547 88.7523 510.593C106.995 482.607 136.76 458.717 161.944 436.535C173.253 426.579 184.493 417.87 192.802 406.56C200.049 396.698 204.467 385.679 206.969 374.338C210.355 358.787 210.421 342.271 209.618 327.484C209.169 319.309 208.678 311.43 208.428 303.838C207.909 287.92 207.731 273.871 210.578 259.001C214.742 237.226 226.41 211.609 248.957 189.923C251.25 187.719 253.587 185.604 255.947 183.568C281.348 161.61 306.599 151.422 329.344 148.383C354.202 145.062 380.286 147.585 412.672 141.116C422.415 139.17 432.583 136.419 442.868 132.882C461.949 126.374 481.373 117.227 499.029 106.156C525.863 89.2555 548.286 67.8762 561.329 47.7308M89.6269 643.475C75.9025 624.964 67.1482 603.229 65.7813 579.626C64.939 565.76 66.7734 551.168 71.6338 536.79C74.8025 527.413 79.2459 518.145 84.9815 509.24C102.857 481.347 131.814 457.289 157.363 435.588C168.989 425.714 180.726 417.131 189.482 405.817C197.129 395.939 201.839 384.826 204.513 373.376C208.138 357.688 208.19 341.036 207.058 326.169C206.428 317.949 205.656 310.024 205.06 302.376C203.798 286.283 202.655 271.909 204.635 256.614C207.531 234.207 218.261 207.641 241.055 185.709C243.366 183.485 245.733 181.36 248.134 179.327C273.912 157.414 301.012 148.159 324.855 146.252C350.968 144.164 377.706 148.174 410.675 142.476C420.613 140.759 430.96 138.161 441.396 134.71C460.792 128.351 480.453 119.114 498.204 107.737C525.226 90.3527 547.494 68.0101 559.97 46.6719M84.6431 641.636C71.2362 623.14 62.9658 601.347 61.9152 577.806C61.2657 564.002 63.2154 549.519 68.0617 535.241C71.223 525.932 75.6059 516.732 81.211 507.872C98.7195 480.066 126.88 455.849 152.783 434.631C164.73 424.843 176.958 416.387 186.157 405.06C194.199 395.162 199.204 383.963 202.052 372.399C205.916 356.57 205.952 339.791 204.493 324.834C203.682 316.565 202.634 308.597 201.687 300.889C199.681 284.622 197.575 269.917 198.688 254.202C200.321 231.162 210.102 203.649 233.149 181.469C235.477 179.227 237.874 177.091 240.31 175.062C266.463 153.199 295.402 144.875 320.349 144.099C347.705 143.245 375.104 148.736 408.661 143.814C418.794 142.329 429.314 139.886 439.913 136.519C459.617 130.311 479.516 120.984 497.368 109.299C524.571 91.4376 546.697 68.1244 558.6 45.5893M79.6593 639.797C66.5758 621.309 58.7833 599.466 58.0551 575.984C57.5985 562.238 59.6573 547.869 64.4894 533.697C67.6432 524.457 71.9658 515.325 77.4345 506.51C94.576 478.797 121.94 454.426 148.191 433.676C160.46 423.979 173.18 415.64 182.826 404.309C191.268 394.389 196.57 383.101 199.585 371.423C203.687 355.458 203.709 338.542 201.923 323.505C200.93 315.192 199.601 307.182 198.307 299.414C195.558 282.972 192.447 267.949 192.734 251.801C193.046 228.14 201.942 199.667 225.236 177.236C227.589 174.974 230.009 172.829 232.486 170.797C259.021 148.984 289.786 141.591 315.849 141.944C344.436 142.333 372.507 149.302 406.648 145.152C416.969 143.896 427.674 141.605 438.424 138.329C458.442 132.27 478.573 122.86 496.52 110.868C523.905 92.5247 545.882 68.247 557.218 44.5191M74.6754 637.963C61.9153 619.488 54.5949 597.59 54.1889 574.168C53.9252 560.481 56.0932 546.226 60.917 532.158C64.0575 522.988 68.3197 513.924 73.6638 505.152C90.4384 477.526 117.005 453.017 143.611 432.724C156.201 423.123 169.436 414.907 179.5 403.556C188.355 393.629 193.935 382.243 197.13 370.45C201.47 354.349 201.478 337.296 199.364 322.174C198.19 313.811 196.585 305.759 194.933 297.932C191.441 281.321 187.372 265.966 186.786 249.399C185.835 225.111 193.788 195.684 217.329 173.006C219.7 170.721 222.15 168.57 224.662 166.542C251.573 144.774 284.165 138.319 311.343 139.801C341.161 141.427 369.905 149.884 404.633 146.5C415.15 145.477 426.027 143.335 436.935 140.15C457.261 134.246 477.629 124.741 495.678 112.442C523.244 93.6211 545.079 68.3676 555.842 43.448M69.6916 636.124C57.2491 617.659 50.4124 595.708 50.3228 572.348C50.252 558.718 52.5352 544.576 57.3448 530.615C60.4778 521.513 64.6796 512.516 69.8872 503.796C86.2949 476.257 112.064 451.614 139.024 431.778C151.942 422.277 165.657 414.17 176.168 402.816C185.418 392.868 191.294 381.392 194.662 369.485C199.236 353.248 199.234 336.058 196.793 320.856C195.437 312.449 193.551 304.355 191.554 296.467C187.312 279.687 182.291 264 180.832 247.009C178.624 222.093 185.628 191.708 209.41 168.785C211.799 166.48 214.279 164.319 216.827 162.295C244.112 140.577 278.525 135.056 306.831 137.664C337.868 140.53 367.289 150.526 402.613 147.854C413.318 147.081 424.381 145.076 435.439 141.977C456.08 136.222 476.68 126.629 494.829 114.021C522.578 94.7184 544.264 68.5006 554.459 42.3882M64.7076 634.29C52.5885 615.838 46.2298 593.832 46.4567 570.532C46.5786 556.965 48.9711 542.933 53.7665 529.077C56.892 520.049 61.0335 511.11 66.1106 502.439C82.1513 474.993 107.123 450.216 134.432 430.828C147.671 421.429 161.878 413.429 172.837 402.065C182.475 392.098 188.654 380.536 192.195 368.515C197.007 352.136 196.991 334.819 194.222 319.533C192.685 311.076 190.517 302.945 188.174 294.991C183.183 278.049 177.211 262.024 174.878 244.608C171.414 219.064 177.462 187.727 201.497 164.556C203.904 162.233 206.414 160.067 209.002 158.041C236.669 136.372 272.891 131.781 302.325 135.521C334.582 139.621 364.686 151.088 400.593 149.204C411.487 148.654 422.729 146.807 433.944 143.798C454.894 138.194 475.731 128.511 493.981 115.601C521.917 95.82 543.454 68.6325 553.077 41.3284M59.7298 632.45C47.934 614.011 42.0474 591.95 42.6023 568.714C42.9112 555.206 45.4188 541.287 50.206 527.536C53.324 518.577 57.3992 509.706 62.3458 501.08C78.0196 473.722 102.194 448.827 129.858 429.88C143.423 420.587 158.111 412.69 169.517 401.322C179.55 391.335 186.025 379.683 189.74 367.547C194.79 351.032 194.76 333.579 191.663 318.207C189.95 309.705 187.483 301.541 184.806 293.518C179.041 276.423 172.136 260.052 168.936 242.21C164.209 216.034 169.314 183.748 193.596 160.331C196.027 157.988 198.56 155.812 201.184 153.785C229.227 132.166 267.239 128.55 297.831 133.376C331.276 138.762 362.096 151.648 398.591 150.55C409.68 150.228 421.1 148.54 432.472 145.615C453.736 140.161 474.811 130.388 493.157 117.172C521.274 96.908 542.663 68.7561 551.719 40.254M54.746 630.611C36.6092 601.487 33.6371 563.15 46.6337 525.993C59.6303 488.836 88.4449 453.268 125.277 428.928C139.17 419.745 154.344 411.946 166.197 400.568C190.801 376.958 195.052 343.698 189.103 316.882C183.155 290.065 168.972 266.618 162.988 239.813C157.004 213.009 161.16 179.771 185.689 156.102C214.244 128.545 258.653 124.667 293.331 131.237C328.008 137.808 359.494 152.215 396.583 151.902C428.974 151.628 464.015 139.496 492.314 118.75C520.613 98.0043 541.854 68.8829 550.342 39.1932M52.7167 622.331C35.1538 593.33 32.6032 555.349 45.7776 518.651C58.9522 481.947 87.6156 446.815 124.252 423.068C138.541 413.803 154.278 406.308 166.545 395.145C191.415 372.514 196.28 340.201 191.523 314.035C186.771 287.867 173.93 264.703 168.75 238.015C163.506 210.993 166.992 177.701 190.872 153.614C218.64 125.725 262.794 120.649 297.691 126.637C332.588 132.625 364.262 147.536 400.358 148.157C431.566 148.693 465.313 137.303 492.712 117.841C520.11 98.3799 541.051 70.7797 549.835 42.0689M50.6931 614.056C33.6983 585.178 31.5808 547.558 44.9274 511.308C58.2798 475.062 86.8037 440.374 123.239 417.2C137.929 407.857 154.207 400.672 166.911 389.708C192.018 368.046 197.519 336.685 193.96 311.174C190.4 285.657 178.918 262.761 174.529 236.203C170.026 208.952 172.785 175.577 196.079 151.106C222.984 122.842 266.959 116.616 302.075 122.022C337.191 127.428 369.024 142.836 404.164 144.391C434.183 145.717 466.635 135.089 493.139 116.911C519.637 98.7347 540.273 72.6514 549.358 44.9237M48.6638 605.776C32.2369 577.027 30.5469 539.757 44.0773 503.965C57.6076 468.172 86.0091 433.945 122.225 411.338C137.318 401.916 154.124 395.043 167.276 384.281C192.579 363.58 198.765 333.184 196.402 308.322C194.034 283.461 183.918 260.823 180.314 234.4C176.711 207.977 178.612 173.487 201.285 148.613C227.369 119.998 271.123 112.599 306.459 117.423C341.794 122.247 373.763 138.141 407.963 140.642C436.775 142.745 467.956 132.891 493.56 115.998C519.158 99.106 539.488 74.545 548.874 47.7951M46.6345 597.496C30.7756 568.871 29.513 531.957 43.2212 496.623C56.9294 461.288 85.2142 427.526 121.2 405.473C136.701 395.972 154.012 389.409 167.63 378.846C193.093 359.097 199.998 329.675 198.828 305.464C197.657 281.252 188.912 258.87 186.082 232.59C183.097 204.862 184.421 171.396 206.474 146.108C231.736 117.147 275.27 108.564 310.825 112.811C346.379 117.058 378.467 133.421 411.751 136.879C439.351 139.746 469.266 130.685 493.964 115.073C518.667 99.4588 538.686 76.4262 548.373 50.6542M44.6111 589.216C29.326 560.718 28.4908 524.155 42.377 489.273C56.2632 454.392 84.4428 421.114 120.192 399.604C136.107 390.028 153.899 383.775 168.001 373.413C193.59 354.602 201.25 326.168 201.271 302.607C201.292 279.046 193.935 256.906 191.867 230.787C189.647 202.806 190.248 169.312 211.686 143.614C236.126 114.313 279.44 104.546 315.208 108.212C350.976 111.878 383.166 128.703 415.55 133.13C441.927 136.736 470.582 128.489 494.385 114.159C518.188 99.8302 537.907 78.3135 547.89 53.5205M42.5817 580.936C27.8647 552.562 27.4569 516.355 41.5209 481.931C55.5849 447.508 83.6651 414.718 119.173 393.743C135.495 384.097 153.763 378.146 168.355 367.984C194.041 350.095 202.478 322.661 203.696 299.754C204.908 276.848 198.953 254.943 197.628 228.983C196.191 200.746 196.057 167.231 216.869 141.116C240.493 111.472 283.581 100.523 319.569 103.607C355.556 106.69 387.817 123.962 419.326 129.374C444.474 133.7 471.88 126.285 494.783 113.24C517.685 100.195 537.099 80.201 547.383 56.3858M40.5583 572.655C26.4092 544.41 26.4289 508.554 40.6766 474.587C54.9185 440.622 82.9107 408.334 118.159 387.876C134.901 378.164 153.621 372.502 168.721 362.547C194.48 345.563 203.723 319.149 206.133 296.893C208.543 274.637 203.995 252.966 203.408 227.171C202.759 198.666 201.884 165.142 222.07 138.608C244.878 108.633 287.74 96.4859 323.947 98.9927C360.153 101.494 392.47 119.189 423.125 125.615C447.039 130.63 473.201 124.076 495.204 112.316C517.206 100.556 536.314 82.0841 546.9 59.2468M38.529 564.375C24.9479 536.254 25.4009 500.753 39.8207 467.24C54.2405 433.728 82.1504 401.95 117.14 382.01C134.295 372.233 153.456 366.857 169.08 357.116C194.884 341.023 204.963 315.644 208.564 294.038C212.165 272.432 207.412 251.27 209.181 225.365C211.165 196.277 207.711 163.063 227.271 136.112C249.268 105.804 291.899 92.4647 328.325 94.3841C364.751 96.3036 397.111 114.393 426.919 121.856C449.6 127.53 474.511 121.875 495.613 111.395C516.716 100.914 535.518 83.9643 546.405 62.1101M36.5056 556.095C23.4983 528.101 24.3728 492.951 38.9764 459.896C53.5799 426.841 81.4074 395.584 116.133 376.141C133.707 366.303 153.297 361.2 169.452 351.678C195.282 336.453 206.208 312.133 211.007 291.177C215.8 270.221 212.395 249.256 214.967 223.552C217.897 194.209 213.549 160.982 232.478 133.603C253.665 102.963 296.063 88.4319 332.709 89.7692C369.354 91.1117 401.741 109.568 430.724 118.09C452.167 124.398 475.839 119.661 496.041 110.465C516.243 101.269 534.745 85.8401 545.928 64.9648M34.4763 547.815C22.037 519.945 23.3389 485.151 38.1203 452.554C52.9018 419.952 80.6583 389.225 115.107 370.281C133.107 360.381 153.109 355.544 169.805 346.253C195.64 331.874 207.442 308.629 213.432 288.328C219.423 268.027 219.191 247.022 220.734 221.753C222.523 192.421 219.37 158.914 237.667 131.114C258.049 100.145 300.21 84.4128 337.075 85.1731C373.939 85.9334 406.348 104.727 434.506 114.344C454.722 121.247 477.143 117.466 496.444 109.555C515.746 101.644 533.943 87.7369 545.426 67.8395M32.447 539.535C20.5757 511.789 22.3108 477.35 37.2643 445.207C52.2237 413.063 79.9089 382.875 114.088 364.409C132.512 354.458 152.915 349.863 170.159 340.813C195.981 327.263 208.676 305.115 215.857 285.465C223.039 265.814 224.274 245.021 226.502 219.937C229.133 190.318 225.202 156.829 242.862 128.603C262.445 97.3098 304.363 80.377 341.447 80.5552C378.531 80.7333 410.956 99.8337 438.3 110.575C457.291 118.042 478.453 115.25 496.86 108.622C515.261 101.99 533.152 89.6056 544.937 70.6912M30.4236 531.254C19.1262 503.636 21.2827 469.554 36.42 437.863C51.5574 406.172 79.183 376.532 113.075 358.547C131.924 348.544 152.721 344.182 170.525 335.387C196.328 322.64 209.921 301.614 218.294 282.614C226.668 263.614 229.375 243.033 232.275 218.137C235.76 188.228 231.035 154.765 248.056 126.112C266.841 94.495 308.516 76.362 345.813 75.9591C383.116 75.5551 415.571 94.9135 442.081 106.829C459.86 114.822 479.756 113.055 497.263 107.712C514.764 102.365 532.35 91.5024 544.436 73.5659M28.3941 522.98C17.6647 495.485 20.2487 461.759 35.5638 430.526C50.879 399.293 78.4449 370.207 112.055 352.691C131.335 342.641 152.51 338.488 170.884 329.961C196.652 318 211.154 298.116 220.725 279.765C230.296 261.419 234.487 241.043 238.048 216.336C242.399 186.135 236.873 152.699 253.251 123.617C271.237 91.675 312.668 72.3367 350.185 71.3568C387.701 70.3717 420.204 89.9485 445.874 103.081C462.459 111.565 481.072 110.864 497.672 106.796C514.273 102.728 531.559 93.3867 543.941 76.4343M26.3707 514.699C16.2092 487.333 19.2265 453.957 34.7197 423.177C50.2127 392.402 77.7247 363.873 111.048 346.818C130.758 336.73 152.312 332.762 171.256 324.518C196.988 313.323 212.406 294.593 223.169 276.898C233.931 259.203 239.63 239.037 243.833 214.518C249.068 184.021 242.729 150.62 258.464 121.107C275.662 88.8443 316.839 68.3028 354.575 66.7356C392.31 65.1735 424.88 84.9189 449.68 99.3102C465.089 108.25 482.394 108.645 498.1 105.861C513.806 103.076 530.781 95.2584 543.464 79.2839M24.3414 506.419C14.7479 479.177 18.1926 446.157 33.8636 415.835C49.5346 385.513 76.9981 357.556 110.022 340.958C130.169 330.832 152.089 327.034 171.604 319.094C197.296 308.64 213.634 291.096 225.588 274.051C237.542 257.006 244.754 237.05 249.595 212.719C255.725 181.931 248.567 148.554 263.647 118.614C280.058 86.0294 320.98 64.2796 358.935 62.1353C396.89 59.9911 429.557 79.8582 453.456 95.56C467.707 104.923 483.692 106.446 498.497 104.946C513.303 103.447 529.973 97.151 542.957 82.1544M22.318 498.139C13.2983 471.025 17.1646 438.356 33.0193 408.491C48.8681 378.627 76.2832 351.247 109.015 335.089C129.598 324.93 151.886 321.277 171.975 313.656C197.627 303.927 214.879 287.585 228.031 271.189C241.182 254.799 249.908 235.047 255.38 210.906C262.423 179.827 254.429 146.479 268.859 116.11C284.489 83.2029 325.15 60.251 363.325 57.5246C401.499 54.7982 434.311 74.7421 457.267 91.7983C470.397 101.556 485.025 104.236 498.93 104.021C512.836 103.806 529.2 99.0268 542.485 85.0081M20.2887 489.859C11.837 462.868 16.1365 430.555 32.1633 401.144C48.1901 371.733 75.5565 344.94 107.995 329.223C129.014 319.041 151.67 315.507 172.335 308.225C197.947 299.2 216.119 284.08 230.462 268.334C244.805 252.595 255.068 233.054 261.154 209.1C269.121 177.729 260.285 144.416 274.054 113.609C288.909 80.3838 329.303 56.2256 367.697 52.917C406.09 49.6084 439.108 69.5769 461.055 88.0408C473.088 98.1641 486.329 102.031 499.334 103.1C512.339 104.17 528.403 100.912 541.984 87.8724M18.2594 481.579C10.3756 454.718 15.1026 422.754 31.3131 393.801C47.5237 364.847 74.8413 338.641 106.976 323.356C128.431 313.152 151.456 309.716 172.694 302.789C198.268 294.448 217.358 280.564 232.893 265.475C248.427 250.385 260.24 231.053 266.927 207.289C275.837 175.632 266.141 142.342 279.249 111.108C293.328 77.5594 333.456 52.195 372.069 48.3095C410.681 44.4187 443.97 64.3585 464.848 84.2875C475.82 94.7591 487.645 99.8339 499.749 102.183C511.854 104.537 527.613 102.802 541.495 90.7397M16.236 473.298C8.92024 446.561 14.0746 414.953 30.463 386.458C46.8515 357.957 74.12 332.354 105.963 317.494C127.859 307.277 151.247 303.914 173.06 297.363C198.6 289.694 218.604 277.064 235.33 262.624C252.056 248.185 265.423 229.071 272.7 205.488C282.565 173.544 272.008 140.276 284.45 108.611C297.76 74.7433 337.615 48.1737 376.441 43.7071C415.273 39.2394 448.911 59.1052 468.636 80.5352C478.582 91.3331 488.954 97.633 500.159 101.267C511.363 104.9 526.816 104.687 541 93.6081M14.2066 465.019C7.46485 438.404 13.0465 407.152 29.607 379.111C46.1734 351.068 73.3987 326.066 104.943 311.628C127.282 301.402 151.039 298.081 173.414 291.928C198.933 284.908 219.832 273.556 237.755 259.771C255.678 245.986 270.6 227.084 278.468 203.689C289.303 171.464 277.864 138.212 289.639 106.117C302.179 71.9242 341.761 44.1546 380.807 39.1058C419.852 34.057 453.928 53.812 472.423 76.7829C481.373 87.9017 490.258 95.4332 500.568 100.35C510.878 105.267 526.02 106.577 540.505 96.4765M12.1832 456.738C6.00935 430.252 12.0185 399.351 28.7627 371.766C45.5069 344.182 72.6948 319.786 103.93 305.761C126.71 295.532 150.843 292.235 173.779 286.496C199.284 280.114 221.077 270.044 240.192 256.915C259.307 243.781 275.8 225.104 284.247 201.882C296.072 169.384 283.744 136.139 294.839 103.62C306.616 69.107 345.92 40.1281 385.185 34.4972C424.449 28.8662 459.058 48.4828 476.217 73.0243C484.212 84.4565 491.574 93.226 500.983 99.4277C510.387 105.63 525.235 108.455 540.015 99.3386M10.1539 448.458C4.54806 422.096 10.9844 391.556 27.9066 364.425C44.8288 337.293 71.9732 313.515 102.911 299.899C126.137 289.677 150.648 286.373 174.139 281.065C199.641 275.303 222.317 266.54 242.623 254.061C262.936 241.576 281.001 223.123 290.02 200.076C302.84 167.309 289.617 134.072 300.04 101.118C311.059 66.2783 350.079 36.1016 389.563 29.8885C429.047 23.6754 464.283 43.126 480.016 69.2647C487.086 81.0153 492.896 91.0177 501.399 98.5051C509.908 105.986 524.445 110.34 539.526 102.201M8.13038 440.183C3.09835 413.948 9.96221 383.759 27.0623 357.08C44.1624 330.407 71.2632 307.246 101.903 294.031C125.577 283.82 150.471 280.482 174.51 275.627C200.022 270.478 223.562 263.028 245.066 251.199C266.57 239.37 286.219 221.145 295.806 198.263C309.638 165.234 295.503 131.993 305.247 98.6149C315.514 63.4475 354.243 32.0741 393.947 25.2788C433.65 18.4835 469.614 37.755 483.816 65.5051C489.995 77.5831 494.211 88.8157 501.82 97.5815C509.429 106.347 523.66 112.223 539.043 105.062M6.10106 431.903C1.63705 405.792 8.92828 375.959 26.2062 349.739C43.4842 323.518 70.5412 300.99 100.878 288.171C124.998 277.977 150.288 274.583 174.864 270.203C200.397 265.648 224.796 259.53 247.497 248.35C270.193 237.171 291.431 219.188 301.579 196.462C316.435 163.18 301.382 129.925 310.441 96.1192C319.951 60.6251 358.396 28.0487 398.318 20.6765C438.241 13.3042 475.027 32.3949 487.603 61.758C492.922 74.1736 495.521 86.62 502.229 96.6704C508.938 106.721 522.864 114.113 538.548 107.935M4.07173 423.623C0.175626 397.641 7.89433 368.159 25.3561 342.396C42.8119 316.633 69.8251 294.733 99.8643 282.304C124.432 272.137 150.123 268.664 175.224 264.767C200.797 260.799 226.035 256.014 249.928 245.49C273.821 234.961 296.649 217.226 307.346 194.652C323.238 161.13 307.303 127.845 315.636 93.6183C324.442 57.7982 362.549 24.0233 402.691 16.0689C442.832 8.1145 480.529 27.0394 491.397 57.9994C495.883 70.7732 496.837 84.4128 502.645 95.7478C508.453 107.083 522.079 115.997 538.058 110.798M2.04833 415.342C-1.27975 389.484 6.87222 360.356 24.506 335.047C42.1457 309.737 69.1088 288.481 98.8509 276.436C123.865 266.307 149.97 262.722 175.589 259.335C201.208 255.948 227.275 252.51 252.365 242.635C277.45 232.761 301.873 215.272 313.126 192.845C330.064 159.085 313.153 125.767 320.837 91.1164C328.855 54.9645 366.708 19.9969 407.063 11.4613C447.424 2.92476 486.106 21.7061 495.184 54.242C498.856 67.4018 498.141 82.2079 503.054 94.8264C507.962 107.441 521.283 117.882 537.563 113.661M609.987 145.483C598.766 126.113 567.116 123.003 540.338 133.62C513.559 144.241 491.532 165.553 474.896 187.918C458.259 210.283 445.857 234.298 430.247 257.096C415.915 278.018 387.54 309.508 359.257 304.85C345.04 302.509 335.662 290.524 337.323 276.815C338.607 266.238 345.748 256.37 347.465 245.843C349.395 234.018 347.606 222.441 342.179 212.963C318.497 171.552 223.742 191.879 217.781 136.787C213.292 95.2771 274.071 48.2984 311.63 25.3435C365.323 -7.47053 424.237 -21.8042 481.845 -23.5636C506.638 -24.3219 535.858 -25.3444 554.799 -13.6501C555.212 -13.405 555.612 -13.1474 556.006 -12.8888C565.648 -6.55383 572.347 2.89927 575.305 13.8034C578.61 25.9972 580.927 37.3952 585.261 49.3757C590.863 64.8536 596.464 80.3366 602.072 95.8134L609.981 145.479L609.987 145.483Z" stroke="#497CF2" stroke-opacity="0.08" stroke-miterlimit="10"/>
</svg>
