<svg width="375" height="643" viewBox="0 0 375 643" fill="none" xmlns="http://www.w3.org/2000/svg">
<path d="M-244.242 642.581C-258.775 617.521 -269.982 591.005 -267.855 563.473C-266.579 546.837 -259.861 529.702 -247.29 514.495C-239.087 504.574 -228.379 495.47 -215.068 487.865C-174.803 464.848 -115.404 457.262 -81.9584 430.59C-70.0897 421.125 -62.6724 410.421 -57.221 399.087C-52.5905 389.494 -49.4135 379.488 -46.0167 369.683C-41.2612 355.907 -35.0181 341.377 -24.0142 329.047C-17.9521 322.254 -10.4292 316.118 -0.872831 311.114C17.7285 301.301 40.2701 297.489 63.7202 294.883C97.4624 291.11 133.239 289.73 161.48 277.265C164.499 275.929 167.43 274.469 170.252 272.861C201.417 255.11 204.982 227.836 219.167 204.868C233.076 182.348 259.824 162.466 293.73 148.642C303.541 144.657 313.945 141.172 324.788 138.284C344.325 133.091 365.11 129.862 385.811 128.59C416.571 126.691 447.088 129.089 473.027 136.012M-249.174 639.202C-263.344 614.253 -273.988 587.821 -271.518 560.447C-270.045 543.928 -263.25 526.943 -250.731 511.841C-242.566 501.988 -231.962 492.936 -218.812 485.338C-179.01 462.301 -120.608 454.2 -86.7987 428.243C-74.6539 418.919 -66.6695 408.531 -60.71 397.321C-55.6197 387.825 -52.0665 377.814 -48.4264 367.949C-43.3416 354.105 -37.0582 339.429 -26.3959 326.92C-20.5204 320.022 -13.2607 313.784 -4.11563 308.588C13.7787 298.419 35.2908 293.941 57.917 290.643C90.4835 285.85 125.571 283.207 154.192 270.556C157.247 269.207 160.209 267.744 163.077 266.151C194.657 248.565 199.859 222.718 214.914 201.32C229.662 180.357 256.598 162.22 290.874 149.426C300.797 145.722 311.359 142.46 322.336 139.71C342.163 134.765 363.264 131.515 384.199 129.961C415.365 127.626 446.122 128.985 471.902 134.511M-254.11 635.829C-267.92 610.984 -277.99 584.643 -275.176 557.427C-273.507 541.025 -266.634 524.19 -254.176 509.193C-246.047 499.408 -235.54 490.407 -222.565 482.815C-183.221 459.764 -125.801 451.144 -91.6462 425.896C-79.2254 416.712 -70.681 406.64 -64.2012 395.56C-58.6585 386.16 -54.7241 376.151 -50.8385 366.22C-45.4243 352.307 -39.1007 337.487 -28.7776 324.793C-23.091 317.795 -16.1094 311.438 -7.36081 306.068C9.80467 295.524 30.3019 290.398 52.1137 286.404C83.4974 280.588 117.903 276.683 146.908 263.853C149.992 262.49 152.992 261.025 155.899 259.447C187.887 242.025 194.736 217.599 210.652 197.777C226.24 178.366 253.38 162.009 288.002 150.215C298.05 146.791 308.746 143.757 319.867 141.141C339.992 136.443 361.394 133.171 382.573 131.331C414.147 128.555 445.135 128.878 470.764 133.004M-259.042 632.45C-272.488 607.715 -281.989 581.459 -278.838 554.401C-276.973 538.116 -270.016 521.432 -257.618 506.539C-249.526 496.823 -239.117 487.873 -226.311 480.293C-187.423 457.222 -130.981 448.095 -96.4888 423.554C-83.7848 414.512 -74.7141 404.747 -67.6924 393.799C-61.7165 384.488 -57.3722 374.484 -53.2483 364.487C-47.5047 350.505 -41.1408 335.539 -31.1593 322.665C-25.6594 315.562 -18.9508 309.092 -10.6037 303.543C5.83517 292.619 25.3327 286.878 46.3127 282.159C76.5264 275.361 110.238 270.154 139.63 257.14C142.742 255.762 145.78 254.295 148.733 252.733C181.132 235.469 189.629 212.46 206.408 194.225C222.85 176.356 250.183 161.782 285.156 150.995C295.327 147.858 306.169 145.04 317.424 142.564C337.839 138.112 359.55 134.819 380.973 132.693C412.952 129.48 444.184 128.758 469.651 131.493M-263.977 629.076C-277.057 604.447 -285.997 578.281 -282.503 551.38C-280.444 535.217 -273.407 518.679 -261.062 503.891C-253.008 494.242 -242.7 485.339 -230.065 477.771C-191.632 454.68 -136.147 445.047 -101.343 421.206C-88.349 412.306 -78.7378 402.849 -71.1981 392.036C-64.7696 382.822 -60.0443 372.82 -55.6748 362.757C-49.6068 348.7 -43.2 333.601 -33.5554 320.537C-28.2372 313.334 -21.8116 306.74 -13.8705 301.021C1.83685 289.711 20.3272 283.338 40.4878 277.917C69.5309 270.104 102.548 263.629 132.325 250.435C135.465 249.043 138.54 247.58 141.536 246.021C174.35 228.922 184.51 207.314 202.126 190.674C219.425 174.337 246.953 161.564 282.271 151.777C292.566 148.926 303.544 146.33 314.951 143.989C335.656 139.783 357.675 136.469 379.332 134.062C411.72 130.408 443.182 128.65 468.497 129.99M-268.903 625.698C-281.626 601.178 -289.987 575.093 -286.152 548.355C-283.896 532.31 -276.781 515.921 -264.497 501.238C-256.479 491.658 -246.269 482.806 -233.801 475.244C-195.827 452.139 -141.284 442.002 -106.177 418.86C-92.8916 410.102 -82.7349 400.959 -74.6726 390.271C-67.7917 381.154 -62.6829 371.148 -58.0607 361.02C-51.6632 346.894 -45.2162 331.65 -35.9132 318.406C-30.7816 311.098 -24.6339 304.385 -17.0894 298.492C-2.10406 286.791 15.3767 279.793 34.7085 273.674C62.5881 264.846 94.8967 257.101 125.065 243.728C128.242 242.323 131.347 240.857 134.389 239.314C167.612 222.378 179.455 202.157 197.902 187.129C216.084 172.314 243.78 161.351 279.438 152.564C289.865 149.994 300.979 147.62 312.52 145.417C333.523 141.459 355.844 138.123 377.744 135.43C410.545 131.34 442.24 128.542 467.398 128.48M-273.836 622.32C-286.192 597.905 -293.986 571.909 -289.814 545.329C-287.362 529.401 -280.163 513.163 -267.939 498.585C-259.958 489.072 -249.845 480.272 -237.555 472.722C-200.036 449.597 -146.43 438.961 -111.024 416.513C-97.4438 407.903 -86.7441 399.063 -78.171 388.51C-70.8353 379.483 -65.3477 369.484 -60.4799 359.291C-53.7531 345.096 -47.2659 329.707 -38.3021 316.278C-33.3595 308.871 -27.4875 302.033 -20.3418 295.972C-6.08569 283.879 10.395 276.25 28.898 269.433C55.6069 259.591 87.2215 250.577 117.77 237.018C120.975 235.6 124.119 234.132 127.199 232.603C160.84 215.827 174.379 196.999 193.627 183.58C212.712 170.278 240.557 161.134 276.56 153.346C287.11 151.064 298.363 148.889 310.047 146.842C331.336 143.103 353.969 139.773 376.112 136.795C409.322 132.263 441.248 128.429 466.253 126.972M-278.771 618.946C-290.763 594.642 -297.994 568.731 -293.482 542.314C-290.835 526.508 -283.557 510.415 -271.385 495.942C-263.449 486.497 -253.433 477.748 -241.303 470.205C-204.242 447.066 -151.555 435.939 -115.876 414.176C-101.998 405.709 -90.7602 397.183 -81.6645 386.754C-73.8763 377.824 -68.0053 367.821 -62.8942 357.568C-55.8381 343.304 -49.3106 327.77 -40.6884 314.161C-35.9324 306.649 -30.3384 299.692 -23.5892 293.457C-10.0624 280.973 5.41831 272.713 23.0925 265.199C48.6329 254.336 79.5513 244.058 110.484 230.321C113.72 228.883 116.9 227.418 120.026 225.904C154.075 209.292 169.353 191.845 189.374 180.048C209.386 168.256 237.368 160.941 273.705 154.147C284.386 152.152 295.774 150.199 307.597 148.28C329.184 144.789 352.125 141.437 374.503 138.178C408.118 133.21 440.288 128.33 465.13 125.483M-283.704 615.567C-295.33 591.368 -301.993 565.547 -297.144 539.288C-294.301 523.599 -286.938 507.657 -274.834 493.287C-266.935 483.91 -257.016 475.214 -245.061 467.677C-208.456 444.518 -156.675 432.906 -120.729 411.823C-106.541 403.505 -94.7744 395.28 -85.1679 384.986C-76.92 376.153 -70.675 366.152 -65.3161 355.827C-57.9355 341.488 -51.3629 325.816 -43.0821 312.027C-38.5151 304.415 -33.2018 297.328 -26.8465 290.93C-14.0515 278.044 0.431773 269.164 17.2771 260.952C41.6491 249.069 71.8712 237.528 103.189 223.611C106.453 222.159 109.671 220.692 112.838 219.188C147.296 202.74 164.334 186.675 185.102 176.493C206.071 166.209 234.152 160.724 270.823 154.924C281.627 153.215 293.154 151.478 305.119 149.699C326.998 146.449 350.246 143.082 372.867 139.536C406.89 134.127 439.291 128.211 463.983 123.964M-288.637 612.188C-299.906 588.099 -305.992 562.364 -300.8 536.262C-297.76 520.69 -290.32 504.898 -278.269 490.634C-270.407 481.326 -260.585 472.68 -248.8 465.156C-212.653 441.983 -161.771 429.887 -125.564 409.482C-111.074 401.313 -98.7715 393.39 -88.6519 383.226C-79.9492 374.484 -73.3232 364.484 -67.721 354.1C-60.0111 339.692 -53.4005 323.879 -45.4566 309.9C-41.0762 302.183 -36.0386 294.971 -30.0821 288.405C-18.0213 275.122 -4.53314 265.618 11.4811 256.713C34.687 243.804 64.2104 231.005 95.9151 216.903C99.2077 215.438 102.464 213.969 105.67 212.479C140.543 196.195 159.359 181.526 180.856 172.946C202.807 164.182 230.967 160.521 267.975 155.709C278.909 154.287 290.574 152.767 302.681 151.128C324.858 148.125 348.407 144.735 371.265 140.903C405.701 135.058 438.335 128.102 462.867 122.458M-293.572 608.815C-304.474 584.83 -309.993 559.186 -304.465 533.242C-301.231 517.792 -293.714 502.15 -281.713 487.986C-273.888 478.746 -264.169 470.146 -252.553 462.633C-216.862 439.441 -166.869 426.873 -130.419 407.134C-115.614 399.121 -102.79 391.498 -92.1504 381.464C-82.988 372.819 -75.988 362.821 -70.1308 352.366C-62.0914 337.889 -55.4407 321.932 -47.8384 307.773C-43.6469 299.956 -38.8971 292.613 -33.3274 285.885C-22.0055 272.199 -9.51477 262.075 5.67787 252.473C27.7176 238.539 56.5352 224.481 88.6318 210.2C91.96 208.721 95.2477 207.25 98.4993 205.775C133.783 189.65 154.405 176.395 176.6 169.404C199.551 162.173 227.766 160.322 265.117 156.499C276.179 155.37 287.978 154.06 300.226 152.56C322.693 149.803 346.551 146.393 369.65 142.28C404.495 135.994 437.362 127.997 461.742 120.957M-298.505 605.436C-309.043 581.562 -313.999 556.002 -308.127 530.216C-304.697 514.883 -297.095 499.392 -285.163 485.332C-277.374 476.159 -267.752 467.612 -256.304 460.106C-221.071 436.899 -171.96 423.859 -135.266 404.787C-120.147 396.929 -106.792 389.603 -95.6466 379.697C-86.0244 371.149 -78.6482 361.147 -72.5477 350.631C-64.179 336.086 -57.488 319.983 -50.2249 305.639C-46.2201 297.717 -41.7532 290.25 -36.5751 283.354C-25.9995 269.263 -14.4895 258.516 -0.128015 248.222C20.7456 233.262 48.8646 217.946 81.341 203.48C84.6977 201.987 88.0309 200.514 91.3139 199.053C127.006 183.092 149.445 171.264 172.337 165.844C196.299 160.17 224.565 160.106 262.244 157.271C273.437 156.429 285.372 155.34 297.757 153.974C320.521 151.465 344.681 148.033 368.024 143.634C403.274 136.911 436.382 127.874 460.602 119.439M-303.433 602.063C-313.612 578.293 -317.991 552.819 -311.785 527.196C-308.159 511.98 -300.479 496.639 -288.6 482.684C-280.851 473.585 -271.323 465.084 -260.053 457.589C-225.276 434.362 -177.038 420.869 -140.109 402.446C-124.667 394.743 -110.792 387.718 -99.1329 377.942C-89.0487 369.486 -81.2937 359.491 -74.9526 348.904C-66.2523 334.284 -59.5233 318.042 -52.6017 303.518C-48.7859 295.496 -44.6045 287.893 -39.8226 280.839C-29.9933 266.345 -19.4712 254.973 -5.93361 243.988C13.769 227.996 41.1943 211.428 74.0554 196.782C77.4406 195.275 80.812 193.8 84.1432 192.349C120.25 176.553 144.497 166.172 168.082 162.301C193.046 158.205 221.375 159.914 259.386 158.061C270.7 157.511 282.776 156.633 295.303 155.406C318.357 153.144 342.826 149.69 366.412 145.005C402.07 137.841 435.409 127.769 459.477 117.938M-308.365 598.685C-318.18 575.025 -321.99 549.636 -315.441 524.17C-311.62 509.077 -303.861 493.881 -292.034 480.031C-284.322 471 -274.9 462.55 -263.789 455.063C-229.468 431.816 -182.1 417.875 -144.949 400.099C-129.188 392.558 -114.796 385.828 -102.622 376.176C-92.0779 367.817 -83.9468 357.817 -77.3624 347.17C-68.3399 332.48 -61.5634 316.094 -54.9834 301.39C-51.3542 293.263 -47.463 285.534 -43.0654 278.314C-33.9896 263.415 -24.4483 251.42 -11.7368 239.748C6.79246 222.73 33.5263 204.904 66.772 190.079C70.1857 188.558 73.5955 187.081 76.9654 185.645C113.481 170.012 139.532 161.101 163.827 158.759C189.793 156.257 218.177 159.726 256.528 158.851C267.97 158.593 280.185 157.932 292.849 156.838C316.2 154.823 340.977 151.348 364.8 146.377C400.864 138.777 434.443 127.664 458.354 116.432M-313.298 595.306C-322.747 571.751 -325.996 546.452 -319.103 521.144C-315.086 506.168 -307.243 491.123 -295.484 477.377C-287.816 468.414 -278.483 460.015 -267.548 452.534C-233.692 429.273 -187.171 414.885 -149.801 397.746C-133.716 390.372 -118.803 383.926 -106.125 374.408C-95.1216 366.146 -86.6142 356.142 -79.7866 345.435C-70.4347 330.676 -63.6202 314.15 -57.37 299.257C-53.9225 291.031 -50.3263 283.17 -46.3155 275.788C-38.0003 260.483 -29.4397 247.865 -17.545 235.502C-0.186716 217.452 25.8462 198.374 59.4861 183.365C62.9306 181.825 66.3741 180.356 69.792 178.93C106.725 163.457 134.561 156.029 159.569 155.205C186.521 154.317 214.976 159.527 253.661 159.629C265.233 159.658 277.586 159.213 290.392 158.259C314.038 156.497 339.119 152.995 363.183 147.743C399.663 139.702 433.468 127.547 457.224 114.925M-318.233 591.932C-327.325 568.488 -329.998 543.274 -322.771 518.129C-318.557 503.269 -310.636 488.374 -298.93 474.734C-291.299 465.839 -282.071 457.492 -271.298 450.023C-237.898 426.742 -192.24 411.923 -154.649 395.415C-138.239 388.208 -122.807 382.052 -109.614 372.658C-98.1505 364.493 -89.2692 354.491 -82.1937 343.712C-72.5102 328.88 -65.6578 312.214 -59.7491 297.141C-56.4882 288.809 -53.1893 280.823 -49.5557 273.274C-42.0012 257.564 -34.4141 244.323 -23.3433 231.268C-7.16558 212.191 18.1831 191.856 52.2077 176.667C55.6879 175.114 59.1625 173.643 62.6191 172.231C99.9607 156.922 129.569 150.988 155.318 151.669C183.238 152.405 211.782 159.345 250.808 160.425C262.508 160.746 274.993 160.534 287.942 159.698C311.872 158.214 337.269 154.658 361.569 149.119C398.455 140.642 432.5 127.448 456.096 113.43M-323.166 588.554C-331.891 565.214 -333.997 540.091 -326.426 515.103C-322.018 500.366 -314.011 485.617 -302.365 472.081C-294.771 463.254 -285.638 454.953 -275.042 447.496C-242.1 424.201 -197.296 408.951 -159.487 393.063C-142.754 386.029 -126.802 380.157 -113.103 370.892C-101.18 362.824 -91.9222 352.817 -84.5963 341.979C-74.5834 327.078 -67.6907 310.267 -62.1213 295.009C-59.0493 286.578 -55.8055 278.476 -52.7914 270.749C-46.4992 254.599 -39.3912 240.769 -29.1371 227.024C-14.1376 206.915 10.5247 185.328 44.934 169.96C48.4426 168.393 51.9555 166.92 55.4602 165.517C93.2102 150.372 124.571 145.941 151.074 148.116C179.942 150.485 208.593 159.153 247.962 161.205C259.787 161.824 272.415 161.817 285.5 161.12C309.727 159.884 335.425 156.306 359.968 150.481C397.263 141.562 431.539 127.332 454.985 111.914M-328.099 585.175C-336.46 561.945 -337.996 536.907 -330.089 512.077C-325.485 497.457 -317.4 482.858 -305.814 469.427C-298.257 460.668 -289.221 452.419 -278.793 444.968C-246.307 421.653 -202.35 405.991 -164.341 390.715C-147.275 383.86 -130.806 378.266 -116.606 369.124C-104.223 361.153 -94.5919 351.148 -87.0182 340.239C-76.6831 325.268 -69.7431 308.313 -64.5151 292.875C-61.6298 284.338 -58.9161 276.095 -56.0464 268.217C-50.0227 251.702 -44.3876 237.209 -34.9525 222.777C-21.1407 201.641 2.84459 178.798 37.6336 163.244C41.1708 161.663 44.7219 160.188 48.2653 158.8C86.4308 143.82 119.531 140.891 146.795 144.561C176.592 148.572 205.361 158.956 245.072 161.981C257.019 162.892 269.786 163.101 283.014 162.538C307.531 161.549 333.538 157.949 358.323 151.844C396.023 142.489 430.542 127.214 453.826 110.405M-333.027 581.802C-341.022 558.678 -341.995 533.724 -333.747 509.057C-328.946 494.554 -320.784 480.105 -309.251 466.779C-301.731 458.088 -292.799 449.89 -282.542 442.452C-250.513 419.122 -207.411 403.046 -169.184 388.374C-151.79 381.697 -134.805 376.382 -120.092 367.369C-107.245 359.501 -97.2423 349.486 -89.4253 338.516C-78.7609 323.476 -71.7806 306.376 -66.8941 290.758C-64.1978 282.122 -61.7863 273.746 -59.289 265.708C-54.0426 248.792 -49.3738 233.677 -40.7531 218.549C-28.129 196.384 -4.8208 172.285 30.3529 156.552C33.9185 154.957 37.5081 153.48 41.0973 152.108C79.6734 137.286 114.5 135.868 142.549 141.03C173.268 146.683 202.167 158.791 242.224 162.783C254.299 163.986 267.206 164.406 280.572 163.977C305.387 163.235 331.702 159.614 356.723 153.222C394.839 143.427 429.581 127.115 452.713 108.91M-337.96 578.423C-345.598 555.408 -345.994 530.541 -337.409 506.031C-332.414 491.651 -324.166 477.347 -312.691 464.12C-305.208 455.498 -296.373 447.351 -286.283 439.919C-254.71 416.57 -212.452 400.092 -174.022 386.022C-156.296 379.53 -138.803 374.492 -123.579 365.597C-110.272 357.827 -99.8954 347.812 -91.8328 336.777C-80.8367 321.663 -73.8207 304.429 -69.2712 288.621C-66.7616 279.879 -64.6473 271.377 -62.5272 263.173C-58.0582 245.854 -54.3535 230.112 -46.5495 214.293C-35.1059 191.102 -12.4891 165.745 23.0765 149.833C26.6706 148.225 30.2985 146.745 33.9263 145.388C72.9107 130.729 109.453 130.817 138.293 137.471C169.92 144.765 198.959 158.591 239.366 163.556C251.567 165.057 264.608 165.688 278.124 165.393C303.229 164.898 329.853 161.256 355.118 154.578C393.64 144.346 428.623 126.994 451.597 107.389M-342.892 575.044C-350.164 552.135 -349.993 527.357 -341.065 503.006C-335.873 488.742 -327.547 474.589 -316.133 461.466C-308.687 452.912 -299.95 444.817 -290.034 437.391C-258.919 414.028 -217.508 397.154 -178.874 383.668C-160.819 377.366 -142.812 372.595 -127.075 363.83C-113.301 356.157 -102.548 346.139 -94.2475 335.038C-82.922 319.854 -75.8658 302.475 -71.6578 286.487C-69.3371 277.646 -67.5274 269.017 -65.7773 260.647C-62.0857 242.927 -59.3976 226.558 -52.3576 210.047C-42.1667 185.822 -20.162 159.216 15.7906 143.119C19.4204 141.497 23.0793 140.015 26.7553 138.667C66.1552 124.173 104.398 125.765 134.045 133.913C166.562 142.851 195.756 158.398 236.508 164.33C248.829 166.122 262.018 166.964 275.669 166.809C301.072 166.561 327.995 162.902 353.496 155.938C392.426 145.264 427.64 126.877 450.461 105.876M-347.828 571.671C-354.735 548.872 -354.001 524.179 -344.73 499.985C-339.342 485.839 -330.938 471.835 -319.577 458.818C-312.175 450.331 -303.535 442.288 -293.78 434.87C-263.121 411.487 -222.564 394.231 -183.715 381.322C-165.332 375.215 -146.787 370.724 -130.564 362.064C-116.316 354.506 -105.204 344.471 -96.6501 333.305C-84.9952 318.052 -77.8988 300.528 -74.0301 284.355C-71.896 275.409 -70.3836 266.654 -69.0179 258.116C-66.1059 240 -64.3747 223.004 -58.1586 205.802C-49.1504 180.555 -27.8277 152.687 8.50961 136.41C12.1702 134.769 15.8651 133.291 19.5797 131.957C59.3903 117.622 99.331 120.723 129.785 130.364C163.195 140.941 192.538 158.219 233.645 165.114C246.092 167.204 259.417 168.251 273.21 168.235C298.9 168.239 326.135 164.554 351.879 157.303C391.215 146.194 426.672 126.761 449.334 104.364M-352.76 568.292C-359.309 545.597 -358 520.995 -348.393 496.959C-342.808 482.93 -334.32 469.077 -323.019 456.164C-315.654 447.746 -307.111 439.754 -297.534 432.347C-267.33 408.945 -227.629 391.314 -188.564 378.98C-169.849 373.074 -150.801 368.838 -134.065 360.308C-119.357 352.847 -107.869 342.807 -99.0694 331.575C-87.0923 316.253 -79.9484 298.585 -76.4212 282.232C-74.4761 273.186 -73.2682 264.304 -72.2725 255.6C-70.1474 237.088 -69.3658 219.466 -63.9713 201.567C-56.1388 175.299 -35.5028 146.162 1.21193 129.706C4.90095 128.051 8.6342 126.571 12.3875 125.252C52.6063 111.08 94.2404 115.684 125.515 126.82C159.804 139.036 189.281 158.097 230.773 165.902C243.332 168.305 256.812 169.548 270.741 169.666C296.729 169.917 324.265 166.21 350.253 158.674C389.997 147.123 425.685 126.654 448.194 102.862M-357.696 564.919C-363.88 542.334 -362.002 517.817 -352.058 493.939C-346.279 480.031 -337.711 466.324 -326.47 453.515C-319.145 445.17 -310.695 437.22 -301.287 429.825C-271.542 406.408 -232.696 388.401 -193.419 376.632C-174.379 370.926 -154.812 366.947 -137.561 358.541C-122.4 351.176 -110.531 341.138 -101.486 329.841C-89.1777 314.445 -81.9981 296.642 -78.8101 280.104C-77.0516 270.953 -76.1506 261.949 -75.5226 253.074C-74.1866 234.171 -74.3524 215.917 -69.7795 197.321C-63.1226 170.032 -43.183 139.632 -6.07633 122.997C-2.35883 121.328 1.41048 119.851 5.21187 118.542C45.8462 104.535 89.1616 110.636 121.254 123.272C156.425 137.12 186.072 157.898 227.903 166.686C240.585 169.375 254.203 170.834 268.275 171.092C294.553 171.589 322.397 167.861 348.627 160.044C388.784 148.057 424.705 126.548 447.054 101.36M-362.621 561.541C-368.441 539.066 -366 514.634 -355.708 490.919C-349.74 477.128 -341.088 463.571 -329.9 450.868C-322.612 442.592 -314.266 434.692 -305.026 427.303C-275.736 403.867 -237.754 385.501 -198.255 374.291C-178.884 368.792 -158.812 365.062 -141.047 356.786C-125.427 349.518 -113.182 339.476 -103.891 328.113C-91.2532 312.648 -84.0333 294.701 -81.1846 277.977C-79.6079 268.727 -79.0352 259.6 -78.7605 250.555C-78.2448 231.263 -79.334 212.375 -75.5756 193.082C-70.0992 164.766 -50.8437 133.109 -13.3524 116.295C-9.59921 114.612 -5.79882 113.133 -1.9565 111.833C39.0862 97.99 84.0428 105.627 117.008 119.725C153.003 135.249 182.878 157.699 225.054 167.471C237.864 170.452 251.622 172.128 265.837 172.52C292.412 173.265 320.566 169.515 347.031 161.412C387.596 148.984 423.749 126.439 445.948 99.8497M-367.554 558.162C-376.181 522.811 -363.644 482.522 -333.342 448.215C-303.041 413.908 -255.317 385.959 -203.095 371.944C-183.397 366.656 -162.809 363.173 -144.529 355.02C-106.589 338.103 -87.9054 305.189 -83.5591 275.851C-79.2128 246.513 -85.6796 218.179 -81.3788 188.842C-77.078 159.505 -58.5117 126.586 -20.6334 109.586C23.4637 89.7926 75.8421 99.0715 112.753 116.182C149.664 133.293 179.668 157.505 222.196 168.261C259.339 177.655 304.439 175.652 345.412 162.783C386.386 149.913 422.771 126.327 444.815 98.3483M-366.432 549.046C-374.455 513.993 -361.584 474.196 -331.269 440.413C-300.952 406.625 -253.583 379.079 -201.831 365.615C-181.646 360.361 -160.54 357.359 -141.877 349.55C-104.04 333.719 -85.0483 301.961 -79.6102 273.647C-74.1649 245.334 -79.2158 217.691 -74.045 188.714C-68.8072 159.375 -50.9842 126.201 -13.6744 108.577C29.661 88.2073 82.2458 96.1787 119.649 112.757C157.053 129.335 187.063 154.119 228.069 165.54C263.522 175.412 306.834 173.785 346.244 161.967C385.654 150.149 421.065 128.037 443.04 101.152M-365.306 539.936C-372.73 505.18 -359.514 465.883 -329.189 432.612C-298.859 399.348 -251.834 372.217 -200.551 359.282C-179.873 354.067 -158.279 351.545 -139.199 344.071C-101.495 329.306 -82.1699 298.718 -75.6351 271.435C-69.098 244.146 -72.7069 217.185 -66.685 188.578C-60.5056 159.226 -43.4795 125.747 -6.67963 107.554C35.8256 86.5419 88.6829 93.2779 126.579 109.323C164.475 125.368 194.461 150.712 233.985 162.806C267.75 173.135 309.265 171.905 347.119 161.139C384.966 150.372 419.397 129.728 441.308 103.944M-364.184 530.82C-371.013 496.366 -357.453 457.557 -327.109 424.812C-296.764 392.066 -250.07 365.372 -199.273 352.954C-178.103 347.779 -156.034 345.735 -136.526 338.603C-98.9969 324.884 -79.2912 295.492 -71.6574 269.234C-64.0308 242.975 -66.1858 216.686 -59.3225 188.453C-52.4591 160.22 -35.95 125.34 0.308235 106.547C42.02 84.9288 95.1133 90.393 133.502 105.905C171.891 121.418 201.83 147.302 239.886 160.087C271.949 170.855 311.689 170.041 347.98 160.326C384.264 150.611 417.713 131.44 439.562 106.751M-363.062 521.705C-369.293 487.547 -355.393 449.232 -325.035 417.01C-294.678 384.788 -248.311 358.538 -198.007 346.62C-176.338 341.485 -153.821 339.911 -133.863 333.122C-96.5454 320.431 -76.4224 292.254 -67.6968 267.02C-58.9712 241.786 -59.6651 216.17 -51.9769 188.316C-43.864 158.926 -28.4398 124.926 7.28134 105.523C48.1974 83.3031 101.531 87.485 140.41 102.47C179.289 117.455 209.169 143.856 245.78 157.351C276.14 168.541 314.104 168.165 348.826 159.495C383.556 150.827 416.014 133.134 437.801 109.54M-361.933 512.59C-367.561 478.735 -353.318 440.907 -322.946 409.204C-292.573 377.502 -246.527 351.717 -196.719 340.288C-174.546 335.199 -151.608 334.087 -131.18 327.65C-94.1086 315.959 -73.5342 289.023 -63.7168 264.814C-53.8994 240.604 -53.1061 215.653 -44.6143 188.191C-35.5218 158.769 -20.9126 124.525 14.2764 104.517C54.3944 81.7012 107.968 84.6007 147.333 99.052C186.698 113.503 216.502 140.41 251.682 154.633C280.336 166.217 316.521 166.3 349.687 158.683C382.854 151.065 414.339 134.841 436.057 112.341M-360.812 503.474C-365.842 469.916 -351.258 432.582 -320.873 401.403C-290.487 370.224 -244.758 344.911 -195.449 333.959C-172.78 328.921 -149.423 328.26 -128.519 322.175C-91.7203 311.461 -70.6725 285.785 -59.7584 262.606C-48.8515 239.426 -46.5542 215.134 -37.2782 188.058C-27.1845 158.607 -13.407 124.121 21.24 103.497C60.5673 80.0861 114.375 81.7026 154.232 95.6211C194.089 109.539 223.79 136.927 257.559 151.901C284.509 163.858 318.92 164.423 350.524 157.857C382.128 151.29 412.631 136.539 434.286 115.135M-359.683 494.359C-364.117 461.103 -349.191 424.257 -318.785 393.603C-288.387 362.948 -242.966 338.124 -194.168 327.626C-170.993 322.645 -147.239 322.417 -125.841 316.696C-89.3349 306.935 -67.7892 282.548 -55.7833 260.393C-43.7774 238.239 -39.969 214.608 -29.9183 187.921C-18.8115 158.431 -5.87745 123.714 28.2276 102.473C66.7594 78.4782 120.807 78.7959 161.154 92.1868C201.504 105.572 231.092 133.411 263.465 149.172C288.718 161.469 321.349 162.548 351.39 157.033C381.43 151.518 410.951 138.24 432.545 117.931M-358.561 485.243C-362.398 452.284 -347.123 415.932 -316.71 385.796C-286.296 355.66 -241.182 331.336 -192.895 321.293C-169.22 316.368 -145.082 316.566 -123.172 311.222C-86.9859 302.389 -64.9154 279.316 -51.8177 258.186C-38.72 237.055 -35.3578 213.885 -22.5678 187.79C-8.2098 158.487 1.64752 123.318 35.2105 101.461C72.9542 76.8816 127.232 75.9051 168.075 88.7579C208.917 101.611 238.391 129.869 269.364 146.442C292.933 159.048 323.761 160.677 352.241 156.208C380.72 151.74 409.259 139.935 430.789 120.726M-357.432 476.128C-360.666 443.472 -345.056 407.607 -314.622 377.996C-284.188 348.384 -239.386 324.572 -191.607 314.96C-167.428 310.099 -142.912 310.705 -120.487 305.744C-84.6303 297.811 -62.0321 276.079 -47.8354 255.974C-33.6459 235.868 -28.8239 213.304 -15.2006 187.654C0.346607 158.372 9.18683 122.923 42.2052 100.438C79.1607 75.2752 133.669 73.0043 175.005 85.3242C216.338 97.6495 245.69 126.292 275.28 143.708C297.17 156.595 326.2 158.797 353.116 155.38C380.032 151.963 407.596 141.632 429.057 123.517M-356.311 467.012C-358.946 434.653 -342.996 399.282 -312.549 370.194C-282.1 341.101 -237.598 317.812 -190.344 308.631C-165.653 303.833 -140.777 304.835 -117.828 300.274C-82.3183 293.212 -59.1654 272.847 -43.8793 253.771C-28.5931 234.696 -20.1268 213.037 -7.85964 187.527C6.37719 157.916 16.7 122.536 49.1715 99.4293C85.3437 73.6885 140.08 70.1121 181.906 81.9045C223.732 93.6969 252.968 122.693 281.16 140.988C301.401 154.12 328.602 156.931 353.955 154.565C379.308 152.199 405.891 143.342 427.289 126.322M-355.189 457.896C-357.227 425.834 -340.928 390.957 -310.474 362.387C-280.012 333.818 -235.816 311.062 -189.068 302.292C-163.87 297.568 -138.637 298.939 -115.162 294.789C-80.0119 288.574 -56.2944 269.604 -39.9164 251.552C-23.5384 233.501 -13.4844 212.5 -0.511851 187.385C14.8074 157.729 24.2344 122.135 56.1541 98.4C91.5479 72.0872 146.505 67.2047 188.823 78.4643C231.142 89.7239 260.27 119.04 287.063 138.247C305.669 151.593 331.021 155.044 354.818 153.731C378.61 152.411 404.21 145.026 425.544 129.107M-354.06 448.781C-355.495 417.021 -338.863 382.637 -308.386 354.587C-277.909 326.537 -234.009 304.326 -187.79 295.964C-162.085 291.314 -136.497 293.042 -112.489 289.32C-77.6936 283.927 -53.4156 266.377 -35.9459 249.351C-18.4761 232.324 -6.82711 211.98 6.83634 187.258C23.2524 157.56 31.7597 121.756 63.1275 97.392C97.743 70.5072 152.921 64.3186 195.725 75.0446C238.536 85.7714 267.59 115.361 292.943 135.527C309.944 149.051 333.424 153.178 355.657 152.916C377.886 152.647 402.505 146.736 423.776 131.912M-352.941 439.671C-353.778 408.208 -336.805 374.317 -306.316 346.791C-275.826 319.265 -232.224 297.604 -186.522 289.641C-160.304 285.071 -134.372 287.127 -109.823 283.851C-75.395 279.255 -50.5514 263.15 -31.9826 247.148C-13.4161 231.152 -0.155464 211.462 14.1845 187.132C31.7118 157.392 39.2921 121.377 70.1033 96.3786C103.94 68.9219 159.341 61.4218 202.636 71.6204C245.932 81.8136 274.95 111.642 298.837 132.807C314.269 146.48 335.838 151.319 356.506 152.096C377.174 152.874 400.818 148.437 422.018 134.712M-351.812 430.555C-352.053 399.395 -334.731 365.993 -304.226 338.985C-273.723 311.983 -230.414 290.879 -185.232 283.304C-158.507 278.823 -132.218 281.182 -107.136 278.368C-73.066 274.548 -47.6563 259.904 -27.998 244.931C-8.33971 229.959 6.55685 210.936 21.554 186.991C40.2142 157.211 46.8509 120.989 77.1053 95.3566C110.176 67.3345 165.786 58.5216 209.575 68.1821C253.362 77.8478 282.386 107.87 304.755 130.068C318.653 143.859 338.272 149.433 357.384 151.263C376.496 153.093 399.15 150.128 420.288 137.498M-350.69 421.44C-350.334 390.576 -332.671 357.667 -302.153 331.184C-271.635 304.7 -228.619 284.17 -183.968 276.975C-156.729 272.585 -130.092 275.229 -104.484 272.898C-70.7684 269.827 -44.7991 256.675 -24.0491 242.728C-3.299 228.78 13.2406 210.424 28.8878 186.863C48.693 157.051 54.3833 120.61 84.0666 94.3419C116.371 65.7545 172.192 55.6235 216.471 64.7564C260.751 73.8893 289.836 104.065 310.63 127.342C323.03 141.221 340.669 147.561 358.218 150.442C375.767 153.323 397.439 151.832 418.516 140.297M-349.561 412.325C-348.602 381.763 -330.603 349.342 -300.065 323.383C-269.534 297.424 -226.814 277.472 -182.681 270.642C-154.929 266.349 -127.932 269.252 -101.799 267.42C-68.4305 265.082 -41.9159 253.439 -20.0668 240.516C1.77993 227.599 19.965 209.905 36.2549 186.728C57.2244 156.89 61.9469 120.228 91.0662 93.3252C122.612 64.1731 178.634 52.7287 223.406 61.3288C268.178 69.9288 297.398 100.227 316.551 124.614C327.504 138.565 343.112 145.688 359.098 149.62C375.083 153.552 395.776 153.529 416.79 143.089M-348.439 403.209C-346.882 372.944 -328.536 341.017 -297.99 315.577C-267.444 290.136 -225.023 270.773 -181.408 264.309C-153.148 260.123 -125.779 263.257 -99.1303 261.945C-66.1002 260.32 -39.0421 250.207 -16.1012 238.309C6.83732 226.416 26.692 209.398 43.6054 186.596C65.7536 156.734 69.4986 119.856 98.0443 92.3065C128.836 62.5956 185.054 49.8319 230.319 57.8991C275.584 65.9663 305.028 96.3514 322.442 121.883C331.99 135.882 345.52 143.811 359.942 148.795C374.364 153.778 394.082 155.228 415.027 145.883M-347.318 394.093C-345.165 364.131 -326.476 332.692 -295.91 307.776C-265.344 282.86 -223.223 264.085 -180.135 257.975C-151.367 253.896 -123.618 257.241 -96.4596 256.466C-63.7584 255.531 -36.1637 246.964 -12.1333 236.096C11.897 225.227 33.4357 208.886 50.9582 186.459C74.302 156.585 77.055 119.474 105.022 91.2878C135.062 61.0129 191.477 46.9298 237.232 54.4695C282.99 62.0039 312.756 92.4404 328.339 119.159C336.528 133.198 347.937 141.946 360.798 147.976C373.657 154.011 392.393 156.934 413.276 148.684M-346.189 384.978C-343.438 355.312 -324.408 324.367 -293.829 299.975C-263.248 275.578 -221.434 257.408 -178.856 251.647C-149.578 247.686 -121.445 251.216 -93.7863 250.998C-61.4022 250.744 -33.285 243.738 -8.16284 233.894C16.9593 224.05 40.1847 208.397 58.3064 186.333C82.8604 156.448 84.6212 119.103 112.005 90.2751C141.298 59.4421 197.902 44.039 244.143 51.0452C290.391 58.052 320.587 88.5168 334.228 116.434C341.11 130.502 350.349 140.075 361.647 147.156C372.945 154.237 390.699 158.634 411.518 151.484M-345.067 375.862C-341.711 346.494 -322.341 316.042 -291.754 292.168C-261.16 268.295 -219.645 250.731 -177.583 245.313C-147.797 241.476 -119.258 245.158 -91.1228 245.518C-59.0323 245.925 -30.4233 240.5 -4.20445 231.686C22.0144 222.872 46.9287 207.901 65.6473 186.206C91.4285 156.324 92.173 118.731 118.974 89.2611C147.522 57.8647 204.313 41.1468 251.047 47.6202C297.78 54.0936 328.523 84.5753 340.118 113.708C345.727 127.809 352.754 138.204 362.496 146.337C372.238 154.47 389.003 160.339 409.759 154.284M-343.938 366.747C-339.987 337.681 -320.273 307.717 -289.666 284.368C-259.06 261.019 -217.839 244.066 -176.303 238.98C-146.011 235.272 -117.052 239.091 -88.4472 240.044C-56.6385 241.103 -27.54 237.263 -0.231668 229.479C27.079 221.689 53.6969 207.419 73.005 186.075C100.03 156.207 99.7558 118.357 125.957 88.2483C153.765 56.2946 210.741 38.2506 257.967 44.1912C305.193 50.1317 336.602 80.6304 346.016 110.979C350.404 125.116 355.175 136.328 363.354 145.513C371.526 154.697 387.325 162.035 408.01 157.08M-342.817 357.631C-338.267 328.862 -318.215 299.397 -287.593 276.566C-256.971 253.736 -216.057 237.405 -175.032 232.652C-144.231 229.083 -114.839 233.009 -85.7787 234.57C-54.2306 236.265 -24.6663 234.031 3.73391 227.271C32.1436 220.507 60.4652 206.937 80.3555 185.944C108.63 156.096 107.329 117.987 132.942 87.2303C160.02 54.7145 217.169 35.3545 264.887 40.7622C312.606 46.17 344.802 76.6855 351.923 108.249C355.12 122.438 357.604 134.453 364.212 144.689C370.83 154.919 385.638 163.736 406.262 159.875M-341.69 348.521C-336.538 320.055 -316.143 291.078 -285.506 268.766C-254.871 246.46 -214.264 230.75 -173.745 226.32C-142.438 222.896 -112.593 226.901 -83.0936 229.092C-51.7892 231.419 -21.783 230.794 7.7162 225.06C37.2154 219.325 67.2528 206.463 87.7227 185.808C117.263 155.994 114.922 117.608 139.934 86.213C166.289 53.1357 223.603 32.459 271.815 37.3339C320.026 42.2088 353.128 72.7576 357.829 105.52C359.873 119.779 360.023 132.583 365.078 143.865C370.133 155.147 383.959 165.437 404.52 162.671M-340.568 339.405C-334.818 311.236 -314.083 282.752 -283.433 260.965C-252.783 239.177 -212.488 224.104 -172.481 219.991C-140.67 216.718 -110.35 220.783 -80.4347 223.622C-49.3529 226.568 -18.9186 227.567 11.6795 222.857C42.2705 218.147 74.024 206.008 95.0708 185.682C125.887 155.913 122.502 117.239 146.91 85.1996C172.535 51.5603 230.024 29.5622 278.725 33.9096C327.427 38.2569 361.545 68.8656 363.716 102.8C364.635 117.149 362.433 130.718 365.924 143.051C369.416 155.384 382.262 167.142 402.759 165.477M-339.447 330.29C-333.101 302.422 -312.023 274.427 -281.353 253.164C-250.69 231.9 -210.706 217.459 -171.201 213.658C-138.89 210.546 -108.078 214.651 -77.764 218.143C-46.8808 221.703 -16.0402 224.324 15.6474 220.644C47.3374 216.959 80.8047 205.55 102.416 185.544C134.516 155.838 130.136 116.869 153.888 84.1809C178.843 49.996 236.444 26.6655 285.639 30.48C334.833 34.2945 370.06 65.0045 369.615 100.071C369.434 114.539 364.855 128.842 366.783 142.227C368.711 155.612 380.583 168.843 401.01 168.272M-338.318 321.175C-331.374 293.604 -309.948 266.102 -279.27 245.357C-248.585 224.613 -208.926 210.82 -169.92 207.324C-137.115 204.385 -105.782 208.498 -75.0884 212.669C-44.3943 216.84 -13.1665 221.092 19.6202 218.437C52.3997 215.782 87.5881 205.102 109.774 185.413C143.17 155.775 137.687 116.48 160.874 83.1629C185.066 48.4021 242.872 23.7693 292.552 27.0503C342.239 30.332 378.652 61.1891 375.506 97.34C374.233 111.962 367.262 126.966 367.634 141.402C368.001 155.833 378.889 170.543 399.254 171.067M468.819 225.405C464.042 202.146 429.155 189.496 394.13 192.409C359.103 195.327 325.064 210.652 296.75 228.669C268.436 246.685 244.276 267.663 216.955 286.431C191.875 303.654 146.35 327.544 115.954 314.308C100.674 307.656 94.936 292.536 102.533 278.943C108.397 268.456 120.661 260.447 127.001 250.14C134.122 238.563 136.889 226.13 134.625 214.768C124.765 165.133 7.99592 157.723 24.0806 99.3205C36.2036 55.3167 125.21 25.1872 177.688 12.8135C252.706 -4.87443 326.011 -2.00931 392.598 13.3893C421.256 20.0156 455.083 27.6921 471.875 45.3688C472.245 45.7438 472.595 46.1281 472.938 46.5117C481.327 55.9025 485.056 67.619 483.905 79.7095C482.615 93.2292 480.526 105.636 480.5 119.243C480.471 136.824 480.438 154.411 480.416 171.992L468.814 225.399L468.819 225.405Z" stroke="#497CF2" stroke-opacity="0.22" stroke-miterlimit="10"/>
</svg>
