<svg width="728" height="723" viewBox="0 0 728 723" fill="none" xmlns="http://www.w3.org/2000/svg">
<path d="M610.266 219.438C600.065 198.813 582.091 173.972 554.787 145.301C484.63 71.6406 372.903 22.4652 250.134 39.0818L70.152 114.69C28.2265 132.3 0.847534 173.335 0.931835 218.811C1.00677 259.06 3.68565 296.283 8.63129 330.715C8.72496 330.256 32.2354 210.484 181.344 154.386C316.394 103.581 428.87 175.246 484.855 219.57C490.802 224.281 496.113 228.683 500.75 232.599C548.989 273.344 580.498 300.376 606.997 283.863C623.173 273.775 626.283 251.8 610.275 219.438H610.266Z" fill="url(#paint0_linear_3545_4643)"/>
<path d="M484.854 219.578C428.86 175.246 316.394 103.59 181.344 154.395C32.235 210.483 8.71516 330.256 8.63086 330.724C16.7237 387.056 30.9049 435.884 49.807 478.175C41.9015 305.518 243.174 146.677 451.968 255.153C467.301 258.385 478.588 257.598 484.414 247.285C491.598 234.574 486.465 222.707 484.854 219.578Z" fill="url(#paint1_linear_3545_4643)"/>
<path d="M318.352 293.651H318.362H318.352Z" stroke="#FF0000" stroke-miterlimit="10"/>
<path d="M49.7977 478.176C92.6131 573.988 159.613 636.202 234.688 675.842C132.253 600.224 107.525 358.984 318.351 293.651C352.961 242.799 404.741 241.412 429.647 249.056C437.777 251.557 445.252 253.739 451.958 255.153C243.164 146.677 41.8922 305.518 49.7977 478.176Z" fill="url(#paint2_linear_3545_4643)"/>
<path d="M656.013 443.631C634.956 433.13 622.536 448.417 595.522 447.452C568.509 446.497 561.334 429.281 557.746 419.483C554.159 409.676 549.138 381.464 505.621 381.464C462.103 381.464 447.519 427.145 385.595 427.126C347.772 427.126 317.874 408.206 305.304 380.424C290.766 459.779 394.194 608.457 670.934 488.947C675.608 470.775 674.278 452.726 656.003 443.621L656.013 443.631Z" fill="url(#paint3_linear_3545_4643)"/>
<path d="M266.076 541.026C204.621 460.799 215.786 331.501 318.361 293.641C107.535 358.964 132.263 600.214 234.698 675.832C276.295 697.797 320.366 712.83 364.183 722.815C458.132 701.412 553.26 656.789 622.583 570.456C443.445 670.642 314.961 604.841 266.076 541.026Z" fill="url(#paint4_linear_3545_4643)"/>
<path d="M658.204 114.699L407.934 9.55765C379.946 -2.1976 348.409 -2.1976 320.421 9.55765L250.133 39.091C372.903 22.465 484.638 71.6404 554.786 145.31C582.09 173.981 600.064 198.822 610.265 219.448C624.184 233.151 649.418 256.765 670.409 269.681C701.15 288.602 724.361 275.789 727.152 239.352C727.321 232.598 727.415 225.761 727.433 218.82C727.518 173.344 700.139 132.309 658.213 114.699H658.204Z" fill="url(#paint5_linear_3545_4643)"/>
<path d="M305.313 380.434C295.712 359.209 296.208 332.804 311.008 305.678C313.349 301.388 315.803 297.389 318.351 293.651C215.776 331.493 204.611 460.801 266.066 541.027C314.951 604.843 443.434 670.644 622.573 570.457C638.253 550.928 652.612 529.262 665.342 505.255C667.561 499.973 669.519 494.456 670.934 488.957C394.184 608.458 290.757 459.78 305.303 380.434H305.313Z" fill="url(#paint6_linear_3545_4643)"/>
<defs>
<linearGradient id="paint0_linear_3545_4643" x1="643.115" y1="240.158" x2="27.5521" y2="167.125" gradientUnits="userSpaceOnUse">
<stop offset="0.14" stop-color="#75E4DA"/>
<stop offset="1" stop-color="#64D6D5"/>
</linearGradient>
<linearGradient id="paint1_linear_3545_4643" x1="-26.0916" y1="408.702" x2="406.558" y2="156.578" gradientUnits="userSpaceOnUse">
<stop offset="0.18" stop-color="#4AB5CF"/>
<stop offset="1" stop-color="#5BC9D1"/>
</linearGradient>
<linearGradient id="paint2_linear_3545_4643" x1="91.3579" y1="639.574" x2="309.032" y2="229.995" gradientUnits="userSpaceOnUse">
<stop offset="0.18" stop-color="#3A95C3"/>
<stop offset="1" stop-color="#3E97C4"/>
</linearGradient>
<linearGradient id="paint3_linear_3545_4643" x1="283.039" y1="414.959" x2="672.695" y2="496.993" gradientUnits="userSpaceOnUse">
<stop stop-color="#40A7CD"/>
<stop offset="1" stop-color="#3C94C6"/>
</linearGradient>
<linearGradient id="paint4_linear_3545_4643" x1="135.054" y1="362.608" x2="496.507" y2="675.354" gradientUnits="userSpaceOnUse">
<stop offset="0.29" stop-color="#357DB8"/>
<stop offset="1" stop-color="#315BAF"/>
</linearGradient>
<linearGradient id="paint5_linear_3545_4643" x1="278.57" y1="-7.41487" x2="732.417" y2="227.334" gradientUnits="userSpaceOnUse">
<stop offset="0.14" stop-color="#64D8D3"/>
<stop offset="1" stop-color="#53BBCD"/>
</linearGradient>
<linearGradient id="paint6_linear_3545_4643" x1="234.528" y1="380.996" x2="603.671" y2="604.027" gradientUnits="userSpaceOnUse">
<stop stop-color="#3E9FC7"/>
<stop offset="1" stop-color="#3871B8"/>
</linearGradient>
</defs>
</svg>
