<svg width="402" height="448" viewBox="0 0 402 448" fill="none" xmlns="http://www.w3.org/2000/svg">
<path opacity="0.36" d="M-146.496 447.476C-155.273 426.551 -161.247 404.841 -156.518 383.725C-153.668 370.965 -146.439 358.383 -134.775 347.9C-127.164 341.061 -117.653 335.116 -106.241 330.601C-71.7171 316.935 -23.6984 317.21 5.81225 300.005C16.2847 293.899 23.358 286.373 28.9395 278.154C33.6767 271.2 37.3051 263.774 41.0857 256.528C46.3839 246.345 52.9472 235.731 63.0489 227.317C68.6141 222.681 75.2671 218.704 83.4103 215.816C99.2688 210.139 117.595 209.52 136.509 209.93C163.727 210.502 192.297 213.138 216.105 206.404C218.651 205.681 221.14 204.853 223.559 203.9C250.273 193.372 256.116 172.605 269.92 156.276C283.454 140.265 306.895 127.627 335.353 120.427C343.586 118.356 352.235 116.733 361.166 115.617C377.258 113.617 394.124 113.268 410.707 114.426C435.349 116.141 459.324 121.161 479.164 129.213M-150.041 444.347C-158.541 423.544 -164.078 401.958 -159.093 381.001C-156.1 368.352 -148.827 355.894 -137.216 345.487C-129.642 338.697 -120.22 332.781 -108.936 328.255C-74.7773 314.525 -27.4942 314.297 2.2267 297.685C12.9029 291.717 20.3918 284.494 26.3632 276.424C31.4549 269.592 35.3825 262.203 39.3631 254.935C44.9305 244.733 51.5418 234.011 61.392 225.422C66.8206 220.685 73.2757 216.603 81.1133 213.523C96.4497 207.497 114.031 206.255 132.367 206.043C158.764 205.702 186.926 207.288 211.056 200.45C213.632 199.72 216.146 198.894 218.6 197.957C245.626 187.6 252.612 168.108 266.933 153.086C280.962 138.368 304.36 127.103 332.998 120.739C341.289 118.896 350.038 117.463 359.061 116.469C375.356 114.69 392.475 114.357 409.275 115.322C434.288 116.741 458.569 120.98 478.435 127.933M-153.589 441.221C-161.815 420.537 -166.905 399.081 -161.665 378.281C-158.528 365.743 -151.211 353.41 -139.659 343.078C-132.123 336.337 -122.783 330.45 -111.639 325.911C-77.8423 312.123 -31.2811 311.391 -1.36451 295.363C9.51536 289.533 17.4142 282.613 23.7846 274.698C29.225 267.988 33.4552 260.639 37.638 253.345C43.4747 243.124 50.1339 232.294 59.7351 223.526C65.0246 218.692 71.272 214.489 78.8139 211.234C93.6127 204.842 110.46 202.992 128.226 202.156C153.796 200.901 181.556 201.439 206.011 194.501C208.611 193.763 211.156 192.939 213.639 192.017C240.971 181.83 249.108 163.61 263.939 149.898C278.464 136.471 301.827 126.606 330.629 121.053C338.989 119.441 347.819 118.197 356.942 117.322C373.446 115.766 390.807 115.447 407.832 116.216C433.218 117.335 457.797 120.795 477.698 126.648M-157.134 438.092C-165.083 417.531 -169.73 396.2 -164.24 375.557C-160.961 363.13 -153.592 350.922 -142.1 340.665C-134.6 333.973 -125.344 328.116 -114.336 323.569C-80.8993 309.718 -35.0592 308.492 -4.95251 293.047C6.13672 287.356 14.4197 280.728 21.2059 272.971C26.9806 266.375 31.5359 259.072 35.9153 251.752C42.0212 241.512 48.7284 230.573 58.0782 221.631C63.2311 216.696 69.274 212.377 76.5169 208.941C90.7805 202.179 106.901 199.75 124.087 198.266C148.836 196.128 176.188 195.585 200.971 188.544C203.595 187.799 206.171 186.977 208.689 186.072C236.329 176.05 245.619 159.099 260.96 146.706C275.993 134.561 299.312 126.099 328.283 121.363C336.708 119.985 345.631 118.925 354.845 118.171C371.552 116.836 389.16 116.533 406.411 117.105C432.167 117.928 457.054 120.604 476.981 125.361M-160.681 434.966C-168.351 414.525 -172.563 393.321 -166.818 372.836C-163.397 360.524 -155.982 348.437 -144.544 338.256C-137.081 331.613 -127.91 325.781 -117.038 321.225C-83.9619 307.312 -38.8259 305.595 -8.54934 290.725C2.75489 285.174 11.4332 278.841 18.6159 271.242C24.7394 264.768 29.5972 257.506 34.1789 250.16C40.5508 239.895 47.3068 228.858 56.41 219.733C61.4295 214.703 67.2615 210.258 74.2005 206.649C87.9257 199.511 103.316 196.488 119.929 194.375C143.86 191.329 170.801 189.731 195.909 182.591C198.557 181.838 201.161 181.023 203.713 180.125C231.665 170.273 242.121 154.581 257.951 143.511C273.495 132.642 296.771 125.596 325.905 121.67C334.397 120.527 343.403 119.652 352.722 119.019C369.633 117.905 387.489 117.618 404.957 117.996C431.086 118.519 456.271 120.416 476.23 124.077M-164.221 431.838C-171.619 411.519 -175.38 390.437 -169.382 370.114C-165.818 357.913 -158.358 345.95 -146.979 335.844C-139.553 329.25 -130.465 323.448 -119.727 318.88C-87.0132 304.909 -42.5701 302.703 -12.1293 288.406C-0.610021 282.995 8.46698 276.962 16.051 269.515C22.5232 263.162 27.6859 255.937 32.4756 248.567C39.1168 238.283 45.9208 227.137 54.7725 217.838C59.6553 212.706 65.2797 208.14 71.9229 204.356C85.1177 196.84 99.7755 193.228 115.806 190.488C138.926 186.536 165.444 183.88 190.883 176.642C193.562 175.883 196.19 175.068 198.777 174.187C227.036 164.505 238.675 150.061 254.987 140.326C271.065 130.728 294.274 125.102 323.567 121.986C332.133 121.075 341.223 120.386 350.634 119.875C367.753 118.983 385.852 118.71 403.544 118.892C430.05 119.12 455.535 120.235 475.524 122.793M-167.766 428.709C-174.885 408.509 -178.205 387.556 -171.957 367.39C-168.25 355.3 -160.739 343.463 -149.42 333.431C-142.031 326.886 -133.026 321.114 -122.43 316.537C-90.0758 302.503 -46.3223 299.813 -15.7205 286.085C-3.983 280.82 5.49185 275.077 13.4667 267.787C20.2901 261.552 25.7529 254.372 30.7449 246.977C37.6553 236.673 44.5072 225.419 53.1099 215.941C57.8537 210.713 63.2728 206.022 69.6179 202.065C82.2767 194.171 96.2097 189.966 111.659 186.6C133.961 181.74 160.068 178.029 185.83 170.687C188.532 169.919 191.191 169.107 193.807 168.241C222.38 158.726 235.213 145.538 251.983 137.132C268.612 128.801 291.738 124.599 321.196 122.294C329.828 121.618 339.005 121.099 348.512 120.723C365.835 120.031 384.18 119.795 402.098 119.78C428.976 119.709 454.759 120.045 474.781 121.506M-171.313 425.583C-178.155 405.506 -181.038 384.678 -174.537 364.673C-170.69 352.698 -163.131 340.981 -151.866 331.026C-144.519 324.529 -135.597 318.787 -125.13 314.198C-93.1376 300.106 -50.0592 296.941 -19.3165 283.771C-7.35835 278.648 2.50948 273.204 10.8856 266.064C18.0579 259.951 23.8256 252.808 29.0174 245.391C36.197 235.068 43.0969 223.706 51.4482 214.053C56.0554 208.724 61.2668 203.913 67.3161 199.78C79.4388 191.507 92.6472 186.71 107.516 182.717C129.002 176.945 154.695 172.183 180.782 164.741C183.511 163.962 186.198 163.157 188.849 162.307C217.728 152.961 231.79 141.023 248.995 133.955C266.193 126.89 289.226 124.12 318.839 122.619C327.543 122.179 336.805 121.846 346.408 121.584C363.94 121.114 382.532 120.893 400.667 120.685C427.916 120.318 454.007 119.869 474.054 120.236M-174.858 422.454C-181.421 402.496 -183.863 381.796 -177.112 361.949C-173.122 350.085 -165.513 338.493 -154.312 328.612C-147.003 322.164 -138.164 316.451 -127.836 311.849C-96.2034 297.695 -53.7912 294.06 -22.911 281.445C-10.7232 276.469 -0.468953 271.314 8.29806 264.332C15.8247 258.341 21.8893 251.237 27.2859 243.791C34.7315 233.444 41.6826 221.979 49.7824 212.151C54.2505 206.726 59.2534 201.784 65.0078 197.485C76.5937 188.824 89.0782 183.443 103.365 178.824C124.036 172.14 149.316 166.327 175.728 158.786C178.481 157.999 181.199 157.196 183.881 156.358C213.067 147.181 228.374 136.497 245.994 130.758C263.786 124.96 286.696 123.619 316.464 122.923C325.234 122.717 334.582 122.566 344.282 122.426C362.02 122.174 380.858 121.973 399.217 121.568C426.839 120.901 453.228 119.673 473.31 118.939M-178.403 419.324C-184.695 399.489 -186.688 378.915 -179.682 359.226C-175.548 347.473 -167.895 336.006 -156.748 326.2C-149.475 319.801 -140.719 314.119 -130.527 309.508C-99.2571 295.295 -57.5054 291.192 -26.4933 279.13C-14.0817 274.301 -3.43519 269.435 5.72507 262.607C13.6029 256.733 19.97 249.671 25.5664 242.203C33.2812 231.837 40.2779 220.268 48.1312 210.257C52.4626 204.731 57.2603 199.664 62.7165 195.193C73.7631 186.148 85.5261 180.18 99.2295 174.938C119.087 167.339 143.951 160.478 170.691 152.834C173.468 152.04 176.217 151.239 178.928 150.416C208.425 141.41 224.991 131.991 243.013 127.569C261.417 123.052 284.189 123.131 314.115 123.236C322.957 123.267 332.391 123.297 342.188 123.281C360.135 123.251 379.214 123.064 397.793 122.462C425.792 121.5 452.481 119.49 472.59 117.657M-181.951 416.199C-187.963 396.483 -189.515 376.038 -182.259 356.505C-177.985 344.867 -170.287 333.524 -159.191 323.791C-151.955 317.441 -143.286 311.783 -133.23 307.165C-102.32 292.889 -61.2221 288.328 -30.0902 276.808C-17.4458 272.131 -6.41845 267.553 3.14072 260.879C11.373 255.129 18.037 248.106 23.8438 240.61C31.8278 230.224 38.8724 218.547 46.4743 208.362C50.6667 202.738 55.2501 197.541 60.417 192.904C70.9211 183.47 81.9604 176.918 95.0881 171.051C114.133 162.536 138.575 154.627 165.646 146.885C168.453 146.084 171.227 145.284 173.972 144.478C203.779 135.637 221.623 127.502 240.024 124.383C259.052 121.157 281.668 122.645 311.758 123.552C320.669 123.823 330.186 124.03 340.081 124.136C358.23 124.328 377.557 124.156 396.359 123.362C424.73 122.1 451.72 119.307 471.862 116.378M-185.496 413.07C-191.231 393.477 -192.346 373.155 -184.834 353.781C-180.417 342.254 -172.668 331.037 -161.638 321.377C-154.439 315.075 -145.852 309.448 -135.93 304.817C-105.382 290.483 -64.9331 285.466 -33.6814 274.487C-20.8042 269.963 -9.38794 265.669 0.55883 259.147C9.14554 253.52 16.1088 246.533 22.1155 239.016C30.3688 228.611 37.4614 216.825 44.8142 206.462C48.8699 200.737 53.2424 195.413 58.1168 190.606C68.0728 180.782 78.4018 173.645 90.9458 167.156C109.178 157.725 133.204 148.769 160.597 140.922C163.428 140.113 166.238 139.317 169.007 138.525C199.12 129.853 218.249 123.011 237.031 121.183C256.69 119.268 279.149 122.147 309.391 123.853C318.374 124.359 327.975 124.752 337.963 124.977C356.322 125.39 375.891 125.233 394.918 124.242C423.66 122.684 450.955 119.11 471.124 115.083M-189.038 409.945C-194.499 390.47 -195.165 370.275 -187.406 351.061C-182.846 339.645 -175.052 328.553 -164.075 318.969C-156.916 312.721 -148.41 307.119 -138.63 302.479C-108.442 288.082 -68.6368 282.622 -37.2694 272.17C-24.1537 267.801 -12.3566 263.794 -2.01662 257.426C6.92692 251.918 14.1904 244.975 20.396 237.428C28.9209 226.999 36.0591 215.11 43.1605 204.571C47.0772 198.75 51.2379 193.291 55.8149 188.321C65.2228 178.106 74.836 170.384 86.8019 163.273C104.217 152.921 127.831 142.923 155.549 134.977C158.405 134.16 161.245 133.366 164.052 132.587C194.476 124.086 214.881 118.553 234.042 117.997C254.323 117.408 276.637 121.667 307.034 124.169C316.081 124.914 325.77 125.485 335.855 125.832C354.417 126.467 374.234 126.325 393.486 125.138C422.601 123.28 450.194 118.928 470.396 113.803M-192.583 406.816C-197.767 387.464 -197.99 367.394 -189.976 348.338C-185.275 337.037 -177.434 326.065 -166.511 316.557C-159.388 310.358 -150.97 304.785 -141.319 300.134C-111.491 285.674 -72.3267 279.777 -40.8549 269.85C-27.5033 265.639 -15.3285 261.914 -4.59286 255.696C4.70512 250.31 12.2678 243.403 18.6734 235.834C27.4619 225.385 34.6536 213.389 41.5036 202.676C45.2836 196.754 49.2278 191.167 53.518 186.028C62.372 175.422 71.2751 167.114 82.6606 159.386C99.2574 148.117 122.46 137.073 150.504 129.028C153.384 128.203 156.255 127.412 159.091 126.648C189.821 118.316 211.498 114.109 231.053 114.811C251.955 115.561 274.117 121.19 304.676 124.485C313.793 125.47 323.568 126.223 333.748 126.688C352.519 127.545 372.583 127.419 392.054 126.034C421.539 123.88 449.438 118.747 469.67 112.52M-196.128 403.687C-201.033 384.454 -200.82 364.512 -192.551 345.614C-187.707 334.424 -179.815 323.577 -168.957 314.143C-161.877 307.991 -153.537 302.45 -144.025 297.785C-114.565 283.266 -76.0247 276.935 -44.4494 267.524C-30.8584 263.476 -18.3013 260.026 -7.18042 253.963C2.47199 248.7 10.334 241.829 16.9394 234.239C25.9971 223.77 33.2345 211.67 39.8435 200.775C43.4901 194.758 47.2145 189.039 51.2154 183.733C59.5099 172.734 67.7028 163.843 78.5159 155.494C94.2965 143.305 117.081 131.217 145.459 123.07C148.364 122.233 151.262 121.452 154.134 120.701C185.179 112.536 208.109 109.663 228.063 111.615C249.57 113.719 271.596 120.704 302.313 124.791C311.501 126.012 321.362 126.947 331.639 127.534C350.617 128.618 370.925 128.502 390.619 126.925C420.483 124.473 448.676 118.555 468.939 111.235M-199.676 400.561C-204.309 381.451 -203.648 361.635 -195.131 342.897C-190.143 331.818 -182.207 321.096 -171.403 311.738C-164.36 305.635 -156.108 300.122 -146.727 295.45C-117.626 280.869 -79.7235 274.115 -48.0422 265.216C-34.2119 261.331 -21.2748 258.159 -9.75826 252.246C0.248589 247.106 8.40745 240.274 15.2176 232.655C24.5469 222.163 31.8299 209.958 38.1874 198.889C41.6974 192.77 45.1995 186.923 48.9192 181.449C56.6543 170.058 64.1427 160.582 74.3777 151.612C89.334 138.505 111.714 125.372 140.417 117.126C143.352 116.283 146.275 115.503 149.176 114.767C180.527 106.771 204.7 105.24 225.078 108.435C247.173 111.897 269.08 120.233 299.959 125.112C309.216 126.573 319.157 127.702 329.535 128.395C348.707 129.725 369.272 129.6 389.185 127.825C419.419 125.076 447.919 118.378 468.209 109.959M-203.221 397.432C-207.574 378.441 -206.473 358.753 -197.701 340.174C-192.572 329.21 -184.583 318.609 -173.838 309.326C-166.832 303.272 -158.661 297.786 -149.421 293.104C-120.683 278.464 -83.4118 271.288 -51.6254 262.892C-37.5582 259.174 -24.2386 256.276 -12.3345 250.515C-1.97324 245.498 6.48488 238.703 13.5005 231.063C23.0991 220.552 30.43 208.239 36.5386 196.991C39.9095 190.776 43.3806 184.833 46.6278 179.158C53.4089 167.294 60.5818 157.313 70.2443 147.723C84.3787 133.693 106.351 119.519 135.38 111.174C138.34 110.323 141.293 109.546 144.231 108.822C175.888 100.996 201.288 100.811 222.099 105.242C244.767 110.068 266.568 119.753 297.612 125.422C306.937 127.126 316.968 128.429 327.438 129.244C346.818 130.796 367.625 130.685 387.763 128.714C418.371 125.666 447.168 118.189 467.493 108.669M-206.766 394.302C-210.842 375.435 -209.298 355.872 -200.276 337.449C-195.004 326.596 -186.971 316.12 -176.285 306.912C-169.316 300.907 -161.227 295.45 -152.122 290.757C-123.743 276.054 -87.0992 268.47 -55.2222 260.57C-40.9093 257.025 -27.2105 254.396 -14.922 248.783C-4.20634 243.888 4.54864 237.132 11.769 229.463C21.6312 218.932 29.0157 206.512 34.8728 195.089C38.1071 188.773 41.1728 182.666 44.322 176.858C50.9301 164.684 57.0063 154.036 66.094 143.83C79.3985 128.881 100.972 113.663 130.323 105.214C133.307 104.355 136.29 103.58 139.258 102.872C171.227 95.2158 197.842 96.3748 219.092 102.043C242.317 108.239 264.022 119.266 295.231 125.724C304.62 127.667 314.737 129.152 325.307 130.086C344.89 131.859 365.945 131.764 386.306 129.6C417.284 126.256 446.389 117.994 466.739 107.38M-210.308 391.178C-214.105 372.43 -212.123 352.991 -202.848 334.73C-197.433 323.988 -189.355 313.636 -178.723 304.504C-171.79 298.548 -163.791 293.12 -154.821 288.418C-126.805 273.657 -90.7939 265.664 -58.8102 258.253C-44.2572 254.882 -30.1792 252.522 -17.4975 247.061C-6.42407 242.295 2.62693 235.57 10.0471 227.879C20.1786 217.328 27.611 204.8 33.2168 193.203C36.312 186.79 39.1522 180.549 42.0234 174.578C48.0584 162.012 53.4357 150.782 61.9535 139.952C74.4279 124.083 95.6025 107.822 125.278 99.2737C128.287 98.4072 131.301 97.6344 134.303 96.9426C166.581 89.4523 194.401 91.9617 216.11 98.8673C239.886 106.431 261.504 118.807 292.88 126.05C302.339 128.233 312.545 129.896 323.208 130.948C343.001 132.943 364.303 132.864 384.883 130.502C416.24 126.86 445.637 117.818 466.02 106.106M-213.853 388.049C-217.379 369.422 -214.948 350.11 -205.423 332.006C-199.868 321.379 -191.736 311.149 -181.161 302.087C-174.266 296.18 -166.349 290.782 -157.514 286.068C-129.857 271.245 -94.4724 262.853 -62.3934 255.93C-47.5969 252.735 -33.1454 250.643 -20.0713 245.327C-8.64347 240.684 0.704395 233.998 8.32689 226.282C18.73 215.708 26.2056 203.079 31.5647 191.3C34.5232 184.786 37.1413 178.416 39.7312 172.278C45.1931 159.32 49.8739 147.504 57.8193 136.053C69.4695 119.267 90.2337 101.96 120.24 93.3131C123.273 92.4387 126.318 91.6684 129.349 90.9919C161.933 83.6708 190.949 87.5243 213.123 95.6684C237.438 104.597 258.978 118.32 290.525 126.353C300.05 128.78 310.339 130.62 321.108 131.792C341.103 134.009 362.653 133.944 383.458 131.387C415.186 127.448 444.889 117.625 465.302 104.811M-217.398 384.919C-220.644 366.412 -217.773 347.229 -207.993 329.282C-202.294 318.767 -194.118 308.661 -183.602 299.674C-176.744 293.816 -168.91 288.448 -160.214 283.721C-132.92 268.839 -98.1638 260.051 -65.9878 253.603C-50.9504 250.59 -36.1206 248.758 -22.6532 243.596C-10.8653 239.076 -1.21816 232.426 6.60097 224.683C17.2733 214.09 24.7969 201.354 29.9045 189.399C32.7241 182.788 35.1142 176.289 37.4286 169.983C42.3173 156.634 46.2597 144.227 53.6746 132.161C64.444 114.444 84.8601 96.1049 115.195 87.3551C118.257 86.4741 121.327 85.705 124.395 85.0411C157.291 77.8906 187.492 83.0856 210.141 92.4707C234.983 102.766 256.454 117.838 288.169 126.657C297.758 129.322 308.141 131.341 319.001 132.635C339.206 135.074 360.996 135.028 382.02 132.272C414.12 128.034 444.121 117.432 464.567 103.522M-220.945 381.794C-223.915 363.41 -220.606 344.35 -210.57 326.562C-204.728 316.157 -196.507 306.176 -186.046 297.265C-179.229 291.455 -171.479 286.117 -162.911 281.378C-135.977 266.434 -101.857 257.263 -69.5734 251.283C-54.2974 248.455 -39.0715 246.896 -25.2295 241.866C-13.0774 237.484 -3.14312 230.859 4.88395 223.092C15.8255 212.479 23.397 199.634 28.2557 187.501C30.9386 180.79 33.1065 174.161 35.134 167.687C39.4471 153.95 42.6987 140.958 49.5356 128.271C59.4783 109.639 79.492 90.2512 110.152 81.4022C113.241 80.5096 116.339 79.7466 119.437 79.0981C152.641 72.113 184.024 78.6534 207.149 89.2795C232.519 100.937 253.918 117.366 285.809 126.968C295.465 129.877 305.933 132.069 316.891 133.485C337.296 136.15 359.336 136.115 380.585 133.163C413.056 128.629 443.365 117.242 463.838 102.233M-224.491 378.664C-227.186 360.399 -223.43 341.469 -213.145 323.837C-207.161 313.544 -198.889 303.688 -188.487 294.852C-181.707 289.091 -174.039 283.783 -165.614 279.035C-139.04 264.028 -105.558 254.478 -73.167 248.966C-57.6493 246.328 -42.0515 245.019 -27.8162 240.142C-15.3097 235.883 -5.07613 229.293 3.15322 221.501C14.3583 210.868 21.9835 197.916 26.5907 185.609C29.1345 178.8 31.0747 172.042 32.8265 165.4C36.5584 151.274 39.1249 137.699 45.3861 124.387C54.5077 104.842 74.116 84.4001 105.096 75.4506C108.209 74.5502 111.337 73.7897 114.464 73.1563C147.975 66.3406 180.537 74.2213 204.148 86.0909C230.036 99.1092 251.345 116.935 283.44 127.281C293.15 130.444 303.72 132.804 314.772 134.338C335.386 137.225 357.667 137.205 379.142 134.057C411.986 129.222 442.593 117.057 463.099 100.951M-228.038 375.539C-230.457 357.396 -226.258 338.592 -215.723 321.117C-209.597 310.938 -201.279 301.203 -190.936 292.442C-184.196 286.733 -176.606 281.448 -168.317 276.691C-142.105 261.626 -109.261 251.696 -76.7639 246.643C-61.01 244.194 -45.029 243.138 -30.3981 238.41C-17.5428 234.273 -7.00672 227.724 1.42492 219.907C12.9017 209.25 20.57 196.198 24.9282 183.712C27.3354 176.803 29.0452 169.918 30.5239 163.106C33.6722 148.595 35.5559 134.432 41.2414 120.495C49.542 100.037 68.7366 78.5439 100.047 69.4964C103.184 68.5882 106.341 67.8339 109.505 67.2133C143.328 60.5681 177.06 69.7827 201.156 82.8998C227.563 97.2744 248.818 116.448 281.074 127.591C290.85 130.989 301.506 133.531 312.655 135.188C333.473 138.296 356.002 138.29 377.699 134.95C410.919 129.821 441.826 116.873 462.359 99.6688M-231.578 372.411C-233.719 354.391 -229.083 335.71 -218.289 318.399C-212.026 308.33 -203.657 298.72 -193.368 290.035C-186.665 284.376 -179.163 279.119 -171.008 274.35C-145.156 259.222 -112.958 248.924 -80.3462 244.329C-64.3529 242.074 -47.9977 241.263 -32.9735 236.689C-19.7638 232.675 -8.92845 226.162 -0.294526 218.318C11.4514 207.643 19.1678 194.483 23.2769 181.818C25.5507 174.813 27.0133 167.799 28.2301 160.818C30.7698 145.921 31.9901 131.171 37.1056 116.609C44.5819 95.2332 63.3719 72.6954 95.0079 63.5486C98.1748 62.6338 101.357 61.8808 104.552 61.2715C138.681 54.7957 173.547 65.3713 198.175 79.7111C225.052 95.4706 246.303 115.963 278.725 127.904C288.571 131.542 299.313 134.266 310.561 136.042C331.588 139.372 354.364 139.383 376.28 135.845C409.874 130.416 441.079 116.689 461.647 98.3841M-235.123 369.281C-238.072 340.993 -223.665 311.069 -195.809 287.622C-167.952 264.175 -126.96 247.46 -83.9318 242.009C-67.7015 239.951 -50.964 239.384 -35.5441 234.96C-3.54059 225.781 14.9342 202.209 21.6257 179.924C28.3172 157.639 26.309 135.011 32.9642 112.722C39.6194 90.4334 58.0014 66.8455 89.9652 57.5957C127.177 46.8248 167.757 59.4414 195.186 76.525C222.615 93.6086 243.774 115.48 276.368 128.221C304.833 139.348 340.877 142.468 374.843 136.739C408.809 131.011 440.314 116.502 460.914 97.1032M-233.225 362.333C-235.727 334.338 -221.11 304.831 -193.301 281.791C-165.489 258.747 -124.822 242.308 -82.2293 237.235C-65.6157 235.254 -48.5202 235.114 -32.8339 230.996C-1.03199 222.647 17.56 200.003 25.0056 178.625C32.4569 157.248 31.4971 135.303 38.8036 113.383C46.2034 91.1894 64.0231 67.3269 95.6042 57.5344C132.275 46.2382 173.163 57.8629 201.042 74.5847C228.922 91.3064 250.023 113.622 281.333 126.72C308.403 138.043 342.985 141.269 375.594 136.193C408.203 131.118 438.771 117.65 459.194 99.0924M-231.325 355.39C-233.384 327.687 -218.547 298.603 -190.787 275.961C-163.023 253.325 -122.675 237.171 -80.513 232.46C-63.5129 230.561 -46.082 230.843 -30.1019 227.027C1.47733 219.491 20.2043 197.789 28.4073 177.323C36.6127 156.853 36.723 135.585 44.6647 114.04C52.8138 91.9337 70.0341 67.7531 101.273 57.4665C137.355 45.5862 178.596 56.2818 206.926 72.6417C235.255 89.0015 256.275 111.748 286.333 125.214C312.013 136.717 345.124 140.064 376.38 135.642C407.631 131.219 437.259 118.788 457.51 101.076M-229.427 348.442C-231.047 321.035 -215.992 292.364 -188.273 270.131C-160.555 247.899 -120.518 232.049 -78.7992 227.688C-61.4126 225.871 -43.6576 226.573 -27.3747 223.066C3.94951 216.323 22.8471 195.587 31.8098 176.029C40.7669 156.47 41.9578 135.874 50.5266 114.706C59.0954 93.5377 76.0598 68.2178 106.935 57.4102C142.454 44.9778 184.022 54.7123 212.802 70.7102C241.582 86.7082 262.504 109.869 291.321 123.719C315.6 135.385 347.255 138.871 377.154 135.102C407.047 131.331 435.732 119.94 455.813 103.07M-227.53 341.494C-228.707 314.379 -213.436 286.126 -185.765 264.3C-158.095 242.475 -118.367 226.935 -77.0943 222.911C-59.3155 221.176 -41.2565 222.289 -24.654 219.096C6.38852 213.126 25.4833 193.375 35.2002 174.724C44.917 156.073 47.1942 136.15 56.3764 115.36C66.0654 93.4248 82.0709 68.6748 112.587 57.3385C147.54 44.3579 189.441 53.1236 218.668 68.7635C247.896 84.4035 268.715 107.959 296.305 122.209C319.184 134.026 349.38 137.667 377.918 134.546C406.461 131.426 434.196 121.077 454.106 105.049M-225.627 334.547C-226.359 307.729 -210.869 279.89 -183.244 258.468C-155.618 237.046 -116.197 221.834 -75.3724 218.137C-57.1982 216.49 -38.8555 218.005 -21.9188 215.132C8.81781 209.913 28.1341 191.17 38.6051 173.426C49.0761 155.682 52.4612 136.428 62.2383 116.026C72.709 94.1677 88.0941 69.1433 118.254 57.2834C152.639 43.7585 194.873 51.5552 224.545 66.8321C254.217 82.1089 274.919 106.048 301.292 120.714C322.773 132.66 351.506 136.472 378.692 134.005C405.877 131.538 432.677 122.226 452.412 107.04M-223.729 327.599C-224.019 301.073 -208.314 273.651 -180.736 252.637C-153.158 231.623 -114.04 216.743 -73.6643 213.364C-55.1027 211.808 -36.4771 213.716 -19.2005 211.165C11.2115 206.674 30.7648 188.957 41.9931 172.125C53.2158 155.292 57.7226 136.705 68.0801 116.683C79.3493 94.9055 94.1004 69.6081 123.898 57.2144C157.72 43.1463 200.281 49.973 230.403 64.8879C260.525 79.8029 281.093 104.103 306.262 119.206C326.349 131.264 353.62 135.266 379.447 133.451C405.275 131.637 431.133 123.365 450.697 109.021M-221.826 320.653C-221.676 294.422 -205.752 267.414 -178.216 246.808C-150.686 226.201 -111.868 211.669 -71.9481 208.589C-52.9902 207.13 -34.0971 209.414 -16.4685 207.197C13.6059 203.414 33.4124 186.748 45.3948 170.822C57.3772 154.897 63.0113 136.979 73.9411 117.34C86.0193 95.6367 100.126 70.0727 129.561 57.1452C162.816 42.5417 205.711 48.3867 236.281 62.9437C266.853 77.4967 287.281 102.136 311.255 117.703C329.956 129.848 355.756 134.065 380.226 132.903C404.696 131.741 429.611 124.51 449.005 111.007M-219.929 313.704C-219.337 287.766 -203.191 261.177 -175.706 240.973C-148.221 220.77 -109.701 206.594 -70.2375 203.813C-50.889 202.449 -31.7373 205.103 -13.7445 203.231C15.9737 200.135 36.0519 184.541 48.7884 169.522C61.525 154.504 66.7538 136.897 79.7941 117.999C94.4342 96.778 106.147 70.5451 135.219 57.0837C167.913 41.9462 211.134 46.8121 242.156 61.0033C273.179 75.1944 293.47 100.146 316.242 116.198C333.571 128.409 357.878 132.865 380.993 132.352C404.108 131.839 428.08 125.647 447.301 112.991M-218.025 306.758C-216.988 281.116 -200.63 254.94 -173.186 235.145C-145.743 215.35 -107.527 201.538 -68.5156 199.039C-48.7733 197.776 -29.367 200.786 -11.0069 199.264C18.3502 196.831 38.6995 182.331 52.1958 168.221C65.6864 154.11 72.0078 137.124 85.6609 118.657C101.243 97.5753 112.179 71.0201 140.888 57.0159C173.02 41.3442 216.567 45.231 248.04 59.0603C279.51 72.8934 299.662 98.1309 321.243 114.692C337.207 126.947 360.022 131.661 381.779 131.801C403.536 131.941 426.572 126.79 445.617 114.975M-216.128 299.81C-214.649 274.46 -198.074 248.701 -170.678 229.314C-143.281 209.923 -105.361 196.484 -66.8131 194.265C-46.6713 193.104 -27.0226 196.458 -8.29099 195.301C20.6944 193.507 41.3333 180.123 55.5813 166.924C69.8294 153.725 78.9454 137.818 91.5059 119.319C106.084 97.8468 118.189 71.4989 146.533 56.9558C178.107 40.7551 221.979 43.6538 253.899 57.1251C285.819 70.5964 305.841 96.0952 326.213 113.193C340.841 125.467 362.137 130.463 382.536 131.256C402.935 132.049 425.028 127.939 443.903 116.966M-214.231 292.862C-212.309 267.804 -195.513 242.464 -168.168 223.479C-140.818 204.495 -103.2 191.438 -65.1001 189.485C-44.5636 188.434 -24.6719 192.11 -5.56792 191.326C23.0385 190.151 43.9719 177.907 58.9741 165.615C73.9762 153.323 84.2809 138.089 97.358 119.97C112.801 98.5752 124.218 71.9687 152.193 56.8815C183.212 40.1569 227.403 42.0663 259.774 55.1757C292.144 68.2851 312.044 94.0209 331.205 111.681C344.511 123.951 364.267 129.252 383.314 130.699C402.358 132.141 423.507 129.07 442.21 118.943M-212.327 285.915C-209.961 261.154 -192.954 236.231 -165.649 217.65C-138.344 199.07 -101.021 186.405 -63.3863 184.714C-42.4551 183.772 -22.3211 187.762 -2.8407 187.365C25.393 186.79 46.6147 175.705 62.3709 164.32C78.1272 152.935 89.6262 138.376 103.209 120.633C119.527 99.3189 130.238 72.454 157.843 56.8227C188.307 39.5742 232.818 40.4943 265.633 53.2405C298.454 65.988 318.265 91.9285 336.176 110.182C348.187 122.424 366.381 128.055 384.07 130.154C401.756 132.249 421.963 130.218 440.497 120.934M-210.432 278.97C-207.624 254.502 -190.4 229.996 -163.143 211.823C-135.886 193.65 -98.861 181.381 -61.6806 179.945C-40.3514 179.119 -19.98 183.399 -0.119156 183.403C27.7346 183.408 49.2461 173.501 65.7621 163.024C82.2757 152.551 94.9827 138.666 109.059 121.297C126.265 100.065 136.262 72.9405 163.496 56.76C193.404 38.9877 238.238 38.9145 271.5 51.3028C304.765 63.6871 324.521 89.809 341.158 108.685C351.906 120.879 368.504 126.864 384.835 129.607C401.166 132.351 420.436 131.361 438.791 122.921M-208.529 272.024C-205.281 247.851 -187.833 223.76 -160.621 205.991C-133.412 188.225 -96.6813 176.357 -59.9563 175.167C-38.234 174.463 -17.6132 179.015 2.62089 179.432C30.1043 180.001 51.9042 171.285 69.1719 161.719C86.4396 152.152 100.372 138.954 114.928 121.951C133.038 100.806 142.309 73.423 169.171 56.6933C198.533 38.4035 243.677 37.3346 277.392 49.3571C311.105 61.3835 330.844 87.6557 346.161 107.176C355.678 119.303 370.645 125.655 385.624 129.052C400.603 132.45 418.924 132.499 437.109 124.901M-206.632 265.076C-202.941 241.195 -185.278 217.522 -158.113 200.16C-130.949 182.798 -94.5144 171.344 -58.2538 170.393C-36.1327 169.814 -15.2667 174.622 5.33114 175.468C32.4505 176.581 54.53 169.079 72.5519 160.42C90.5737 151.761 105.738 139.249 120.768 122.612C139.791 101.56 148.334 73.9095 174.812 56.6281C203.628 37.8208 249.085 35.7523 283.248 47.4168C317.411 59.0813 337.182 85.4792 351.129 105.671C359.445 117.712 372.756 124.452 386.377 128.503C399.998 132.553 417.377 133.642 435.392 126.887M-204.729 258.129C-200.593 234.545 -182.717 211.284 -155.594 194.331C-128.477 177.377 -92.3411 166.34 -56.5319 165.619C-34.0144 165.167 -12.8911 170.213 8.06878 171.501C34.8314 173.146 57.1776 166.87 75.9591 159.119C94.7383 151.371 111.136 139.544 126.635 123.27C146.585 102.319 154.384 74.3971 180.484 56.5653C208.759 37.2417 254.522 34.1763 289.135 45.4789C323.748 56.7815 343.612 83.2882 356.132 104.171C363.293 116.117 374.904 123.253 387.167 127.957C399.43 132.66 415.869 134.785 433.713 128.872M-202.831 251.181C-198.253 227.889 -180.155 205.047 -153.084 188.496C-126.012 171.945 -90.1791 161.334 -54.8214 160.843C-31.9123 160.527 -10.5196 165.791 10.7927 167.535C37.2082 169.697 59.8171 164.663 79.3528 157.819C98.8861 150.978 116.536 139.847 132.488 123.929C153.377 103.082 160.423 74.8913 186.139 56.4988C213.877 36.664 259.941 32.5965 295.004 43.5372C330.068 54.478 350.101 81.075 361.114 102.665C367.152 114.502 377.023 122.048 387.928 127.404C398.834 132.761 414.336 135.927 432.004 130.854M-200.934 244.233C-195.916 221.236 -177.6 198.809 -150.57 182.667C-123.54 166.524 -88.0106 156.338 -53.1108 156.067C-29.8101 155.886 -8.13857 161.353 13.5191 163.565C39.5969 166.228 62.4614 162.448 82.7488 156.515C103.036 150.581 121.949 140.149 138.343 124.585C160.184 103.852 166.468 75.3777 191.794 56.4322C218.997 36.0825 265.363 31.0129 300.874 41.5956C336.388 52.1745 356.671 78.8448 366.098 101.164C371.053 112.893 379.149 120.854 388.699 126.859C398.246 132.868 412.806 137.074 430.304 132.844M-199.031 237.286C-193.571 214.581 -175.038 192.572 -148.056 176.837C-121.072 161.098 -85.8525 151.349 -51.397 151.295C-27.7039 151.259 -5.74702 156.908 16.2462 159.605C41.997 162.763 65.1042 160.246 86.1457 155.22C107.187 150.194 127.363 140.469 144.194 125.248C166.997 104.633 172.519 75.8743 197.453 56.3708C224.124 35.5112 270.786 29.4383 306.742 39.6578C342.703 49.8787 363.324 76.6154 371.077 99.6626C374.99 111.278 381.271 119.654 389.464 126.312C397.656 132.969 411.273 138.216 428.598 134.831M-197.133 230.338C-191.225 207.927 -172.477 186.334 -145.546 171.002C-118.609 155.671 -83.6944 146.36 -49.6864 146.519C-25.6033 146.631 -3.34104 152.441 18.967 155.634C44.4116 159.274 67.7348 158.033 89.5337 153.919C111.333 149.804 132.775 140.784 150.039 125.91C173.816 105.423 178.558 76.3685 203.1 56.3068C229.242 34.9335 276.198 27.8611 312.603 37.7188C349.009 47.5765 370.063 74.383 376.056 98.1608C378.955 109.669 383.388 118.452 390.228 125.764C397.068 133.076 409.737 139.361 426.893 136.819M-195.23 223.391C-188.882 201.276 -169.916 180.097 -143.026 165.173C-116.137 150.249 -81.5242 141.382 -47.9702 141.744C-23.4995 142.008 -0.918988 147.968 21.6965 151.669C46.8454 155.784 70.3824 155.823 92.9329 152.62C115.486 149.413 138.204 141.111 155.897 126.571C180.661 106.224 184.622 76.8638 208.758 56.2454C234.374 34.3635 281.623 26.2826 318.479 35.7784C355.335 45.2742 376.916 72.1628 381.043 96.6564C382.967 108.067 385.519 117.25 391.001 125.215C396.478 133.178 408.217 140.502 425.195 138.804M-193.333 216.443C-186.543 194.619 -167.362 173.863 -140.518 159.342C-113.675 144.822 -79.3734 136.404 -46.262 136.971C-21.4029 137.396 1.5103 143.483 24.4205 147.703C49.2922 152.285 73.0219 153.616 96.3266 151.32C119.639 149.021 143.633 141.439 161.75 127.231C187.504 107.029 190.679 77.3617 214.419 56.1801C239.517 33.787 287.048 24.7041 324.354 33.838C361.66 42.9719 383.864 69.9551 386.035 95.1533C387.009 106.48 387.655 116.049 391.774 124.665C395.901 133.279 406.69 141.645 423.497 140.79M-191.432 209.5C-184.197 187.974 -164.798 167.63 -137.999 153.514C-111.203 139.401 -77.2137 131.433 -44.5402 132.197C-19.295 132.788 3.96856 138.983 27.1581 143.736C51.7663 148.783 75.6694 151.407 99.7339 150.019C123.798 148.63 149.077 141.774 167.617 127.889C194.373 107.844 196.751 77.8543 220.085 56.116C244.671 33.2129 292.479 23.1268 330.235 31.8988C367.991 40.6709 390.912 67.7738 391.028 93.6501C391.077 104.912 389.783 114.85 392.552 124.116C395.322 133.383 405.168 142.789 421.805 142.776M-189.535 202.552C-181.857 181.317 -162.242 161.392 -135.491 147.683C-108.74 133.973 -75.07 126.467 -42.8376 127.424C-17.2089 128.183 6.42597 134.474 29.874 139.773C54.2372 145.276 78.3009 149.202 103.125 148.722C127.944 148.241 154.506 142.124 173.468 128.552C201.232 108.675 202.813 78.3535 225.738 56.0533C249.806 32.639 297.899 21.547 336.102 29.961C374.306 38.3751 398.027 65.6295 396.004 92.1522C395.15 103.367 391.903 113.654 393.315 123.573C394.726 133.493 403.632 143.935 420.097 144.768M-187.637 195.604C-179.52 174.665 -159.686 155.154 -132.977 141.853C-106.274 128.551 -72.9207 121.502 -41.1215 122.648C-15.1138 123.584 8.90756 129.957 32.6004 135.803C56.7379 141.762 80.9452 146.988 106.521 147.419C132.1 147.845 159.942 142.471 179.318 129.206C208.095 109.51 208.918 78.8576 231.393 55.9868C254.989 32.0803 303.318 19.9673 341.972 28.0194C380.626 36.0716 405.216 63.5195 400.991 90.6478C399.25 101.842 394.034 112.451 394.087 123.023C394.141 133.596 402.11 145.079 418.399 146.753M-185.734 188.657C-177.175 168.01 -157.12 148.918 -130.461 136.019C-103.798 123.122 -70.7738 116.541 -39.4052 117.873C-13.0236 118.994 11.41 125.427 35.33 131.839C59.2499 138.25 83.5847 144.781 109.92 146.12C136.25 147.457 165.38 142.826 185.176 129.867C214.975 110.359 214.959 79.3389 237.054 55.9215C260.109 31.4898 308.743 18.3887 347.842 26.0778C386.946 33.768 412.463 61.4528 405.973 89.1421C403.347 100.341 396.153 111.246 394.854 122.473C393.553 133.694 400.577 146.221 416.695 148.737M465.951 198.053C464.725 179.533 438.411 166.116 410.269 164.745C382.124 163.378 353.395 171.728 328.916 182.757C304.436 193.786 282.931 207.54 259.157 219.254C237.334 230.002 198.536 243.8 175.853 230.394C164.451 223.656 161.563 211.345 169.098 201.598C174.913 194.078 185.539 189.142 191.713 181.812C198.648 173.577 202.218 164.229 201.674 155.189C199.323 115.704 107.391 97.8647 126.615 54.2723C141.103 21.4274 215.128 7.29883 258.177 3.14606C319.717 -2.78998 377.628 7.02412 428.817 25.855C450.849 33.9587 476.87 43.4119 488.257 58.85C488.509 59.1788 488.745 59.5129 488.975 59.8457C494.602 67.9922 496.27 77.4581 494.02 86.7084C491.503 97.0518 488.474 106.45 486.951 116.993C484.986 130.614 483.019 144.239 481.06 157.861L465.948 198.047L465.951 198.053Z" stroke="#497CF2" stroke-opacity="0.66" stroke-miterlimit="10"/>
</svg>
